<svg xmlns="http://www.w3.org/2000/svg" xmlns:xlink="http://www.w3.org/1999/xlink" contentStyleType="text/css" data-diagram-type="SEQUENCE" height="310px" preserveAspectRatio="none" style="width:581px;height:310px;background:#FFFFFF;" version="1.1" viewBox="0 0 581 310" width="581px" zoomAndPan="magnify"><?plantuml 1.2026.3beta6?><defs/><g><rect fill="#F8F2FF" height="297.2578" style="stroke:#181818;stroke-width:0.5;" width="461.6387" x="102.5713" y="6"/><text fill="#000000" font-family="sans-serif" font-size="13" font-weight="700" lengthAdjust="spacing" textLength="163.5981" x="251.5916" y="18.0669">Participant ecosystem</text><g><title>Participant</title><rect fill="#FFFFFF" height="96.3984" style="stroke:#181818;stroke-width:1;" width="10" x="40.7856" y="118.5625"/></g><g><title>Database</title><rect fill="#FFFFFF" height="67.2656" style="stroke:#181818;stroke-width:1;" width="10" x="137.9717" y="147.6953"/></g><g><title>Vault</title><rect fill="#FFFFFF" height="38.1328" style="stroke:#181818;stroke-width:1;" width="10" x="205.5762" y="176.8281"/></g><g><title>Control Plane</title><rect fill="#FFFFFF" height="96.3984" style="stroke:#181818;stroke-width:1;" width="10" x="401.0537" y="118.5625"/></g><g class="participant-lifeline" data-entity-uid="part1" data-qualified-name="Participant" data-source-line="19" id="part1-lifeline"><g><title>Participant</title><rect fill="#000000" fill-opacity="0.00000" height="136.5313" width="8" x="41.7856" y="87.4297"/><line style="stroke:#181818;stroke-width:0.5;stroke-dasharray:5,5;" x1="45" x2="45" y1="87.4297" y2="223.9609"/></g></g><g class="participant-lifeline" data-entity-uid="part2" data-qualified-name="ParticipantADatabase" data-source-line="22" id="part2-lifeline"><g><title>Database</title><rect fill="#000000" fill-opacity="0.00000" height="136.5313" width="8" x="138.9717" y="87.4297"/><line style="stroke:#181818;stroke-width:0.5;stroke-dasharray:5,5;" x1="142.5713" x2="142.5713" y1="87.4297" y2="223.9609"/></g></g><g class="participant-lifeline" data-entity-uid="part3" data-qualified-name="ParticipantAVault" data-source-line="23" id="part3-lifeline"><g><title>Vault</title><rect fill="#000000" fill-opacity="0.00000" height="136.5313" width="8" x="206.5762" y="87.4297"/><line style="stroke:#181818;stroke-width:0.5;stroke-dasharray:5,5;" x1="210.3721" x2="210.3721" y1="87.4297" y2="223.9609"/></g></g><g class="participant-lifeline" data-entity-uid="part4" data-qualified-name="ParticipantAIdentityHub" data-source-line="24" id="part4-lifeline"><g><title>Identity Hub</title><rect fill="#000000" fill-opacity="0.00000" height="136.5313" width="8" x="287.9766" y="87.4297"/><line style="stroke:#181818;stroke-width:0.5;stroke-dasharray:5,5;" x1="291.7803" x2="291.7803" y1="87.4297" y2="223.9609"/></g></g><g class="participant-lifeline" data-entity-uid="part5" data-qualified-name="ParticipantAControlPlane" data-source-line="25" id="part5-lifeline"><g><title>Control Plane</title><rect fill="#000000" fill-opacity="0.00000" height="136.5313" width="8" x="402.0537" y="87.4297"/><line style="stroke:#181818;stroke-width:0.5;stroke-dasharray:5,5;" x1="405.1729" x2="405.1729" y1="87.4297" y2="223.9609"/></g></g><g class="participant-lifeline" data-entity-uid="part6" data-qualified-name="ParticipantADataPlane" data-source-line="26" id="part6-lifeline"><g><title>Data Plane</title><rect fill="#000000" fill-opacity="0.00000" height="136.5313" width="8" x="511.0723" y="87.4297"/><line style="stroke:#181818;stroke-width:0.5;stroke-dasharray:5,5;" x1="514.9346" x2="514.9346" y1="87.4297" y2="223.9609"/></g></g><g class="participant participant-head" data-entity-uid="part1" data-qualified-name="Participant" data-source-line="19" id="part1-head"><text fill="#000000" font-family="sans-serif" font-size="14" lengthAdjust="spacing" textLength="75.5713" x="5" y="84.1279">Participant</text><ellipse cx="45.7856" cy="19.6328" fill="#F5F5F5" rx="8" ry="8" style="stroke:#181818;stroke-width:0.5;"/><path d="M45.7856,27.6328 L45.7856,54.6328 M32.7856,35.6328 L58.7856,35.6328 M45.7856,54.6328 L32.7856,69.6328 M45.7856,54.6328 L58.7856,69.6328" fill="none" style="stroke:#181818;stroke-width:0.5;"/></g><g class="participant participant-tail" data-entity-uid="part1" data-qualified-name="Participant" data-source-line="19" id="part1-tail"><text fill="#000000" font-family="sans-serif" font-size="14" lengthAdjust="spacing" textLength="75.5713" x="5" y="235.9561">Participant</text><ellipse cx="45.7856" cy="247.7578" fill="#F5F5F5" rx="8" ry="8" style="stroke:#181818;stroke-width:0.5;"/><path d="M45.7856,255.7578 L45.7856,282.7578 M32.7856,263.7578 L58.7856,263.7578 M45.7856,282.7578 L32.7856,297.7578 M45.7856,282.7578 L58.7856,297.7578" fill="none" style="stroke:#181818;stroke-width:0.5;"/></g><g class="participant participant-head" data-entity-uid="part2" data-qualified-name="ParticipantADatabase" data-source-line="22" id="part2-head"><text fill="#000000" font-family="sans-serif" font-size="14" lengthAdjust="spacing" textLength="66.8008" x="106.5713" y="84.1279">Database</text><path d="M124.9717,35.1328 C124.9717,25.1328 142.9717,25.1328 142.9717,25.1328 C142.9717,25.1328 160.9717,25.1328 160.9717,35.1328 L160.9717,61.1328 C160.9717,71.1328 142.9717,71.1328 142.9717,71.1328 C142.9717,71.1328 124.9717,71.1328 124.9717,61.1328 L124.9717,35.1328" fill="#E2E2F0" style="stroke:#181818;stroke-width:0.5;"/><path d="M124.9717,35.1328 C124.9717,45.1328 142.9717,45.1328 142.9717,45.1328 C142.9717,45.1328 160.9717,45.1328 160.9717,35.1328" fill="none" style="stroke:#181818;stroke-width:0.5;"/></g><g class="participant participant-tail" data-entity-uid="part2" data-qualified-name="ParticipantADatabase" data-source-line="22" id="part2-tail"><text fill="#000000" font-family="sans-serif" font-size="14" lengthAdjust="spacing" textLength="66.8008" x="106.5713" y="235.9561">Database</text><path d="M124.9717,249.2578 C124.9717,239.2578 142.9717,239.2578 142.9717,239.2578 C142.9717,239.2578 160.9717,239.2578 160.9717,249.2578 L160.9717,275.2578 C160.9717,285.2578 142.9717,285.2578 142.9717,285.2578 C142.9717,285.2578 124.9717,285.2578 124.9717,275.2578 L124.9717,249.2578" fill="#E2E2F0" style="stroke:#181818;stroke-width:0.5;"/><path d="M124.9717,249.2578 C124.9717,259.2578 142.9717,259.2578 142.9717,259.2578 C142.9717,259.2578 160.9717,259.2578 160.9717,249.2578" fill="none" style="stroke:#181818;stroke-width:0.5;"/></g><g class="participant participant-head" data-entity-uid="part3" data-qualified-name="ParticipantAVault" data-source-line="23" id="part3-head"><text fill="#000000" font-family="sans-serif" font-size="14" lengthAdjust="spacing" textLength="36.4082" x="189.3721" y="84.1279">Vault</text><path d="M192.5762,35.1328 C192.5762,25.1328 210.5762,25.1328 210.5762,25.1328 C210.5762,25.1328 228.5762,25.1328 228.5762,35.1328 L228.5762,61.1328 C228.5762,71.1328 210.5762,71.1328 210.5762,71.1328 C210.5762,71.1328 192.5762,71.1328 192.5762,61.1328 L192.5762,35.1328" fill="#E2E2F0" style="stroke:#181818;stroke-width:0.5;"/><path d="M192.5762,35.1328 C192.5762,45.1328 210.5762,45.1328 210.5762,45.1328 C210.5762,45.1328 228.5762,45.1328 228.5762,35.1328" fill="none" style="stroke:#181818;stroke-width:0.5;"/></g><g class="participant participant-tail" data-entity-uid="part3" data-qualified-name="ParticipantAVault" data-source-line="23" id="part3-tail"><text fill="#000000" font-family="sans-serif" font-size="14" lengthAdjust="spacing" textLength="36.4082" x="189.3721" y="235.9561">Vault</text><path d="M192.5762,249.2578 C192.5762,239.2578 210.5762,239.2578 210.5762,239.2578 C210.5762,239.2578 228.5762,239.2578 228.5762,249.2578 L228.5762,275.2578 C228.5762,285.2578 210.5762,285.2578 210.5762,285.2578 C210.5762,285.2578 192.5762,285.2578 192.5762,275.2578 L192.5762,249.2578" fill="#E2E2F0" style="stroke:#181818;stroke-width:0.5;"/><path d="M192.5762,249.2578 C192.5762,259.2578 210.5762,259.2578 210.5762,259.2578 C210.5762,259.2578 228.5762,259.2578 228.5762,249.2578" fill="none" style="stroke:#181818;stroke-width:0.5;"/></g><g class="participant participant-head" data-entity-uid="part4" data-qualified-name="ParticipantAIdentityHub" data-source-line="24" id="part4-head"><rect fill="#FFFFCC" height="30.2969" rx="2.5" ry="2.5" style="stroke:#181818;stroke-width:0.5;" width="100.3926" x="241.7803" y="56.1328"/><text fill="#000000" font-family="sans-serif" font-size="14" lengthAdjust="spacing" textLength="86.3926" x="248.7803" y="76.1279">Identity Hub</text></g><g class="participant participant-tail" data-entity-uid="part4" data-qualified-name="ParticipantAIdentityHub" data-source-line="24" id="part4-tail"><rect fill="#FFFFCC" height="30.2969" rx="2.5" ry="2.5" style="stroke:#181818;stroke-width:0.5;" width="100.3926" x="241.7803" y="222.9609"/><text fill="#000000" font-family="sans-serif" font-size="14" lengthAdjust="spacing" textLength="86.3926" x="248.7803" y="242.9561">Identity Hub</text></g><g class="participant participant-head" data-entity-uid="part5" data-qualified-name="ParticipantAControlPlane" data-source-line="25" id="part5-head"><rect fill="#FFFFCC" height="30.2969" rx="2.5" ry="2.5" style="stroke:#181818;stroke-width:0.5;" width="107.7617" x="352.1729" y="56.1328"/><text fill="#000000" font-family="sans-serif" font-size="14" lengthAdjust="spacing" textLength="93.7617" x="359.1729" y="76.1279">Control Plane</text></g><g class="participant participant-tail" data-entity-uid="part5" data-qualified-name="ParticipantAControlPlane" data-source-line="25" id="part5-tail"><rect fill="#FFFFCC" height="30.2969" rx="2.5" ry="2.5" style="stroke:#181818;stroke-width:0.5;" width="107.7617" x="352.1729" y="222.9609"/><text fill="#000000" font-family="sans-serif" font-size="14" lengthAdjust="spacing" textLength="93.7617" x="359.1729" y="242.9561">Control Plane</text></g><g class="participant participant-head" data-entity-uid="part6" data-qualified-name="ParticipantADataPlane" data-source-line="26" id="part6-head"><rect fill="#FFFFCC" height="30.2969" rx="2.5" ry="2.5" style="stroke:#181818;stroke-width:0.5;" width="90.2754" x="469.9346" y="56.1328"/><text fill="#000000" font-family="sans-serif" font-size="14" lengthAdjust="spacing" textLength="76.2754" x="476.9346" y="76.1279">Data Plane</text></g><g class="participant participant-tail" data-entity-uid="part6" data-qualified-name="ParticipantADataPlane" data-source-line="26" id="part6-tail"><rect fill="#FFFFCC" height="30.2969" rx="2.5" ry="2.5" style="stroke:#181818;stroke-width:0.5;" width="90.2754" x="469.9346" y="222.9609"/><text fill="#000000" font-family="sans-serif" font-size="14" lengthAdjust="spacing" textLength="76.2754" x="476.9346" y="242.9561">Data Plane</text></g><g><title>Participant</title><rect fill="#FFFFFF" height="96.3984" style="stroke:#181818;stroke-width:1;" width="10" x="40.7856" y="118.5625"/></g><g><title>Database</title><rect fill="#FFFFFF" height="67.2656" style="stroke:#181818;stroke-width:1;" width="10" x="137.9717" y="147.6953"/></g><g><title>Vault</title><rect fill="#FFFFFF" height="38.1328" style="stroke:#181818;stroke-width:1;" width="10" x="205.5762" y="176.8281"/></g><g><title>Control Plane</title><rect fill="#FFFFFF" height="96.3984" style="stroke:#181818;stroke-width:1;" width="10" x="401.0537" y="118.5625"/></g><g class="message" data-entity-1="part1" data-entity-2="part5" data-source-line="31" id="msg1"><line style="stroke:#181818;stroke-width:1;" x1="399.0537" x2="389.0537" y1="118.5625" y2="114.5625"/><line style="stroke:#181818;stroke-width:1;" x1="399.0537" x2="389.0537" y1="118.5625" y2="122.5625"/><line style="stroke:#181818;stroke-width:1;" x1="50.7856" x2="400.0537" y1="118.5625" y2="118.5625"/><text fill="#000000" font-family="sans-serif" font-size="13" font-weight="700" lengthAdjust="spacing" textLength="9.0454" x="57.7856" y="113.4966">1</text><text fill="#000000" font-family="sans-serif" font-size="13" lengthAdjust="spacing" textLength="175.6396" x="70.8311" y="113.4966">define dataset and policies</text></g><g class="message" data-entity-1="part5" data-entity-2="part2" data-source-line="34" id="msg2"><line style="stroke:#181818;stroke-width:1;" x1="148.9717" x2="158.9717" y1="147.6953" y2="143.6953"/><line style="stroke:#181818;stroke-width:1;" x1="148.9717" x2="158.9717" y1="147.6953" y2="151.6953"/><line style="stroke:#181818;stroke-width:1;" x1="147.9717" x2="400.0537" y1="147.6953" y2="147.6953"/><text fill="#000000" font-family="sans-serif" font-size="13" font-weight="700" lengthAdjust="spacing" textLength="9.0454" x="164.9717" y="142.6294">2</text><text fill="#000000" font-family="sans-serif" font-size="13" lengthAdjust="spacing" textLength="153.5879" x="178.0171" y="142.6294">store dataset metadata</text></g><g class="message" data-entity-1="part5" data-entity-2="part3" data-source-line="36" id="msg3"><line style="stroke:#181818;stroke-width:1;" x1="216.5762" x2="226.5762" y1="176.8281" y2="172.8281"/><line style="stroke:#181818;stroke-width:1;" x1="216.5762" x2="226.5762" y1="176.8281" y2="180.8281"/><line style="stroke:#181818;stroke-width:1;" x1="215.5762" x2="400.0537" y1="176.8281" y2="176.8281"/><text fill="#000000" font-family="sans-serif" font-size="13" font-weight="700" lengthAdjust="spacing" textLength="9.0454" x="232.5762" y="171.7622">3</text><text fill="#000000" font-family="sans-serif" font-size="13" lengthAdjust="spacing" textLength="86.4487" x="245.6216" y="171.7622">store dataset</text></g><g class="message" data-entity-1="part5" data-entity-2="part1" data-source-line="38" id="msg4"><line style="stroke:#181818;stroke-width:1;" x1="51.7856" x2="61.7856" y1="205.9609" y2="201.9609"/><line style="stroke:#181818;stroke-width:1;" x1="51.7856" x2="61.7856" y1="205.9609" y2="209.9609"/><line style="stroke:#181818;stroke-width:1;stroke-dasharray:2,2;" x1="50.7856" x2="400.0537" y1="205.9609" y2="205.9609"/><text fill="#000000" font-family="sans-serif" font-size="13" font-weight="700" lengthAdjust="spacing" textLength="9.0454" x="67.7856" y="200.895">4</text><text fill="#000000" font-family="sans-serif" font-size="13" lengthAdjust="spacing" textLength="85.5791" x="80.8311" y="200.895">acknowledge</text></g><?plantuml-src ZLHDRzim3BthLsZPkS2wei3QGu7OcR42mn2WHNjcBDen8ak6AAtDlozj9QwSZo8-62Bv-FZyA9WsZLc2WrR-inupA3Uriy6et6hhvEkwyVZKsWqAcW0BQto4P9fxaYg_VLCs7HX_4TkyzDPTXgpn3ESHo3g5BWAUDjjCXmZf1WYjGTctnjIo0arf9RFlIr2gBrt_4EARmgenc7xIF99MlwgVLNKAa4M0kaEL05xoHwA0Zc9rSLlS_huPgmlmG1sKE0z-RLtZjn5MvCLDNeomLt26fUri3yGveh7w5s5doJEMQyEdUYi416zDQ5Ve-DmxdMgLG7AMn3CXLlPzaf9OMjgIntOcln_v82G_YjMlWAOsBVR9ViG-c9t7lq3GKSzmYiWkqP627nNlc5tw4rP3opwMd62PepLVSUHyWPtLImqcYjmbv92vbAN_ia-AFZhkHwCasvhkGbuBaPfyzV1mNjozt6suDuwGNMB2pce68_LBRVw3dxXvCZaX5MUd7KeP5talYQ_FfueMFVJdqyFsRPSFYZVWOCffyW7w1VC1DPFoJyFODusgnWy0?></g></svg>