<svg xmlns="http://www.w3.org/2000/svg" xmlns:xlink="http://www.w3.org/1999/xlink" contentStyleType="text/css" data-diagram-type="SEQUENCE" height="454px" preserveAspectRatio="none" style="width:1286px;height:454px;background:#FFFFFF;" version="1.1" viewBox="0 0 1286 454" width="1286px" zoomAndPan="magnify"><?plantuml 1.2026.3beta6?><defs/><g><rect fill="#F8F2FF" height="441.9219" style="stroke:#181818;stroke-width:0.5;" width="461.6387" x="163.6934" y="6"/><text fill="#000000" font-family="sans-serif" font-size="13" font-weight="700" lengthAdjust="spacing" textLength="178.1851" x="305.4202" y="18.0669">Participant A ecosystem</text><rect fill="#D9EDFF" height="441.9219" style="stroke:#181818;stroke-width:0.5;" width="477.5322" x="652.2183" y="6"/><text fill="#000000" font-family="sans-serif" font-size="13" font-weight="700" lengthAdjust="spacing" textLength="178.0327" x="801.968" y="18.0669">Participant B ecosystem</text><g><title>Participant A Apps</title><rect fill="#FFFFFF" height="255.0625" style="stroke:#181818;stroke-width:1;" width="10" x="71.3467" y="118.5625"/></g><g><title>Vault</title><rect fill="#FFFFFF" height="29.1328" style="stroke:#181818;stroke-width:1;" width="10" x="266.6982" y="147.6953"/></g><g><title>Data Plane</title><rect fill="#FFFFFF" height="255.0625" style="stroke:#181818;stroke-width:1;" width="10" x="571.1943" y="118.5625"/></g><g><title>Data Plane</title><rect fill="#FFFFFF" height="129.5313" style="stroke:#181818;stroke-width:1;" width="10" x="696.356" y="205.9609"/></g><g><title>Participant B API</title><rect fill="#FFFFFF" height="29.1328" style="stroke:#181818;stroke-width:1;" width="10" x="1205.8628" y="277.2266"/></g><g class="participant-lifeline" data-entity-uid="part1" data-qualified-name="ParticipantAApps" data-source-line="19" id="part1-lifeline"><g><title>Participant A Apps</title><rect fill="#000000" fill-opacity="0.00000" height="295.1953" width="8" x="72.3467" y="87.4297"/><line style="stroke:#181818;stroke-width:0.5;stroke-dasharray:5,5;" x1="76" x2="76" y1="87.4297" y2="382.625"/></g></g><g class="participant-lifeline" data-entity-uid="part2" data-qualified-name="ParticipantADatabase" data-source-line="22" id="part2-lifeline"><g><title>Database</title><rect fill="#000000" fill-opacity="0.00000" height="295.1953" width="8" x="200.0938" y="87.4297"/><line style="stroke:#181818;stroke-width:0.5;stroke-dasharray:5,5;" x1="203.6934" x2="203.6934" y1="87.4297" y2="382.625"/></g></g><g class="participant-lifeline" data-entity-uid="part3" data-qualified-name="ParticipantAVault" data-source-line="23" id="part3-lifeline"><g><title>Vault</title><rect fill="#000000" fill-opacity="0.00000" height="295.1953" width="8" x="267.6982" y="87.4297"/><line style="stroke:#181818;stroke-width:0.5;stroke-dasharray:5,5;" x1="271.4941" x2="271.4941" y1="87.4297" y2="382.625"/></g></g><g class="participant-lifeline" data-entity-uid="part4" data-qualified-name="ParticipantAIdentityHub" data-source-line="24" id="part4-lifeline"><g><title>Identity Hub</title><rect fill="#000000" fill-opacity="0.00000" height="295.1953" width="8" x="349.0986" y="87.4297"/><line style="stroke:#181818;stroke-width:0.5;stroke-dasharray:5,5;" x1="352.9023" x2="352.9023" y1="87.4297" y2="382.625"/></g></g><g class="participant-lifeline" data-entity-uid="part5" data-qualified-name="ParticipantAControlPlane" data-source-line="25" id="part5-lifeline"><g><title>Control Plane</title><rect fill="#000000" fill-opacity="0.00000" height="295.1953" width="8" x="463.1758" y="87.4297"/><line style="stroke:#181818;stroke-width:0.5;stroke-dasharray:5,5;" x1="466.2949" x2="466.2949" y1="87.4297" y2="382.625"/></g></g><g class="participant-lifeline" data-entity-uid="part6" data-qualified-name="ParticipantADataPlane" data-source-line="26" id="part6-lifeline"><g><title>Data Plane</title><rect fill="#000000" fill-opacity="0.00000" height="295.1953" width="8" x="572.1943" y="87.4297"/><line style="stroke:#181818;stroke-width:0.5;stroke-dasharray:5,5;" x1="576.0566" x2="576.0566" y1="87.4297" y2="382.625"/></g></g><g class="participant-lifeline" data-entity-uid="part7" data-qualified-name="ParticipantBDataPlane" data-source-line="30" id="part7-lifeline"><g><title>Data Plane</title><rect fill="#000000" fill-opacity="0.00000" height="295.1953" width="8" x="697.356" y="87.4297"/><line style="stroke:#181818;stroke-width:0.5;stroke-dasharray:5,5;" x1="701.2183" x2="701.2183" y1="87.4297" y2="382.625"/></g></g><g class="participant-lifeline" data-entity-uid="part8" data-qualified-name="ParticipantBControlPlane" data-source-line="31" id="part8-lifeline"><g><title>Control Plane</title><rect fill="#000000" fill-opacity="0.00000" height="295.1953" width="8" x="822.2681" y="87.4297"/><line style="stroke:#181818;stroke-width:0.5;stroke-dasharray:5,5;" x1="825.3872" x2="825.3872" y1="87.4297" y2="382.625"/></g></g><g class="participant-lifeline" data-entity-uid="part9" data-qualified-name="ParticipantBIdentityHub" data-source-line="32" id="part9-lifeline"><g><title>Identity Hub</title><rect fill="#000000" fill-opacity="0.00000" height="295.1953" width="8" x="936.3452" y="87.4297"/><line style="stroke:#181818;stroke-width:0.5;stroke-dasharray:5,5;" x1="940.1489" x2="940.1489" y1="87.4297" y2="382.625"/></g></g><g class="participant-lifeline" data-entity-uid="part10" data-qualified-name="ParticipantBDatabase" data-source-line="33" id="part10-lifeline"><g><title>Database</title><rect fill="#000000" fill-opacity="0.00000" height="295.1953" width="8" x="1032.9419" y="87.4297"/><line style="stroke:#181818;stroke-width:0.5;stroke-dasharray:5,5;" x1="1036.5415" x2="1036.5415" y1="87.4297" y2="382.625"/></g></g><g class="participant-lifeline" data-entity-uid="part11" data-qualified-name="ParticipantBVault" data-source-line="34" id="part11-lifeline"><g><title>Vault</title><rect fill="#000000" fill-opacity="0.00000" height="295.1953" width="8" x="1100.5464" y="87.4297"/><line style="stroke:#181818;stroke-width:0.5;stroke-dasharray:5,5;" x1="1104.3423" x2="1104.3423" y1="87.4297" y2="382.625"/></g></g><g class="participant-lifeline" data-entity-uid="part12" data-qualified-name="ParticipantBApi" data-source-line="37" id="part12-lifeline"><g><title>Participant B API</title><rect fill="#000000" fill-opacity="0.00000" height="295.1953" width="8" x="1206.8628" y="87.4297"/><line style="stroke:#181818;stroke-width:0.5;stroke-dasharray:5,5;" x1="1210.7505" x2="1210.7505" y1="87.4297" y2="382.625"/></g></g><g class="participant participant-head" data-entity-uid="part1" data-qualified-name="ParticipantAApps" data-source-line="19" id="part1-head"><rect fill="#F5F5F5" height="30.2969" rx="2.5" ry="2.5" style="stroke:#181818;stroke-width:0.5;" width="142.6934" x="5" y="56.1328"/><text fill="#000000" font-family="sans-serif" font-size="14" lengthAdjust="spacing" textLength="128.6934" x="12" y="76.1279">Participant A Apps</text></g><g class="participant participant-tail" data-entity-uid="part1" data-qualified-name="ParticipantAApps" data-source-line="19" id="part1-tail"><rect fill="#F5F5F5" height="30.2969" rx="2.5" ry="2.5" style="stroke:#181818;stroke-width:0.5;" width="142.6934" x="5" y="381.625"/><text fill="#000000" font-family="sans-serif" font-size="14" lengthAdjust="spacing" textLength="128.6934" x="12" y="401.6201">Participant A Apps</text></g><g class="participant participant-head" data-entity-uid="part2" data-qualified-name="ParticipantADatabase" data-source-line="22" id="part2-head"><text fill="#000000" font-family="sans-serif" font-size="14" lengthAdjust="spacing" textLength="66.8008" x="167.6934" y="84.1279">Database</text><path d="M186.0938,35.1328 C186.0938,25.1328 204.0938,25.1328 204.0938,25.1328 C204.0938,25.1328 222.0938,25.1328 222.0938,35.1328 L222.0938,61.1328 C222.0938,71.1328 204.0938,71.1328 204.0938,71.1328 C204.0938,71.1328 186.0938,71.1328 186.0938,61.1328 L186.0938,35.1328" fill="#E2E2F0" style="stroke:#181818;stroke-width:0.5;"/><path d="M186.0938,35.1328 C186.0938,45.1328 204.0938,45.1328 204.0938,45.1328 C204.0938,45.1328 222.0938,45.1328 222.0938,35.1328" fill="none" style="stroke:#181818;stroke-width:0.5;"/></g><g class="participant participant-tail" data-entity-uid="part2" data-qualified-name="ParticipantADatabase" data-source-line="22" id="part2-tail"><text fill="#000000" font-family="sans-serif" font-size="14" lengthAdjust="spacing" textLength="66.8008" x="167.6934" y="394.6201">Database</text><path d="M186.0938,407.9219 C186.0938,397.9219 204.0938,397.9219 204.0938,397.9219 C204.0938,397.9219 222.0938,397.9219 222.0938,407.9219 L222.0938,433.9219 C222.0938,443.9219 204.0938,443.9219 204.0938,443.9219 C204.0938,443.9219 186.0938,443.9219 186.0938,433.9219 L186.0938,407.9219" fill="#E2E2F0" style="stroke:#181818;stroke-width:0.5;"/><path d="M186.0938,407.9219 C186.0938,417.9219 204.0938,417.9219 204.0938,417.9219 C204.0938,417.9219 222.0938,417.9219 222.0938,407.9219" fill="none" style="stroke:#181818;stroke-width:0.5;"/></g><g class="participant participant-head" data-entity-uid="part3" data-qualified-name="ParticipantAVault" data-source-line="23" id="part3-head"><text fill="#000000" font-family="sans-serif" font-size="14" lengthAdjust="spacing" textLength="36.4082" x="250.4941" y="84.1279">Vault</text><path d="M253.6982,35.1328 C253.6982,25.1328 271.6982,25.1328 271.6982,25.1328 C271.6982,25.1328 289.6982,25.1328 289.6982,35.1328 L289.6982,61.1328 C289.6982,71.1328 271.6982,71.1328 271.6982,71.1328 C271.6982,71.1328 253.6982,71.1328 253.6982,61.1328 L253.6982,35.1328" fill="#E2E2F0" style="stroke:#181818;stroke-width:0.5;"/><path d="M253.6982,35.1328 C253.6982,45.1328 271.6982,45.1328 271.6982,45.1328 C271.6982,45.1328 289.6982,45.1328 289.6982,35.1328" fill="none" style="stroke:#181818;stroke-width:0.5;"/></g><g class="participant participant-tail" data-entity-uid="part3" data-qualified-name="ParticipantAVault" data-source-line="23" id="part3-tail"><text fill="#000000" font-family="sans-serif" font-size="14" lengthAdjust="spacing" textLength="36.4082" x="250.4941" y="394.6201">Vault</text><path d="M253.6982,407.9219 C253.6982,397.9219 271.6982,397.9219 271.6982,397.9219 C271.6982,397.9219 289.6982,397.9219 289.6982,407.9219 L289.6982,433.9219 C289.6982,443.9219 271.6982,443.9219 271.6982,443.9219 C271.6982,443.9219 253.6982,443.9219 253.6982,433.9219 L253.6982,407.9219" fill="#E2E2F0" style="stroke:#181818;stroke-width:0.5;"/><path d="M253.6982,407.9219 C253.6982,417.9219 271.6982,417.9219 271.6982,417.9219 C271.6982,417.9219 289.6982,417.9219 289.6982,407.9219" fill="none" style="stroke:#181818;stroke-width:0.5;"/></g><g class="participant participant-head" data-entity-uid="part4" data-qualified-name="ParticipantAIdentityHub" data-source-line="24" id="part4-head"><rect fill="#FFFFCC" height="30.2969" rx="2.5" ry="2.5" style="stroke:#181818;stroke-width:0.5;" width="100.3926" x="302.9023" y="56.1328"/><text fill="#000000" font-family="sans-serif" font-size="14" lengthAdjust="spacing" textLength="86.3926" x="309.9023" y="76.1279">Identity Hub</text></g><g class="participant participant-tail" data-entity-uid="part4" data-qualified-name="ParticipantAIdentityHub" data-source-line="24" id="part4-tail"><rect fill="#FFFFCC" height="30.2969" rx="2.5" ry="2.5" style="stroke:#181818;stroke-width:0.5;" width="100.3926" x="302.9023" y="381.625"/><text fill="#000000" font-family="sans-serif" font-size="14" lengthAdjust="spacing" textLength="86.3926" x="309.9023" y="401.6201">Identity Hub</text></g><g class="participant participant-head" data-entity-uid="part5" data-qualified-name="ParticipantAControlPlane" data-source-line="25" id="part5-head"><rect fill="#FFFFCC" height="30.2969" rx="2.5" ry="2.5" style="stroke:#181818;stroke-width:0.5;" width="107.7617" x="413.2949" y="56.1328"/><text fill="#000000" font-family="sans-serif" font-size="14" lengthAdjust="spacing" textLength="93.7617" x="420.2949" y="76.1279">Control Plane</text></g><g class="participant participant-tail" data-entity-uid="part5" data-qualified-name="ParticipantAControlPlane" data-source-line="25" id="part5-tail"><rect fill="#FFFFCC" height="30.2969" rx="2.5" ry="2.5" style="stroke:#181818;stroke-width:0.5;" width="107.7617" x="413.2949" y="381.625"/><text fill="#000000" font-family="sans-serif" font-size="14" lengthAdjust="spacing" textLength="93.7617" x="420.2949" y="401.6201">Control Plane</text></g><g class="participant participant-head" data-entity-uid="part6" data-qualified-name="ParticipantADataPlane" data-source-line="26" id="part6-head"><rect fill="#FFFFCC" height="30.2969" rx="2.5" ry="2.5" style="stroke:#181818;stroke-width:0.5;" width="90.2754" x="531.0566" y="56.1328"/><text fill="#000000" font-family="sans-serif" font-size="14" lengthAdjust="spacing" textLength="76.2754" x="538.0566" y="76.1279">Data Plane</text></g><g class="participant participant-tail" data-entity-uid="part6" data-qualified-name="ParticipantADataPlane" data-source-line="26" id="part6-tail"><rect fill="#FFFFCC" height="30.2969" rx="2.5" ry="2.5" style="stroke:#181818;stroke-width:0.5;" width="90.2754" x="531.0566" y="381.625"/><text fill="#000000" font-family="sans-serif" font-size="14" lengthAdjust="spacing" textLength="76.2754" x="538.0566" y="401.6201">Data Plane</text></g><g class="participant participant-head" data-entity-uid="part7" data-qualified-name="ParticipantBDataPlane" data-source-line="30" id="part7-head"><rect fill="#FFFFCC" height="30.2969" rx="2.5" ry="2.5" style="stroke:#181818;stroke-width:0.5;" width="90.2754" x="656.2183" y="56.1328"/><text fill="#000000" font-family="sans-serif" font-size="14" lengthAdjust="spacing" textLength="76.2754" x="663.2183" y="76.1279">Data Plane</text></g><g class="participant participant-tail" data-entity-uid="part7" data-qualified-name="ParticipantBDataPlane" data-source-line="30" id="part7-tail"><rect fill="#FFFFCC" height="30.2969" rx="2.5" ry="2.5" style="stroke:#181818;stroke-width:0.5;" width="90.2754" x="656.2183" y="381.625"/><text fill="#000000" font-family="sans-serif" font-size="14" lengthAdjust="spacing" textLength="76.2754" x="663.2183" y="401.6201">Data Plane</text></g><g class="participant participant-head" data-entity-uid="part8" data-qualified-name="ParticipantBControlPlane" data-source-line="31" id="part8-head"><rect fill="#FFFFCC" height="30.2969" rx="2.5" ry="2.5" style="stroke:#181818;stroke-width:0.5;" width="107.7617" x="772.3872" y="56.1328"/><text fill="#000000" font-family="sans-serif" font-size="14" lengthAdjust="spacing" textLength="93.7617" x="779.3872" y="76.1279">Control Plane</text></g><g class="participant participant-tail" data-entity-uid="part8" data-qualified-name="ParticipantBControlPlane" data-source-line="31" id="part8-tail"><rect fill="#FFFFCC" height="30.2969" rx="2.5" ry="2.5" style="stroke:#181818;stroke-width:0.5;" width="107.7617" x="772.3872" y="381.625"/><text fill="#000000" font-family="sans-serif" font-size="14" lengthAdjust="spacing" textLength="93.7617" x="779.3872" y="401.6201">Control Plane</text></g><g class="participant participant-head" data-entity-uid="part9" data-qualified-name="ParticipantBIdentityHub" data-source-line="32" id="part9-head"><rect fill="#FFFFCC" height="30.2969" rx="2.5" ry="2.5" style="stroke:#181818;stroke-width:0.5;" width="100.3926" x="890.1489" y="56.1328"/><text fill="#000000" font-family="sans-serif" font-size="14" lengthAdjust="spacing" textLength="86.3926" x="897.1489" y="76.1279">Identity Hub</text></g><g class="participant participant-tail" data-entity-uid="part9" data-qualified-name="ParticipantBIdentityHub" data-source-line="32" id="part9-tail"><rect fill="#FFFFCC" height="30.2969" rx="2.5" ry="2.5" style="stroke:#181818;stroke-width:0.5;" width="100.3926" x="890.1489" y="381.625"/><text fill="#000000" font-family="sans-serif" font-size="14" lengthAdjust="spacing" textLength="86.3926" x="897.1489" y="401.6201">Identity Hub</text></g><g class="participant participant-head" data-entity-uid="part10" data-qualified-name="ParticipantBDatabase" data-source-line="33" id="part10-head"><text fill="#000000" font-family="sans-serif" font-size="14" lengthAdjust="spacing" textLength="66.8008" x="1000.5415" y="84.1279">Database</text><path d="M1018.9419,35.1328 C1018.9419,25.1328 1036.9419,25.1328 1036.9419,25.1328 C1036.9419,25.1328 1054.9419,25.1328 1054.9419,35.1328 L1054.9419,61.1328 C1054.9419,71.1328 1036.9419,71.1328 1036.9419,71.1328 C1036.9419,71.1328 1018.9419,71.1328 1018.9419,61.1328 L1018.9419,35.1328" fill="#E2E2F0" style="stroke:#181818;stroke-width:0.5;"/><path d="M1018.9419,35.1328 C1018.9419,45.1328 1036.9419,45.1328 1036.9419,45.1328 C1036.9419,45.1328 1054.9419,45.1328 1054.9419,35.1328" fill="none" style="stroke:#181818;stroke-width:0.5;"/></g><g class="participant participant-tail" data-entity-uid="part10" data-qualified-name="ParticipantBDatabase" data-source-line="33" id="part10-tail"><text fill="#000000" font-family="sans-serif" font-size="14" lengthAdjust="spacing" textLength="66.8008" x="1000.5415" y="394.6201">Database</text><path d="M1018.9419,407.9219 C1018.9419,397.9219 1036.9419,397.9219 1036.9419,397.9219 C1036.9419,397.9219 1054.9419,397.9219 1054.9419,407.9219 L1054.9419,433.9219 C1054.9419,443.9219 1036.9419,443.9219 1036.9419,443.9219 C1036.9419,443.9219 1018.9419,443.9219 1018.9419,433.9219 L1018.9419,407.9219" fill="#E2E2F0" style="stroke:#181818;stroke-width:0.5;"/><path d="M1018.9419,407.9219 C1018.9419,417.9219 1036.9419,417.9219 1036.9419,417.9219 C1036.9419,417.9219 1054.9419,417.9219 1054.9419,407.9219" fill="none" style="stroke:#181818;stroke-width:0.5;"/></g><g class="participant participant-head" data-entity-uid="part11" data-qualified-name="ParticipantBVault" data-source-line="34" id="part11-head"><text fill="#000000" font-family="sans-serif" font-size="14" lengthAdjust="spacing" textLength="36.4082" x="1083.3423" y="84.1279">Vault</text><path d="M1086.5464,35.1328 C1086.5464,25.1328 1104.5464,25.1328 1104.5464,25.1328 C1104.5464,25.1328 1122.5464,25.1328 1122.5464,35.1328 L1122.5464,61.1328 C1122.5464,71.1328 1104.5464,71.1328 1104.5464,71.1328 C1104.5464,71.1328 1086.5464,71.1328 1086.5464,61.1328 L1086.5464,35.1328" fill="#E2E2F0" style="stroke:#181818;stroke-width:0.5;"/><path d="M1086.5464,35.1328 C1086.5464,45.1328 1104.5464,45.1328 1104.5464,45.1328 C1104.5464,45.1328 1122.5464,45.1328 1122.5464,35.1328" fill="none" style="stroke:#181818;stroke-width:0.5;"/></g><g class="participant participant-tail" data-entity-uid="part11" data-qualified-name="ParticipantBVault" data-source-line="34" id="part11-tail"><text fill="#000000" font-family="sans-serif" font-size="14" lengthAdjust="spacing" textLength="36.4082" x="1083.3423" y="394.6201">Vault</text><path d="M1086.5464,407.9219 C1086.5464,397.9219 1104.5464,397.9219 1104.5464,397.9219 C1104.5464,397.9219 1122.5464,397.9219 1122.5464,407.9219 L1122.5464,433.9219 C1122.5464,443.9219 1104.5464,443.9219 1104.5464,443.9219 C1104.5464,443.9219 1086.5464,443.9219 1086.5464,433.9219 L1086.5464,407.9219" fill="#E2E2F0" style="stroke:#181818;stroke-width:0.5;"/><path d="M1086.5464,407.9219 C1086.5464,417.9219 1104.5464,417.9219 1104.5464,417.9219 C1104.5464,417.9219 1122.5464,417.9219 1122.5464,407.9219" fill="none" style="stroke:#181818;stroke-width:0.5;"/></g><g class="participant participant-head" data-entity-uid="part12" data-qualified-name="ParticipantBApi" data-source-line="37" id="part12-head"><rect fill="#F5F5F5" height="30.2969" rx="2.5" ry="2.5" style="stroke:#181818;stroke-width:0.5;" width="130.2246" x="1145.7505" y="56.1328"/><text fill="#000000" font-family="sans-serif" font-size="14" lengthAdjust="spacing" textLength="116.2246" x="1152.7505" y="76.1279">Participant B API</text></g><g class="participant participant-tail" data-entity-uid="part12" data-qualified-name="ParticipantBApi" data-source-line="37" id="part12-tail"><rect fill="#F5F5F5" height="30.2969" rx="2.5" ry="2.5" style="stroke:#181818;stroke-width:0.5;" width="130.2246" x="1145.7505" y="381.625"/><text fill="#000000" font-family="sans-serif" font-size="14" lengthAdjust="spacing" textLength="116.2246" x="1152.7505" y="401.6201">Participant B API</text></g><g><title>Participant A Apps</title><rect fill="#FFFFFF" height="255.0625" style="stroke:#181818;stroke-width:1;" width="10" x="71.3467" y="118.5625"/></g><g><title>Vault</title><rect fill="#FFFFFF" height="29.1328" style="stroke:#181818;stroke-width:1;" width="10" x="266.6982" y="147.6953"/></g><g><title>Data Plane</title><rect fill="#FFFFFF" height="255.0625" style="stroke:#181818;stroke-width:1;" width="10" x="571.1943" y="118.5625"/></g><g><title>Data Plane</title><rect fill="#FFFFFF" height="129.5313" style="stroke:#181818;stroke-width:1;" width="10" x="696.356" y="205.9609"/></g><g><title>Participant B API</title><rect fill="#FFFFFF" height="29.1328" style="stroke:#181818;stroke-width:1;" width="10" x="1205.8628" y="277.2266"/></g><g class="message" data-entity-1="part1" data-entity-2="part6" data-source-line="41" id="msg1"><line style="stroke:#181818;stroke-width:1;" x1="569.1943" x2="559.1943" y1="118.5625" y2="114.5625"/><line style="stroke:#181818;stroke-width:1;" x1="569.1943" x2="559.1943" y1="118.5625" y2="122.5625"/><line style="stroke:#181818;stroke-width:1;" x1="81.3467" x2="570.1943" y1="118.5625" y2="118.5625"/><text fill="#000000" font-family="sans-serif" font-size="13" font-weight="700" lengthAdjust="spacing" textLength="9.0454" x="88.3467" y="113.4966">1</text><text fill="#000000" font-family="sans-serif" font-size="13" lengthAdjust="spacing" textLength="298.708" x="101.3921" y="113.4966">data request (contains asset id or contract id)</text></g><g class="message" data-entity-1="part6" data-entity-2="part3" data-source-line="45" id="msg2"><line style="stroke:#181818;stroke-width:1;" x1="277.6982" x2="287.6982" y1="147.6953" y2="143.6953"/><line style="stroke:#181818;stroke-width:1;" x1="277.6982" x2="287.6982" y1="147.6953" y2="151.6953"/><line style="stroke:#181818;stroke-width:1;" x1="276.6982" x2="570.1943" y1="147.6953" y2="147.6953"/><text fill="#000000" font-family="sans-serif" font-size="13" font-weight="700" lengthAdjust="spacing" textLength="9.0454" x="293.6982" y="142.6294">2</text><text fill="#000000" font-family="sans-serif" font-size="13" lengthAdjust="spacing" textLength="261.5298" x="306.7437" y="142.6294">query access token for asset/contract id</text></g><g class="message" data-entity-1="part3" data-entity-2="part6" data-source-line="47" id="msg3"><line style="stroke:#181818;stroke-width:1;" x1="569.1943" x2="559.1943" y1="176.8281" y2="172.8281"/><line style="stroke:#181818;stroke-width:1;" x1="569.1943" x2="559.1943" y1="176.8281" y2="180.8281"/><line style="stroke:#181818;stroke-width:1;stroke-dasharray:2,2;" x1="271.6982" x2="570.1943" y1="176.8281" y2="176.8281"/><text fill="#000000" font-family="sans-serif" font-size="13" font-weight="700" lengthAdjust="spacing" textLength="9.0454" x="278.6982" y="171.7622">3</text><text fill="#000000" font-family="sans-serif" font-size="13" lengthAdjust="spacing" textLength="84.7539" x="291.7437" y="171.7622">access token</text></g><g class="message" data-entity-1="part6" data-entity-2="part7" data-source-line="49" id="msg4"><line style="stroke:#181818;stroke-width:1;" x1="694.356" x2="684.356" y1="205.9609" y2="201.9609"/><line style="stroke:#181818;stroke-width:1;" x1="694.356" x2="684.356" y1="205.9609" y2="209.9609"/><line style="stroke:#181818;stroke-width:1;" x1="581.1943" x2="695.356" y1="205.9609" y2="205.9609"/><text fill="#000000" font-family="sans-serif" font-size="13" font-weight="700" lengthAdjust="spacing" textLength="9.0454" x="588.1943" y="200.895">4</text><text fill="#000000" font-family="sans-serif" font-size="13" lengthAdjust="spacing" textLength="83.1162" x="601.2397" y="200.895">data request</text></g><g class="message" data-entity-1="part7" data-entity-2="part7" data-source-line="51" id="msg5"><line style="stroke:#181818;stroke-width:1;" x1="706.356" x2="748.356" y1="235.0938" y2="235.0938"/><line style="stroke:#181818;stroke-width:1;" x1="748.356" x2="748.356" y1="235.0938" y2="248.0938"/><line style="stroke:#181818;stroke-width:1;" x1="706.356" x2="748.356" y1="248.0938" y2="248.0938"/><line style="stroke:#181818;stroke-width:1;" x1="707.356" x2="717.356" y1="248.0938" y2="244.0938"/><line style="stroke:#181818;stroke-width:1;" x1="707.356" x2="717.356" y1="248.0938" y2="252.0938"/><text fill="#000000" font-family="sans-serif" font-size="13" font-weight="700" lengthAdjust="spacing" textLength="9.0454" x="713.356" y="230.0278">5</text><text fill="#000000" font-family="sans-serif" font-size="13" lengthAdjust="spacing" textLength="77.8667" x="726.4014" y="230.0278">verify token</text></g><g class="message" data-entity-1="part7" data-entity-2="part12" data-source-line="52" id="msg6"><line style="stroke:#181818;stroke-width:1;" x1="1203.8628" x2="1193.8628" y1="277.2266" y2="273.2266"/><line style="stroke:#181818;stroke-width:1;" x1="1203.8628" x2="1193.8628" y1="277.2266" y2="281.2266"/><line style="stroke:#181818;stroke-width:1;" x1="706.356" x2="1204.8628" y1="277.2266" y2="277.2266"/><text fill="#000000" font-family="sans-serif" font-size="13" font-weight="700" lengthAdjust="spacing" textLength="9.0454" x="713.356" y="272.1606">6</text><text fill="#000000" font-family="sans-serif" font-size="13" lengthAdjust="spacing" textLength="66.4727" x="726.4014" y="272.1606">fetch data</text></g><g class="message" data-entity-1="part12" data-entity-2="part7" data-source-line="54" id="msg7"><line style="stroke:#181818;stroke-width:1;" x1="707.356" x2="717.356" y1="306.3594" y2="302.3594"/><line style="stroke:#181818;stroke-width:1;" x1="707.356" x2="717.356" y1="306.3594" y2="310.3594"/><line style="stroke:#181818;stroke-width:1;stroke-dasharray:2,2;" x1="706.356" x2="1209.8628" y1="306.3594" y2="306.3594"/><text fill="#000000" font-family="sans-serif" font-size="13" font-weight="700" lengthAdjust="spacing" textLength="9.0454" x="723.356" y="301.2935">7</text><text fill="#000000" font-family="sans-serif" font-size="13" lengthAdjust="spacing" textLength="29.2817" x="736.4014" y="301.2935">data</text></g><g class="message" data-entity-1="part7" data-entity-2="part6" data-source-line="56" id="msg8"><polygon fill="#181818" points="592.1943,331.4922,582.1943,335.4922,592.1943,339.4922,588.1943,335.4922" style="stroke:#181818;stroke-width:1;"/><line style="stroke:#181818;stroke-width:1;stroke-dasharray:2,2;" x1="586.1943" x2="700.356" y1="335.4922" y2="335.4922"/><text fill="#000000" font-family="sans-serif" font-size="13" font-weight="700" lengthAdjust="spacing" textLength="9.0454" x="598.1943" y="330.4263">8</text><text fill="#000000" font-family="sans-serif" font-size="13" lengthAdjust="spacing" textLength="29.2817" x="611.2397" y="330.4263">data</text></g><g class="message" data-entity-1="part6" data-entity-2="part1" data-source-line="58" id="msg9"><line style="stroke:#181818;stroke-width:1;" x1="82.3467" x2="92.3467" y1="364.625" y2="360.625"/><line style="stroke:#181818;stroke-width:1;" x1="82.3467" x2="92.3467" y1="364.625" y2="368.625"/><line style="stroke:#181818;stroke-width:1;stroke-dasharray:2,2;" x1="81.3467" x2="570.1943" y1="364.625" y2="364.625"/><text fill="#000000" font-family="sans-serif" font-size="13" font-weight="700" lengthAdjust="spacing" textLength="9.0454" x="98.3467" y="359.5591">9</text><text fill="#000000" font-family="sans-serif" font-size="13" lengthAdjust="spacing" textLength="29.2817" x="111.3921" y="359.5591">data</text></g><?plantuml-src hLN1Zjem4BtxAwRqqXxGxdQrKfS3KWn5HQegfArspyQUW4MmKzlPRlw-JWmXa9XcfNA0UERvpPldSR0xgLRCi3tyr0ufuxkDqOKICvrf0ozRwV1fhtT8x1bmePKB49hvFQsi_tQIovmfDuWjuKwROSWDHZWx86q4cW1usfKqAm8aho5souJ-8zK6KfRPTeRgjnKJeahTtHBoGM0g5RPRIW9f-ZNzagPz01e0uX552_0yMrfReB4XEtzOF7oxRx9pvfZD6SUaS5jjf2i3R35RtCyM3Uo56UMb7Mmlh8zPssH_83jOyWlvLlcdJKa8AvnMnNwDXf3yfFAifIJFBJ0BerOG4gZ28qBM-kqoWrpRqZhSZ-1Znni2_YDyHsjcpwsR7uDLhUDY5CS_io9pDRX-2iXO4qlXpzqxzxrOrrkEQ_01BxEnwnh7p0-rqTagOog8F0IWZWnbgJexKLIhxdvK0honFUxIcBlqv6waCXrI-Th-_z8_VSz9z9qxVUUSqCwSDEx692Qvx0myXMIr7BLl3DmHqhadu-aqSjgJMXqO_5sWTV29U_EOLDNLikX02l1timeQnglbP-9_vIjpsBcD_PccrBciau9BRS6O2NX1fWJ6kRSTd7-fAaYzbbhNJKjHVzcQXNHvnzUiQ1SZ0WSIHrkXCPjx9P_Gf9_Z6lih6fcM1-N3jbVZD84K7T_Mulf5UHIvt3N-LvyHxpfaBN7ZwmCQO-prB3dZdNR_DWBdNm00?></g></svg>