<svg xmlns="http://www.w3.org/2000/svg" xmlns:xlink="http://www.w3.org/1999/xlink" contentStyleType="text/css" data-diagram-type="SEQUENCE" height="859px" preserveAspectRatio="none" style="width:1311px;height:859px;background:#FFFFFF;" version="1.1" viewBox="0 0 1311 859" width="1311px" zoomAndPan="magnify"><?plantuml 1.2026.3beta6?><defs/><g><rect fill="#D5F5E3" height="846.6484" style="stroke:#181818;stroke-width:0.5;" width="124.6689" x="16" y="6"/><text fill="#000000" font-family="sans-serif" font-size="13" font-weight="700" lengthAdjust="spacing" textLength="76.6606" x="40.0042" y="18.0669">VC Issuers</text><rect fill="#F8F2FF" height="846.6484" style="stroke:#181818;stroke-width:0.5;" width="493.522" x="268.2676" y="6"/><text fill="#000000" font-family="sans-serif" font-size="13" font-weight="700" lengthAdjust="spacing" textLength="178.1851" x="425.936" y="18.0669">Participant A ecosystem</text><rect fill="#D9EDFF" height="846.6484" style="stroke:#181818;stroke-width:0.5;" width="510.4834" x="783.7896" y="6"/><text fill="#000000" font-family="sans-serif" font-size="13" font-weight="700" lengthAdjust="spacing" textLength="178.0327" x="950.0149" y="18.0669">Participant B ecosystem</text><g><title>DID Document</title><rect fill="#FFFFFF" height="29.1328" style="stroke:#181818;stroke-width:1;" width="10" x="73.3345" y="387.7578"/></g><g><title>Participant A</title><rect fill="#FFFFFF" height="71.2656" style="stroke:#181818;stroke-width:1;" width="10" x="199.4683" y="118.5625"/></g><g><title>Database</title><rect fill="#FFFFFF" height="38.1328" style="stroke:#181818;stroke-width:1;" width="10" x="303.668" y="726.2188"/></g><g><title>Vault</title><rect fill="#FFFFFF" height="9" style="stroke:#181818;stroke-width:1;" width="10" x="371.2725" y="755.3516"/></g><g><title>Identity Hub</title><rect fill="#FFFFFF" height="492.125" style="stroke:#181818;stroke-width:1;" width="10" x="452.6729" y="272.2266"/></g><g><title>Control Plane</title><rect fill="#FFFFFF" height="645.7891" style="stroke:#181818;stroke-width:1;" width="10" x="566.75" y="118.5625"/></g><g><title>Control Plane</title><rect fill="#FFFFFF" height="545.3906" style="stroke:#181818;stroke-width:1;" width="10" x="936.9458" y="218.9609"/></g><g><title>Database</title><rect fill="#FFFFFF" height="96.3984" style="stroke:#181818;stroke-width:1;" width="10" x="1196.4644" y="667.9531"/></g><rect fill="none" height="233.0625" style="stroke:#000000;stroke-width:1.5;" width="1079.3413" x="10" y="233.9609"/><g class="participant-lifeline" data-entity-uid="part1" data-qualified-name="VcIssuersDidDocument" data-source-line="20" id="part1-lifeline"><g><title>DID Document</title><rect fill="#000000" fill-opacity="0.00000" height="685.9219" width="8" x="74.3345" y="87.4297"/><line style="stroke:#181818;stroke-width:0.5;stroke-dasharray:5,5;" x1="78" x2="78" y1="87.4297" y2="773.3516"/></g></g><g class="participant-lifeline" data-entity-uid="part2" data-qualified-name="ParticipantA" data-source-line="23" id="part2-lifeline"><g><title>Participant A</title><rect fill="#000000" fill-opacity="0.00000" height="685.9219" width="8" x="200.4683" y="87.4297"/><line style="stroke:#181818;stroke-width:0.5;stroke-dasharray:5,5;" x1="203.6689" x2="203.6689" y1="87.4297" y2="773.3516"/></g></g><g class="participant-lifeline" data-entity-uid="part3" data-qualified-name="ParticipantADatabase" data-source-line="26" id="part3-lifeline"><g><title>Database</title><rect fill="#000000" fill-opacity="0.00000" height="685.9219" width="8" x="304.668" y="87.4297"/><line style="stroke:#181818;stroke-width:0.5;stroke-dasharray:5,5;" x1="308.2676" x2="308.2676" y1="87.4297" y2="773.3516"/></g></g><g class="participant-lifeline" data-entity-uid="part4" data-qualified-name="ParticipantAVault" data-source-line="27" id="part4-lifeline"><g><title>Vault</title><rect fill="#000000" fill-opacity="0.00000" height="685.9219" width="8" x="372.2725" y="87.4297"/><line style="stroke:#181818;stroke-width:0.5;stroke-dasharray:5,5;" x1="376.0684" x2="376.0684" y1="87.4297" y2="773.3516"/></g></g><g class="participant-lifeline" data-entity-uid="part5" data-qualified-name="ParticipantAIdentityHub" data-source-line="28" id="part5-lifeline"><g><title>Identity Hub</title><rect fill="#000000" fill-opacity="0.00000" height="685.9219" width="8" x="453.6729" y="87.4297"/><line style="stroke:#181818;stroke-width:0.5;stroke-dasharray:5,5;" x1="457.4766" x2="457.4766" y1="87.4297" y2="773.3516"/></g></g><g class="participant-lifeline" data-entity-uid="part6" data-qualified-name="ParticipantAControlPlane" data-source-line="29" id="part6-lifeline"><g><title>Control Plane</title><rect fill="#000000" fill-opacity="0.00000" height="685.9219" width="8" x="567.75" y="87.4297"/><line style="stroke:#181818;stroke-width:0.5;stroke-dasharray:5,5;" x1="570.8691" x2="570.8691" y1="87.4297" y2="773.3516"/></g></g><g class="participant-lifeline" data-entity-uid="part7" data-qualified-name="ParticipantADataPlane" data-source-line="30" id="part7-lifeline"><g><title>Data Plane</title><rect fill="#000000" fill-opacity="0.00000" height="685.9219" width="8" x="708.6519" y="87.4297"/><line style="stroke:#181818;stroke-width:0.5;stroke-dasharray:5,5;" x1="712.5142" x2="712.5142" y1="87.4297" y2="773.3516"/></g></g><g class="participant-lifeline" data-entity-uid="part8" data-qualified-name="ParticipantBDataPlane" data-source-line="34" id="part8-lifeline"><g><title>Data Plane</title><rect fill="#000000" fill-opacity="0.00000" height="685.9219" width="8" x="828.9272" y="87.4297"/><line style="stroke:#181818;stroke-width:0.5;stroke-dasharray:5,5;" x1="832.7896" x2="832.7896" y1="87.4297" y2="773.3516"/></g></g><g class="participant-lifeline" data-entity-uid="part9" data-qualified-name="ParticipantBControlPlane" data-source-line="35" id="part9-lifeline"><g><title>Control Plane</title><rect fill="#000000" fill-opacity="0.00000" height="685.9219" width="8" x="937.9458" y="87.4297"/><line style="stroke:#181818;stroke-width:0.5;stroke-dasharray:5,5;" x1="941.0649" x2="941.0649" y1="87.4297" y2="773.3516"/></g></g><g class="participant-lifeline" data-entity-uid="part10" data-qualified-name="ParticipantBIdentityHub" data-source-line="36" id="part10-lifeline"><g><title>Identity Hub</title><rect fill="#000000" fill-opacity="0.00000" height="685.9219" width="8" x="1100.8677" y="87.4297"/><line style="stroke:#181818;stroke-width:0.5;stroke-dasharray:5,5;" x1="1104.6714" x2="1104.6714" y1="87.4297" y2="773.3516"/></g></g><g class="participant-lifeline" data-entity-uid="part11" data-qualified-name="ParticipantBDatabase" data-source-line="37" id="part11-lifeline"><g><title>Database</title><rect fill="#000000" fill-opacity="0.00000" height="685.9219" width="8" x="1197.4644" y="87.4297"/><line style="stroke:#181818;stroke-width:0.5;stroke-dasharray:5,5;" x1="1201.064" x2="1201.064" y1="87.4297" y2="773.3516"/></g></g><g class="participant-lifeline" data-entity-uid="part12" data-qualified-name="ParticipantBVault" data-source-line="38" id="part12-lifeline"><g><title>Vault</title><rect fill="#000000" fill-opacity="0.00000" height="685.9219" width="8" x="1265.0688" y="87.4297"/><line style="stroke:#181818;stroke-width:0.5;stroke-dasharray:5,5;" x1="1268.8647" x2="1268.8647" y1="87.4297" y2="773.3516"/></g></g><g class="participant participant-head" data-entity-uid="part1" data-qualified-name="VcIssuersDidDocument" data-source-line="20" id="part1-head"><rect fill="#F5F5F5" height="30.2969" rx="2.5" ry="2.5" style="stroke:#181818;stroke-width:0.5;" width="116.6689" x="20" y="56.1328"/><text fill="#000000" font-family="sans-serif" font-size="14" lengthAdjust="spacing" textLength="102.6689" x="27" y="76.1279">DID Document</text></g><g class="participant participant-tail" data-entity-uid="part1" data-qualified-name="VcIssuersDidDocument" data-source-line="20" id="part1-tail"><rect fill="#F5F5F5" height="30.2969" rx="2.5" ry="2.5" style="stroke:#181818;stroke-width:0.5;" width="116.6689" x="20" y="772.3516"/><text fill="#000000" font-family="sans-serif" font-size="14" lengthAdjust="spacing" textLength="102.6689" x="27" y="792.3467">DID Document</text></g><g class="participant participant-head" data-entity-uid="part2" data-qualified-name="ParticipantA" data-source-line="23" id="part2-head"><text fill="#000000" font-family="sans-serif" font-size="14" lengthAdjust="spacing" textLength="89.5986" x="156.6689" y="84.1279">Participant A</text><ellipse cx="204.4683" cy="19.6328" fill="#F5F5F5" rx="8" ry="8" style="stroke:#181818;stroke-width:0.5;"/><path d="M204.4683,27.6328 L204.4683,54.6328 M191.4683,35.6328 L217.4683,35.6328 M204.4683,54.6328 L191.4683,69.6328 M204.4683,54.6328 L217.4683,69.6328" fill="none" style="stroke:#181818;stroke-width:0.5;"/></g><g class="participant participant-tail" data-entity-uid="part2" data-qualified-name="ParticipantA" data-source-line="23" id="part2-tail"><text fill="#000000" font-family="sans-serif" font-size="14" lengthAdjust="spacing" textLength="89.5986" x="156.6689" y="785.3467">Participant A</text><ellipse cx="204.4683" cy="797.1484" fill="#F5F5F5" rx="8" ry="8" style="stroke:#181818;stroke-width:0.5;"/><path d="M204.4683,805.1484 L204.4683,832.1484 M191.4683,813.1484 L217.4683,813.1484 M204.4683,832.1484 L191.4683,847.1484 M204.4683,832.1484 L217.4683,847.1484" fill="none" style="stroke:#181818;stroke-width:0.5;"/></g><g class="participant participant-head" data-entity-uid="part3" data-qualified-name="ParticipantADatabase" data-source-line="26" id="part3-head"><text fill="#000000" font-family="sans-serif" font-size="14" lengthAdjust="spacing" textLength="66.8008" x="272.2676" y="84.1279">Database</text><path d="M290.668,35.1328 C290.668,25.1328 308.668,25.1328 308.668,25.1328 C308.668,25.1328 326.668,25.1328 326.668,35.1328 L326.668,61.1328 C326.668,71.1328 308.668,71.1328 308.668,71.1328 C308.668,71.1328 290.668,71.1328 290.668,61.1328 L290.668,35.1328" fill="#E2E2F0" style="stroke:#181818;stroke-width:0.5;"/><path d="M290.668,35.1328 C290.668,45.1328 308.668,45.1328 308.668,45.1328 C308.668,45.1328 326.668,45.1328 326.668,35.1328" fill="none" style="stroke:#181818;stroke-width:0.5;"/></g><g class="participant participant-tail" data-entity-uid="part3" data-qualified-name="ParticipantADatabase" data-source-line="26" id="part3-tail"><text fill="#000000" font-family="sans-serif" font-size="14" lengthAdjust="spacing" textLength="66.8008" x="272.2676" y="785.3467">Database</text><path d="M290.668,798.6484 C290.668,788.6484 308.668,788.6484 308.668,788.6484 C308.668,788.6484 326.668,788.6484 326.668,798.6484 L326.668,824.6484 C326.668,834.6484 308.668,834.6484 308.668,834.6484 C308.668,834.6484 290.668,834.6484 290.668,824.6484 L290.668,798.6484" fill="#E2E2F0" style="stroke:#181818;stroke-width:0.5;"/><path d="M290.668,798.6484 C290.668,808.6484 308.668,808.6484 308.668,808.6484 C308.668,808.6484 326.668,808.6484 326.668,798.6484" fill="none" style="stroke:#181818;stroke-width:0.5;"/></g><g class="participant participant-head" data-entity-uid="part4" data-qualified-name="ParticipantAVault" data-source-line="27" id="part4-head"><text fill="#000000" font-family="sans-serif" font-size="14" lengthAdjust="spacing" textLength="36.4082" x="355.0684" y="84.1279">Vault</text><path d="M358.2725,35.1328 C358.2725,25.1328 376.2725,25.1328 376.2725,25.1328 C376.2725,25.1328 394.2725,25.1328 394.2725,35.1328 L394.2725,61.1328 C394.2725,71.1328 376.2725,71.1328 376.2725,71.1328 C376.2725,71.1328 358.2725,71.1328 358.2725,61.1328 L358.2725,35.1328" fill="#E2E2F0" style="stroke:#181818;stroke-width:0.5;"/><path d="M358.2725,35.1328 C358.2725,45.1328 376.2725,45.1328 376.2725,45.1328 C376.2725,45.1328 394.2725,45.1328 394.2725,35.1328" fill="none" style="stroke:#181818;stroke-width:0.5;"/></g><g class="participant participant-tail" data-entity-uid="part4" data-qualified-name="ParticipantAVault" data-source-line="27" id="part4-tail"><text fill="#000000" font-family="sans-serif" font-size="14" lengthAdjust="spacing" textLength="36.4082" x="355.0684" y="785.3467">Vault</text><path d="M358.2725,798.6484 C358.2725,788.6484 376.2725,788.6484 376.2725,788.6484 C376.2725,788.6484 394.2725,788.6484 394.2725,798.6484 L394.2725,824.6484 C394.2725,834.6484 376.2725,834.6484 376.2725,834.6484 C376.2725,834.6484 358.2725,834.6484 358.2725,824.6484 L358.2725,798.6484" fill="#E2E2F0" style="stroke:#181818;stroke-width:0.5;"/><path d="M358.2725,798.6484 C358.2725,808.6484 376.2725,808.6484 376.2725,808.6484 C376.2725,808.6484 394.2725,808.6484 394.2725,798.6484" fill="none" style="stroke:#181818;stroke-width:0.5;"/></g><g class="participant participant-head" data-entity-uid="part5" data-qualified-name="ParticipantAIdentityHub" data-source-line="28" id="part5-head"><rect fill="#FFFFCC" height="30.2969" rx="2.5" ry="2.5" style="stroke:#181818;stroke-width:0.5;" width="100.3926" x="407.4766" y="56.1328"/><text fill="#000000" font-family="sans-serif" font-size="14" lengthAdjust="spacing" textLength="86.3926" x="414.4766" y="76.1279">Identity Hub</text></g><g class="participant participant-tail" data-entity-uid="part5" data-qualified-name="ParticipantAIdentityHub" data-source-line="28" id="part5-tail"><rect fill="#FFFFCC" height="30.2969" rx="2.5" ry="2.5" style="stroke:#181818;stroke-width:0.5;" width="100.3926" x="407.4766" y="772.3516"/><text fill="#000000" font-family="sans-serif" font-size="14" lengthAdjust="spacing" textLength="86.3926" x="414.4766" y="792.3467">Identity Hub</text></g><g class="participant participant-head" data-entity-uid="part6" data-qualified-name="ParticipantAControlPlane" data-source-line="29" id="part6-head"><rect fill="#FFFFCC" height="30.2969" rx="2.5" ry="2.5" style="stroke:#181818;stroke-width:0.5;" width="107.7617" x="517.8691" y="56.1328"/><text fill="#000000" font-family="sans-serif" font-size="14" lengthAdjust="spacing" textLength="93.7617" x="524.8691" y="76.1279">Control Plane</text></g><g class="participant participant-tail" data-entity-uid="part6" data-qualified-name="ParticipantAControlPlane" data-source-line="29" id="part6-tail"><rect fill="#FFFFCC" height="30.2969" rx="2.5" ry="2.5" style="stroke:#181818;stroke-width:0.5;" width="107.7617" x="517.8691" y="772.3516"/><text fill="#000000" font-family="sans-serif" font-size="14" lengthAdjust="spacing" textLength="93.7617" x="524.8691" y="792.3467">Control Plane</text></g><g class="participant participant-head" data-entity-uid="part7" data-qualified-name="ParticipantADataPlane" data-source-line="30" id="part7-head"><rect fill="#FFFFCC" height="30.2969" rx="2.5" ry="2.5" style="stroke:#181818;stroke-width:0.5;" width="90.2754" x="667.5142" y="56.1328"/><text fill="#000000" font-family="sans-serif" font-size="14" lengthAdjust="spacing" textLength="76.2754" x="674.5142" y="76.1279">Data Plane</text></g><g class="participant participant-tail" data-entity-uid="part7" data-qualified-name="ParticipantADataPlane" data-source-line="30" id="part7-tail"><rect fill="#FFFFCC" height="30.2969" rx="2.5" ry="2.5" style="stroke:#181818;stroke-width:0.5;" width="90.2754" x="667.5142" y="772.3516"/><text fill="#000000" font-family="sans-serif" font-size="14" lengthAdjust="spacing" textLength="76.2754" x="674.5142" y="792.3467">Data Plane</text></g><g class="participant participant-head" data-entity-uid="part8" data-qualified-name="ParticipantBDataPlane" data-source-line="34" id="part8-head"><rect fill="#FFFFCC" height="30.2969" rx="2.5" ry="2.5" style="stroke:#181818;stroke-width:0.5;" width="90.2754" x="787.7896" y="56.1328"/><text fill="#000000" font-family="sans-serif" font-size="14" lengthAdjust="spacing" textLength="76.2754" x="794.7896" y="76.1279">Data Plane</text></g><g class="participant participant-tail" data-entity-uid="part8" data-qualified-name="ParticipantBDataPlane" data-source-line="34" id="part8-tail"><rect fill="#FFFFCC" height="30.2969" rx="2.5" ry="2.5" style="stroke:#181818;stroke-width:0.5;" width="90.2754" x="787.7896" y="772.3516"/><text fill="#000000" font-family="sans-serif" font-size="14" lengthAdjust="spacing" textLength="76.2754" x="794.7896" y="792.3467">Data Plane</text></g><g class="participant participant-head" data-entity-uid="part9" data-qualified-name="ParticipantBControlPlane" data-source-line="35" id="part9-head"><rect fill="#FFFFCC" height="30.2969" rx="2.5" ry="2.5" style="stroke:#181818;stroke-width:0.5;" width="107.7617" x="888.0649" y="56.1328"/><text fill="#000000" font-family="sans-serif" font-size="14" lengthAdjust="spacing" textLength="93.7617" x="895.0649" y="76.1279">Control Plane</text></g><g class="participant participant-tail" data-entity-uid="part9" data-qualified-name="ParticipantBControlPlane" data-source-line="35" id="part9-tail"><rect fill="#FFFFCC" height="30.2969" rx="2.5" ry="2.5" style="stroke:#181818;stroke-width:0.5;" width="107.7617" x="888.0649" y="772.3516"/><text fill="#000000" font-family="sans-serif" font-size="14" lengthAdjust="spacing" textLength="93.7617" x="895.0649" y="792.3467">Control Plane</text></g><g class="participant participant-head" data-entity-uid="part10" data-qualified-name="ParticipantBIdentityHub" data-source-line="36" id="part10-head"><rect fill="#FFFFCC" height="30.2969" rx="2.5" ry="2.5" style="stroke:#181818;stroke-width:0.5;" width="100.3926" x="1054.6714" y="56.1328"/><text fill="#000000" font-family="sans-serif" font-size="14" lengthAdjust="spacing" textLength="86.3926" x="1061.6714" y="76.1279">Identity Hub</text></g><g class="participant participant-tail" data-entity-uid="part10" data-qualified-name="ParticipantBIdentityHub" data-source-line="36" id="part10-tail"><rect fill="#FFFFCC" height="30.2969" rx="2.5" ry="2.5" style="stroke:#181818;stroke-width:0.5;" width="100.3926" x="1054.6714" y="772.3516"/><text fill="#000000" font-family="sans-serif" font-size="14" lengthAdjust="spacing" textLength="86.3926" x="1061.6714" y="792.3467">Identity Hub</text></g><g class="participant participant-head" data-entity-uid="part11" data-qualified-name="ParticipantBDatabase" data-source-line="37" id="part11-head"><text fill="#000000" font-family="sans-serif" font-size="14" lengthAdjust="spacing" textLength="66.8008" x="1165.064" y="84.1279">Database</text><path d="M1183.4644,35.1328 C1183.4644,25.1328 1201.4644,25.1328 1201.4644,25.1328 C1201.4644,25.1328 1219.4644,25.1328 1219.4644,35.1328 L1219.4644,61.1328 C1219.4644,71.1328 1201.4644,71.1328 1201.4644,71.1328 C1201.4644,71.1328 1183.4644,71.1328 1183.4644,61.1328 L1183.4644,35.1328" fill="#E2E2F0" style="stroke:#181818;stroke-width:0.5;"/><path d="M1183.4644,35.1328 C1183.4644,45.1328 1201.4644,45.1328 1201.4644,45.1328 C1201.4644,45.1328 1219.4644,45.1328 1219.4644,35.1328" fill="none" style="stroke:#181818;stroke-width:0.5;"/></g><g class="participant participant-tail" data-entity-uid="part11" data-qualified-name="ParticipantBDatabase" data-source-line="37" id="part11-tail"><text fill="#000000" font-family="sans-serif" font-size="14" lengthAdjust="spacing" textLength="66.8008" x="1165.064" y="785.3467">Database</text><path d="M1183.4644,798.6484 C1183.4644,788.6484 1201.4644,788.6484 1201.4644,788.6484 C1201.4644,788.6484 1219.4644,788.6484 1219.4644,798.6484 L1219.4644,824.6484 C1219.4644,834.6484 1201.4644,834.6484 1201.4644,834.6484 C1201.4644,834.6484 1183.4644,834.6484 1183.4644,824.6484 L1183.4644,798.6484" fill="#E2E2F0" style="stroke:#181818;stroke-width:0.5;"/><path d="M1183.4644,798.6484 C1183.4644,808.6484 1201.4644,808.6484 1201.4644,808.6484 C1201.4644,808.6484 1219.4644,808.6484 1219.4644,798.6484" fill="none" style="stroke:#181818;stroke-width:0.5;"/></g><g class="participant participant-head" data-entity-uid="part12" data-qualified-name="ParticipantBVault" data-source-line="38" id="part12-head"><text fill="#000000" font-family="sans-serif" font-size="14" lengthAdjust="spacing" textLength="36.4082" x="1247.8647" y="84.1279">Vault</text><path d="M1251.0688,35.1328 C1251.0688,25.1328 1269.0688,25.1328 1269.0688,25.1328 C1269.0688,25.1328 1287.0688,25.1328 1287.0688,35.1328 L1287.0688,61.1328 C1287.0688,71.1328 1269.0688,71.1328 1269.0688,71.1328 C1269.0688,71.1328 1251.0688,71.1328 1251.0688,61.1328 L1251.0688,35.1328" fill="#E2E2F0" style="stroke:#181818;stroke-width:0.5;"/><path d="M1251.0688,35.1328 C1251.0688,45.1328 1269.0688,45.1328 1269.0688,45.1328 C1269.0688,45.1328 1287.0688,45.1328 1287.0688,35.1328" fill="none" style="stroke:#181818;stroke-width:0.5;"/></g><g class="participant participant-tail" data-entity-uid="part12" data-qualified-name="ParticipantBVault" data-source-line="38" id="part12-tail"><text fill="#000000" font-family="sans-serif" font-size="14" lengthAdjust="spacing" textLength="36.4082" x="1247.8647" y="785.3467">Vault</text><path d="M1251.0688,798.6484 C1251.0688,788.6484 1269.0688,788.6484 1269.0688,788.6484 C1269.0688,788.6484 1287.0688,788.6484 1287.0688,798.6484 L1287.0688,824.6484 C1287.0688,834.6484 1269.0688,834.6484 1269.0688,834.6484 C1269.0688,834.6484 1251.0688,834.6484 1251.0688,824.6484 L1251.0688,798.6484" fill="#E2E2F0" style="stroke:#181818;stroke-width:0.5;"/><path d="M1251.0688,798.6484 C1251.0688,808.6484 1269.0688,808.6484 1269.0688,808.6484 C1269.0688,808.6484 1287.0688,808.6484 1287.0688,798.6484" fill="none" style="stroke:#181818;stroke-width:0.5;"/></g><g><title>DID Document</title><rect fill="#FFFFFF" height="29.1328" style="stroke:#181818;stroke-width:1;" width="10" x="73.3345" y="387.7578"/></g><g><title>Participant A</title><rect fill="#FFFFFF" height="71.2656" style="stroke:#181818;stroke-width:1;" width="10" x="199.4683" y="118.5625"/></g><g><title>Database</title><rect fill="#FFFFFF" height="38.1328" style="stroke:#181818;stroke-width:1;" width="10" x="303.668" y="726.2188"/></g><g><title>Vault</title><rect fill="#FFFFFF" height="9" style="stroke:#181818;stroke-width:1;" width="10" x="371.2725" y="755.3516"/></g><g><title>Identity Hub</title><rect fill="#FFFFFF" height="492.125" style="stroke:#181818;stroke-width:1;" width="10" x="452.6729" y="272.2266"/></g><g><title>Control Plane</title><rect fill="#FFFFFF" height="645.7891" style="stroke:#181818;stroke-width:1;" width="10" x="566.75" y="118.5625"/></g><g><title>Control Plane</title><rect fill="#FFFFFF" height="545.3906" style="stroke:#181818;stroke-width:1;" width="10" x="936.9458" y="218.9609"/></g><g><title>Database</title><rect fill="#FFFFFF" height="96.3984" style="stroke:#181818;stroke-width:1;" width="10" x="1196.4644" y="667.9531"/></g><g class="message" data-entity-1="part2" data-entity-2="part6" data-source-line="43" id="msg1"><line style="stroke:#181818;stroke-width:1;" x1="564.75" x2="554.75" y1="118.5625" y2="114.5625"/><line style="stroke:#181818;stroke-width:1;" x1="564.75" x2="554.75" y1="118.5625" y2="122.5625"/><line style="stroke:#181818;stroke-width:1;" x1="209.4683" x2="565.75" y1="118.5625" y2="118.5625"/><text fill="#000000" font-family="sans-serif" font-size="13" font-weight="700" lengthAdjust="spacing" textLength="9.0454" x="216.4683" y="113.4966">1</text><text fill="#000000" font-family="sans-serif" font-size="13" lengthAdjust="spacing" textLength="100.7056" x="229.5137" y="113.4966">initiate transfer</text></g><g class="message" data-entity-1="part6" data-entity-2="part6" data-source-line="47" id="msg2"><line style="stroke:#181818;stroke-width:1;" x1="576.75" x2="618.75" y1="147.6953" y2="147.6953"/><line style="stroke:#181818;stroke-width:1;" x1="618.75" x2="618.75" y1="147.6953" y2="160.6953"/><line style="stroke:#181818;stroke-width:1;" x1="576.75" x2="618.75" y1="160.6953" y2="160.6953"/><line style="stroke:#181818;stroke-width:1;" x1="577.75" x2="587.75" y1="160.6953" y2="156.6953"/><line style="stroke:#181818;stroke-width:1;" x1="577.75" x2="587.75" y1="160.6953" y2="164.6953"/><text fill="#000000" font-family="sans-serif" font-size="13" font-weight="700" lengthAdjust="spacing" textLength="9.0454" x="583.75" y="142.6294">2</text><text fill="#000000" font-family="sans-serif" font-size="13" lengthAdjust="spacing" textLength="93.8564" x="596.7954" y="142.6294">validate query</text></g><g class="message" data-entity-1="part6" data-entity-2="part2" data-source-line="48" id="msg3"><polygon fill="#181818" points="215.4683,185.8281,205.4683,189.8281,215.4683,193.8281,211.4683,189.8281" style="stroke:#181818;stroke-width:1;"/><line style="stroke:#181818;stroke-width:1;stroke-dasharray:2,2;" x1="209.4683" x2="565.75" y1="189.8281" y2="189.8281"/><text fill="#000000" font-family="sans-serif" font-size="13" font-weight="700" lengthAdjust="spacing" textLength="9.0454" x="221.4683" y="184.7622">3</text><text fill="#000000" font-family="sans-serif" font-size="13" lengthAdjust="spacing" textLength="85.5791" x="234.5137" y="184.7622">acknowledge</text></g><g class="message" data-entity-1="part6" data-entity-2="part9" data-source-line="50" id="msg4"><line style="stroke:#181818;stroke-width:1;" x1="934.9458" x2="924.9458" y1="218.9609" y2="214.9609"/><line style="stroke:#181818;stroke-width:1;" x1="934.9458" x2="924.9458" y1="218.9609" y2="222.9609"/><line style="stroke:#181818;stroke-width:1;" x1="576.75" x2="935.9458" y1="218.9609" y2="218.9609"/><text fill="#000000" font-family="sans-serif" font-size="13" font-weight="700" lengthAdjust="spacing" textLength="9.0454" x="583.75" y="213.895">4</text><text fill="#000000" font-family="sans-serif" font-size="13" lengthAdjust="spacing" textLength="117.6919" x="596.7954" y="213.895">transfer init query</text></g><path d="M10,233.9609 L130.7402,233.9609 L130.7402,241.0938 L120.7402,251.0938 L10,251.0938 L10,233.9609" fill="#EEEEEE" style="stroke:#000000;stroke-width:1.5;"/><rect fill="none" height="233.0625" style="stroke:#000000;stroke-width:1.5;" width="1079.3413" x="10" y="233.9609"/><text fill="#000000" font-family="sans-serif" font-size="13" font-weight="700" lengthAdjust="spacing" textLength="75.7402" x="25" y="247.0278">Verify VCs</text><g class="message" data-entity-1="part9" data-entity-2="part5" data-source-line="54" id="msg5"><line style="stroke:#181818;stroke-width:1;" x1="463.6729" x2="473.6729" y1="272.2266" y2="268.2266"/><line style="stroke:#181818;stroke-width:1;" x1="463.6729" x2="473.6729" y1="272.2266" y2="276.2266"/><line style="stroke:#181818;stroke-width:1;" x1="462.6729" x2="935.9458" y1="272.2266" y2="272.2266"/><text fill="#000000" font-family="sans-serif" font-size="13" font-weight="700" lengthAdjust="spacing" textLength="9.0454" x="479.6729" y="267.1606">5</text><text fill="#000000" font-family="sans-serif" font-size="13" lengthAdjust="spacing" textLength="177.1567" x="492.7183" y="267.1606">fetch Verifiable Credentials</text></g><g class="message" data-entity-1="part5" data-entity-2="part9" data-source-line="56" id="msg6"><line style="stroke:#181818;stroke-width:1;" x1="934.9458" x2="924.9458" y1="301.3594" y2="297.3594"/><line style="stroke:#181818;stroke-width:1;" x1="934.9458" x2="924.9458" y1="301.3594" y2="305.3594"/><line style="stroke:#181818;stroke-width:1;stroke-dasharray:2,2;" x1="462.6729" x2="935.9458" y1="301.3594" y2="301.3594"/><text fill="#000000" font-family="sans-serif" font-size="13" font-weight="700" lengthAdjust="spacing" textLength="9.0454" x="469.6729" y="296.2935">6</text><text fill="#000000" font-family="sans-serif" font-size="13" lengthAdjust="spacing" textLength="109.0273" x="482.7183" y="296.2935">return list of VCs</text></g><g class="message" data-entity-1="part9" data-entity-2="part9" data-source-line="57" id="msg7"><line style="stroke:#181818;stroke-width:1;" x1="946.9458" x2="988.9458" y1="345.625" y2="345.625"/><line style="stroke:#181818;stroke-width:1;" x1="988.9458" x2="988.9458" y1="345.625" y2="358.625"/><line style="stroke:#181818;stroke-width:1;" x1="946.9458" x2="988.9458" y1="358.625" y2="358.625"/><line style="stroke:#181818;stroke-width:1;" x1="947.9458" x2="957.9458" y1="358.625" y2="354.625"/><line style="stroke:#181818;stroke-width:1;" x1="947.9458" x2="957.9458" y1="358.625" y2="362.625"/><text fill="#000000" font-family="sans-serif" font-size="13" font-weight="700" lengthAdjust="spacing" textLength="9.0454" x="953.9458" y="332.9927">7</text><text fill="#000000" font-family="sans-serif" font-size="13" lengthAdjust="spacing" textLength="97.0176" x="966.9912" y="325.4263">resolve issuers</text><text fill="#000000" font-family="sans-serif" font-size="13" lengthAdjust="spacing" textLength="100.3501" x="966.9912" y="340.5591">DID documents</text></g><g class="message" data-entity-1="part9" data-entity-2="part1" data-source-line="58" id="msg8"><line style="stroke:#181818;stroke-width:1;" x1="84.3345" x2="94.3345" y1="387.7578" y2="383.7578"/><line style="stroke:#181818;stroke-width:1;" x1="84.3345" x2="94.3345" y1="387.7578" y2="391.7578"/><line style="stroke:#181818;stroke-width:1;" x1="83.3345" x2="935.9458" y1="387.7578" y2="387.7578"/><text fill="#000000" font-family="sans-serif" font-size="13" font-weight="700" lengthAdjust="spacing" textLength="9.0454" x="100.3345" y="382.6919">8</text><text fill="#000000" font-family="sans-serif" font-size="13" lengthAdjust="spacing" textLength="142.0098" x="113.3799" y="382.6919">query DID documents</text></g><g class="message" data-entity-1="part1" data-entity-2="part9" data-source-line="60" id="msg9"><line style="stroke:#181818;stroke-width:1;" x1="934.9458" x2="924.9458" y1="416.8906" y2="412.8906"/><line style="stroke:#181818;stroke-width:1;" x1="934.9458" x2="924.9458" y1="416.8906" y2="420.8906"/><line style="stroke:#181818;stroke-width:1;stroke-dasharray:2,2;" x1="78.3345" x2="935.9458" y1="416.8906" y2="416.8906"/><text fill="#000000" font-family="sans-serif" font-size="13" font-weight="700" lengthAdjust="spacing" textLength="9.0454" x="85.3345" y="411.8247">9</text><text fill="#000000" font-family="sans-serif" font-size="13" lengthAdjust="spacing" textLength="326.2632" x="98.3799" y="411.8247">DID document containing VC verification methods</text></g><g class="message" data-entity-1="part9" data-entity-2="part9" data-source-line="62" id="msg10"><line style="stroke:#181818;stroke-width:1;" x1="946.9458" x2="988.9458" y1="446.0234" y2="446.0234"/><line style="stroke:#181818;stroke-width:1;" x1="988.9458" x2="988.9458" y1="446.0234" y2="459.0234"/><line style="stroke:#181818;stroke-width:1;" x1="946.9458" x2="988.9458" y1="459.0234" y2="459.0234"/><line style="stroke:#181818;stroke-width:1;" x1="947.9458" x2="957.9458" y1="459.0234" y2="455.0234"/><line style="stroke:#181818;stroke-width:1;" x1="947.9458" x2="957.9458" y1="459.0234" y2="463.0234"/><text fill="#000000" font-family="sans-serif" font-size="13" font-weight="700" lengthAdjust="spacing" textLength="18.0908" x="953.9458" y="440.9575">10</text><text fill="#000000" font-family="sans-serif" font-size="13" lengthAdjust="spacing" textLength="65.7935" x="976.0366" y="440.9575">verify VCs</text></g><g class="message" data-entity-1="part9" data-entity-2="part11" data-source-line="64" id="msg11"><line style="stroke:#181818;stroke-width:1;" x1="1199.4644" x2="1189.4644" y1="495.1563" y2="491.1563"/><line style="stroke:#181818;stroke-width:1;" x1="1199.4644" x2="1189.4644" y1="495.1563" y2="499.1563"/><line style="stroke:#181818;stroke-width:1;" x1="946.9458" x2="1200.4644" y1="495.1563" y2="495.1563"/><text fill="#000000" font-family="sans-serif" font-size="13" font-weight="700" lengthAdjust="spacing" textLength="18.0908" x="953.9458" y="490.0903">11</text><text fill="#000000" font-family="sans-serif" font-size="13" lengthAdjust="spacing" textLength="91.1841" x="976.0366" y="490.0903">fetch contract</text></g><g class="message" data-entity-1="part11" data-entity-2="part9" data-source-line="65" id="msg12"><polygon fill="#181818" points="957.9458,520.2891,947.9458,524.2891,957.9458,528.2891,953.9458,524.2891" style="stroke:#181818;stroke-width:1;"/><line style="stroke:#181818;stroke-width:1;stroke-dasharray:2,2;" x1="951.9458" x2="1200.4644" y1="524.2891" y2="524.2891"/><text fill="#000000" font-family="sans-serif" font-size="13" font-weight="700" lengthAdjust="spacing" textLength="18.0908" x="963.9458" y="519.2231">12</text><text fill="#000000" font-family="sans-serif" font-size="13" lengthAdjust="spacing" textLength="53.9932" x="986.0366" y="519.2231">contract</text></g><g class="message" data-entity-1="part9" data-entity-2="part9" data-source-line="66" id="msg13"><line style="stroke:#181818;stroke-width:1;" x1="946.9458" x2="988.9458" y1="568.5547" y2="568.5547"/><line style="stroke:#181818;stroke-width:1;" x1="988.9458" x2="988.9458" y1="568.5547" y2="581.5547"/><line style="stroke:#181818;stroke-width:1;" x1="946.9458" x2="988.9458" y1="581.5547" y2="581.5547"/><line style="stroke:#181818;stroke-width:1;" x1="947.9458" x2="957.9458" y1="581.5547" y2="577.5547"/><line style="stroke:#181818;stroke-width:1;" x1="947.9458" x2="957.9458" y1="581.5547" y2="585.5547"/><text fill="#000000" font-family="sans-serif" font-size="13" font-weight="700" lengthAdjust="spacing" textLength="18.0908" x="953.9458" y="555.9224">13</text><text fill="#000000" font-family="sans-serif" font-size="13" lengthAdjust="spacing" textLength="96.186" x="976.0366" y="548.356">check contract</text><text fill="#000000" font-family="sans-serif" font-size="13" lengthAdjust="spacing" textLength="73.5376" x="976.0366" y="563.4888">policy valid</text></g><g class="message" data-entity-1="part9" data-entity-2="part9" data-source-line="67" id="msg14"><line style="stroke:#181818;stroke-width:1;" x1="946.9458" x2="988.9458" y1="625.8203" y2="625.8203"/><line style="stroke:#181818;stroke-width:1;" x1="988.9458" x2="988.9458" y1="625.8203" y2="638.8203"/><line style="stroke:#181818;stroke-width:1;" x1="946.9458" x2="988.9458" y1="638.8203" y2="638.8203"/><line style="stroke:#181818;stroke-width:1;" x1="947.9458" x2="957.9458" y1="638.8203" y2="634.8203"/><line style="stroke:#181818;stroke-width:1;" x1="947.9458" x2="957.9458" y1="638.8203" y2="642.8203"/><text fill="#000000" font-family="sans-serif" font-size="13" font-weight="700" lengthAdjust="spacing" textLength="18.0908" x="953.9458" y="613.188">14</text><text fill="#000000" font-family="sans-serif" font-size="13" lengthAdjust="spacing" textLength="106.8311" x="976.0366" y="605.6216">generate access</text><text fill="#000000" font-family="sans-serif" font-size="13" lengthAdjust="spacing" textLength="36.8164" x="976.0366" y="620.7544">token</text></g><g class="message" data-entity-1="part9" data-entity-2="part11" data-source-line="69" id="msg15"><line style="stroke:#181818;stroke-width:1;" x1="1194.4644" x2="1184.4644" y1="667.9531" y2="663.9531"/><line style="stroke:#181818;stroke-width:1;" x1="1194.4644" x2="1184.4644" y1="667.9531" y2="671.9531"/><line style="stroke:#181818;stroke-width:1;" x1="946.9458" x2="1195.4644" y1="667.9531" y2="667.9531"/><text fill="#000000" font-family="sans-serif" font-size="13" font-weight="700" lengthAdjust="spacing" textLength="18.0908" x="953.9458" y="662.8872">15</text><text fill="#000000" font-family="sans-serif" font-size="13" lengthAdjust="spacing" textLength="143.0127" x="976.0366" y="662.8872">store transfer process</text></g><g class="message" data-entity-1="part9" data-entity-2="part6" data-source-line="71" id="msg16"><line style="stroke:#181818;stroke-width:1;" x1="577.75" x2="587.75" y1="697.0859" y2="693.0859"/><line style="stroke:#181818;stroke-width:1;" x1="577.75" x2="587.75" y1="697.0859" y2="701.0859"/><line style="stroke:#181818;stroke-width:1;" x1="576.75" x2="935.9458" y1="697.0859" y2="697.0859"/><text fill="#000000" font-family="sans-serif" font-size="13" font-weight="700" lengthAdjust="spacing" textLength="18.0908" x="593.75" y="692.02">16</text><text fill="#000000" font-family="sans-serif" font-size="13" lengthAdjust="spacing" textLength="238.2466" x="615.8408" y="692.02">send transfer process + acces token</text></g><g class="message" data-entity-1="part6" data-entity-2="part3" data-source-line="72" id="msg17"><line style="stroke:#181818;stroke-width:1;" x1="314.668" x2="324.668" y1="726.2188" y2="722.2188"/><line style="stroke:#181818;stroke-width:1;" x1="314.668" x2="324.668" y1="726.2188" y2="730.2188"/><line style="stroke:#181818;stroke-width:1;" x1="313.668" x2="565.75" y1="726.2188" y2="726.2188"/><text fill="#000000" font-family="sans-serif" font-size="13" font-weight="700" lengthAdjust="spacing" textLength="18.0908" x="330.668" y="721.1528">17</text><text fill="#000000" font-family="sans-serif" font-size="13" lengthAdjust="spacing" textLength="143.0127" x="352.7588" y="721.1528">store transfer process</text></g><g class="message" data-entity-1="part6" data-entity-2="part4" data-source-line="74" id="msg18"><line style="stroke:#181818;stroke-width:1;" x1="382.2725" x2="392.2725" y1="755.3516" y2="751.3516"/><line style="stroke:#181818;stroke-width:1;" x1="382.2725" x2="392.2725" y1="755.3516" y2="759.3516"/><line style="stroke:#181818;stroke-width:1;" x1="381.2725" x2="565.75" y1="755.3516" y2="755.3516"/><text fill="#000000" font-family="sans-serif" font-size="13" font-weight="700" lengthAdjust="spacing" textLength="18.0908" x="398.2725" y="750.2856">18</text><text fill="#000000" font-family="sans-serif" font-size="13" lengthAdjust="spacing" textLength="122.0527" x="420.3633" y="750.2856">store access token</text></g><?plantuml-src hLPHRzem47xthxYnnwdIkghIreTA18PMQPegTM8lVJ7s1Io2pMo7bd-_Inn2GWm4D1vGSlxkkxllx7FSKkbdRlaAVXcF2HVBkJMvbYEJ6Gj_5ihZoyeiaRaMS6Aq3v0a8v_6Alrx9TIQQz-BRIYyiVsGSpp2sG4PAz46mCjocsHvWAnBY5jmQTwKdaFACzTSISpxCvUoMBhzpDW7YQdIs2nf64ZJh-cND8q1aW2Gtr0s0DFHatCvMXTMn_UJ--ztzUgOU-xMNE0mzmjZbTy6s6GqkHjDQjWVRZMbLicUEx8vLw_-H5v9yXl5GjFJVCiOpxtH-Mg6bh6PUOV1T0HLAWFus4wB0VtM-r9WAghbiP9Z8_8LIGlSmM3yD8QTOS1GIo1k2bQqigLMYMuOO3YeycWP0OLnM-TnHKbrr2xpagJHZBjsCyOxOvbKzJ8uZf_oF0iLb4-3JiLDy9EawgWNF_9PwR9x1p9GcdK3Jd6Cw9XOaprdN8SaAmEKbhuiHMLxYkAjwryteQDkSapT9Dxr9g9Fv5F-_wN-v99EnFgUNBXFaiu-sM_n-Zp1BMEjhNxp-7Yyzm-WjFAAUmHlkNOf7KWwBcfJM9fUSMkJgnss5ULC2XkUALbG_wL3lJr1SzEc8LUQkjgyPIZdo2J6C--RLdAGrawGKg8gjrY4fAr2SGkiOOfMfLiQiA7zHyCSIjFSKm-GeXUBmANuB4COMIm1T46KlD6A6no7mLlyDsS4iEXpgo5JpeD9BwwbI-TCja5GONY_wc9SosfSzw2EZls7q1ZeSjNInFnAH9Jmd2ZDG21eZQlYzYDrO5FsIN2lZ8OLqfqfgyEFvvEvLjNDVgFHD62zQUhPizjbHIsMycHHrC7PEymYwdn96MA1ObdJlEgroPJOXj5mDIbzSw4jLET2q21-rPw-t3IxIYH7tn3x8GbhQmhA-43OkVKET3WHNJ7O3sF1fr07X2fwJzlhYXZ6YZWTA5nFkoX1yohPQ8GI_my0?></g></svg>