<svg xmlns="http://www.w3.org/2000/svg" xmlns:xlink="http://www.w3.org/1999/xlink" contentStyleType="text/css" data-diagram-type="SEQUENCE" height="237px" preserveAspectRatio="none" style="width:550px;height:237px;background:#FFFFFF;" version="1.1" viewBox="0 0 550 237" width="550px" zoomAndPan="magnify"><?plantuml 1.2026.3beta6?><defs/><g><rect fill="#F8F2FF" height="224.9922" style="stroke:#181818;stroke-width:0.5;" width="292.1328" x="11" y="6"/><text fill="#000000" font-family="sans-serif" font-size="13" font-weight="700" lengthAdjust="spacing" textLength="163.5981" x="75.2673" y="18.0669">Participant ecosystem</text><rect fill="#FCF3CF" height="224.9922" style="stroke:#181818;stroke-width:0.5;" width="208.4082" x="325.1328" y="6"/><text fill="#000000" font-family="sans-serif" font-size="13" font-weight="700" lengthAdjust="spacing" textLength="29.0342" x="414.8198" y="18.0669">DSE</text><g><title>Data Plane</title><rect fill="#FFFFFF" height="29.1328" style="stroke:#181818;stroke-width:1;" width="10" x="55.1377" y="118.5625"/></g><g><title>DB</title><rect fill="#FFFFFF" height="29.1328" style="stroke:#181818;stroke-width:1;" width="10" x="276.1328" y="118.5625"/></g><g class="participant-lifeline" data-entity-uid="part1" data-qualified-name="ParticipantDataPlane" data-source-line="20" id="part1-lifeline"><g><title>Data Plane</title><rect fill="#000000" fill-opacity="0.00000" height="78.2656" width="8" x="56.1377" y="87.4297"/><line style="stroke:#181818;stroke-width:0.5;stroke-dasharray:5,5;" x1="60" x2="60" y1="87.4297" y2="165.6953"/></g></g><g class="participant-lifeline" data-entity-uid="part2" data-qualified-name="ParticipantTelemetryAgent" data-source-line="21" id="part2-lifeline"><g><title>Telemetry</title><rect fill="#000000" fill-opacity="0.00000" height="78.2656" width="8" x="154" y="87.4297"/><line style="stroke:#181818;stroke-width:0.5;stroke-dasharray:5,5;" x1="157.2754" x2="157.2754" y1="87.4297" y2="165.6953"/></g></g><g class="participant-lifeline" data-entity-uid="part3" data-qualified-name="ParticipantVault" data-source-line="22" id="part3-lifeline"><g><title>Vault</title><rect fill="#000000" fill-opacity="0.00000" height="78.2656" width="8" x="227.9287" y="87.4297"/><line style="stroke:#181818;stroke-width:0.5;stroke-dasharray:5,5;" x1="231.7246" x2="231.7246" y1="87.4297" y2="165.6953"/></g></g><g class="participant-lifeline" data-entity-uid="part4" data-qualified-name="ParticipantDB" data-source-line="23" id="part4-lifeline"><g><title>DB</title><rect fill="#000000" fill-opacity="0.00000" height="78.2656" width="8" x="277.1328" y="87.4297"/><line style="stroke:#181818;stroke-width:0.5;stroke-dasharray:5,5;" x1="281.1328" x2="281.1328" y1="87.4297" y2="165.6953"/></g></g><g class="participant-lifeline" data-entity-uid="part5" data-qualified-name="DseEventBroker" data-source-line="27" id="part5-lifeline"><g><title>Event Broker</title><rect fill="#000000" fill-opacity="0.00000" height="78.2656" width="8" x="377.6123" y="87.4297"/><line style="stroke:#181818;stroke-width:0.5;stroke-dasharray:5,5;" x1="381.1328" x2="381.1328" y1="87.4297" y2="165.6953"/></g></g><g class="participant-lifeline" data-entity-uid="part6" data-qualified-name="DseTelemetryService" data-source-line="28" id="part6-lifeline"><g><title>Telemetry</title><rect fill="#000000" fill-opacity="0.00000" height="78.2656" width="8" x="482.8164" y="87.4297"/><line style="stroke:#181818;stroke-width:0.5;stroke-dasharray:5,5;" x1="486.0918" x2="486.0918" y1="87.4297" y2="165.6953"/></g></g><g class="participant participant-head" data-entity-uid="part1" data-qualified-name="ParticipantDataPlane" data-source-line="20" id="part1-head"><rect fill="#FFFFCC" height="30.2969" rx="2.5" ry="2.5" style="stroke:#181818;stroke-width:0.5;" width="90.2754" x="15" y="56.1328"/><text fill="#000000" font-family="sans-serif" font-size="14" lengthAdjust="spacing" textLength="76.2754" x="22" y="76.1279">Data Plane</text></g><g class="participant participant-tail" data-entity-uid="part1" data-qualified-name="ParticipantDataPlane" data-source-line="20" id="part1-tail"><rect fill="#FFFFCC" height="30.2969" rx="2.5" ry="2.5" style="stroke:#181818;stroke-width:0.5;" width="90.2754" x="15" y="164.6953"/><text fill="#000000" font-family="sans-serif" font-size="14" lengthAdjust="spacing" textLength="76.2754" x="22" y="184.6904">Data Plane</text></g><g class="participant participant-head" data-entity-uid="part2" data-qualified-name="ParticipantTelemetryAgent" data-source-line="21" id="part2-head"><rect fill="#FFFFCC" height="46.5938" rx="2.5" ry="2.5" style="stroke:#181818;stroke-width:0.5;" width="85.4492" x="115.2754" y="39.8359"/><text fill="#000000" font-family="sans-serif" font-size="14" lengthAdjust="spacing" textLength="71.4492" x="122.2754" y="59.8311">Telemetry</text><text fill="#000000" font-family="sans-serif" font-size="14" lengthAdjust="spacing" textLength="41.4395" x="137.2803" y="76.1279">Agent</text></g><g class="participant participant-tail" data-entity-uid="part2" data-qualified-name="ParticipantTelemetryAgent" data-source-line="21" id="part2-tail"><rect fill="#FFFFCC" height="46.5938" rx="2.5" ry="2.5" style="stroke:#181818;stroke-width:0.5;" width="85.4492" x="115.2754" y="164.6953"/><text fill="#000000" font-family="sans-serif" font-size="14" lengthAdjust="spacing" textLength="71.4492" x="122.2754" y="184.6904">Telemetry</text><text fill="#000000" font-family="sans-serif" font-size="14" lengthAdjust="spacing" textLength="41.4395" x="137.2803" y="200.9873">Agent</text></g><g class="participant participant-head" data-entity-uid="part3" data-qualified-name="ParticipantVault" data-source-line="22" id="part3-head"><text fill="#000000" font-family="sans-serif" font-size="14" lengthAdjust="spacing" textLength="36.4082" x="210.7246" y="84.1279">Vault</text><path d="M213.9287,35.1328 C213.9287,25.1328 231.9287,25.1328 231.9287,25.1328 C231.9287,25.1328 249.9287,25.1328 249.9287,35.1328 L249.9287,61.1328 C249.9287,71.1328 231.9287,71.1328 231.9287,71.1328 C231.9287,71.1328 213.9287,71.1328 213.9287,61.1328 L213.9287,35.1328" fill="#E2E2F0" style="stroke:#181818;stroke-width:0.5;"/><path d="M213.9287,35.1328 C213.9287,45.1328 231.9287,45.1328 231.9287,45.1328 C231.9287,45.1328 249.9287,45.1328 249.9287,35.1328" fill="none" style="stroke:#181818;stroke-width:0.5;"/></g><g class="participant participant-tail" data-entity-uid="part3" data-qualified-name="ParticipantVault" data-source-line="22" id="part3-tail"><text fill="#000000" font-family="sans-serif" font-size="14" lengthAdjust="spacing" textLength="36.4082" x="210.7246" y="177.6904">Vault</text><path d="M213.9287,190.9922 C213.9287,180.9922 231.9287,180.9922 231.9287,180.9922 C231.9287,180.9922 249.9287,180.9922 249.9287,190.9922 L249.9287,216.9922 C249.9287,226.9922 231.9287,226.9922 231.9287,226.9922 C231.9287,226.9922 213.9287,226.9922 213.9287,216.9922 L213.9287,190.9922" fill="#E2E2F0" style="stroke:#181818;stroke-width:0.5;"/><path d="M213.9287,190.9922 C213.9287,200.9922 231.9287,200.9922 231.9287,200.9922 C231.9287,200.9922 249.9287,200.9922 249.9287,190.9922" fill="none" style="stroke:#181818;stroke-width:0.5;"/></g><g class="participant participant-head" data-entity-uid="part4" data-qualified-name="ParticipantDB" data-source-line="23" id="part4-head"><text fill="#000000" font-family="sans-serif" font-size="14" lengthAdjust="spacing" textLength="20.3848" x="267.9404" y="84.1279">DB</text><path d="M263.1328,35.1328 C263.1328,25.1328 281.1328,25.1328 281.1328,25.1328 C281.1328,25.1328 299.1328,25.1328 299.1328,35.1328 L299.1328,61.1328 C299.1328,71.1328 281.1328,71.1328 281.1328,71.1328 C281.1328,71.1328 263.1328,71.1328 263.1328,61.1328 L263.1328,35.1328" fill="#E2E2F0" style="stroke:#181818;stroke-width:0.5;"/><path d="M263.1328,35.1328 C263.1328,45.1328 281.1328,45.1328 281.1328,45.1328 C281.1328,45.1328 299.1328,45.1328 299.1328,35.1328" fill="none" style="stroke:#181818;stroke-width:0.5;"/></g><g class="participant participant-tail" data-entity-uid="part4" data-qualified-name="ParticipantDB" data-source-line="23" id="part4-tail"><text fill="#000000" font-family="sans-serif" font-size="14" lengthAdjust="spacing" textLength="20.3848" x="267.9404" y="177.6904">DB</text><path d="M263.1328,190.9922 C263.1328,180.9922 281.1328,180.9922 281.1328,180.9922 C281.1328,180.9922 299.1328,180.9922 299.1328,190.9922 L299.1328,216.9922 C299.1328,226.9922 281.1328,226.9922 281.1328,226.9922 C281.1328,226.9922 263.1328,226.9922 263.1328,216.9922 L263.1328,190.9922" fill="#E2E2F0" style="stroke:#181818;stroke-width:0.5;"/><path d="M263.1328,190.9922 C263.1328,200.9922 281.1328,200.9922 281.1328,200.9922 C281.1328,200.9922 299.1328,200.9922 299.1328,190.9922" fill="none" style="stroke:#181818;stroke-width:0.5;"/></g><g class="participant participant-head" data-entity-uid="part5" data-qualified-name="DseEventBroker" data-source-line="27" id="part5-head"><rect fill="#F5F5F5" height="30.2969" rx="2.5" ry="2.5" style="stroke:#181818;stroke-width:0.5;" width="104.959" x="329.1328" y="56.1328"/><text fill="#000000" font-family="sans-serif" font-size="14" lengthAdjust="spacing" textLength="90.959" x="336.1328" y="76.1279">Event Broker</text></g><g class="participant participant-tail" data-entity-uid="part5" data-qualified-name="DseEventBroker" data-source-line="27" id="part5-tail"><rect fill="#F5F5F5" height="30.2969" rx="2.5" ry="2.5" style="stroke:#181818;stroke-width:0.5;" width="104.959" x="329.1328" y="164.6953"/><text fill="#000000" font-family="sans-serif" font-size="14" lengthAdjust="spacing" textLength="90.959" x="336.1328" y="184.6904">Event Broker</text></g><g class="participant participant-head" data-entity-uid="part6" data-qualified-name="DseTelemetryService" data-source-line="28" id="part6-head"><rect fill="#FFFFCC" height="46.5938" rx="2.5" ry="2.5" style="stroke:#181818;stroke-width:0.5;" width="85.4492" x="444.0918" y="39.8359"/><text fill="#000000" font-family="sans-serif" font-size="14" lengthAdjust="spacing" textLength="71.4492" x="451.0918" y="59.8311">Telemetry</text><text fill="#000000" font-family="sans-serif" font-size="14" lengthAdjust="spacing" textLength="51.7412" x="460.9458" y="76.1279">Service</text></g><g class="participant participant-tail" data-entity-uid="part6" data-qualified-name="DseTelemetryService" data-source-line="28" id="part6-tail"><rect fill="#FFFFCC" height="46.5938" rx="2.5" ry="2.5" style="stroke:#181818;stroke-width:0.5;" width="85.4492" x="444.0918" y="164.6953"/><text fill="#000000" font-family="sans-serif" font-size="14" lengthAdjust="spacing" textLength="71.4492" x="451.0918" y="184.6904">Telemetry</text><text fill="#000000" font-family="sans-serif" font-size="14" lengthAdjust="spacing" textLength="51.7412" x="460.9458" y="200.9873">Service</text></g><g><title>Data Plane</title><rect fill="#FFFFFF" height="29.1328" style="stroke:#181818;stroke-width:1;" width="10" x="55.1377" y="118.5625"/></g><g><title>DB</title><rect fill="#FFFFFF" height="29.1328" style="stroke:#181818;stroke-width:1;" width="10" x="276.1328" y="118.5625"/></g><g class="message" data-entity-1="part1" data-entity-2="part4" data-source-line="34" id="msg1"><line style="stroke:#181818;stroke-width:1;" x1="274.1328" x2="264.1328" y1="118.5625" y2="114.5625"/><line style="stroke:#181818;stroke-width:1;" x1="274.1328" x2="264.1328" y1="118.5625" y2="122.5625"/><line style="stroke:#181818;stroke-width:1;" x1="65.1377" x2="275.1328" y1="118.5625" y2="118.5625"/><text fill="#000000" font-family="sans-serif" font-size="13" font-weight="700" lengthAdjust="spacing" textLength="9.0454" x="72.1377" y="113.4966">1</text><text fill="#000000" font-family="sans-serif" font-size="13" lengthAdjust="spacing" textLength="163.7568" x="85.1831" y="113.4966">data consumption record</text></g><g class="message" data-entity-1="part4" data-entity-2="part1" data-source-line="37" id="msg2"><line style="stroke:#181818;stroke-width:1;" x1="61.1377" x2="71.1377" y1="147.6953" y2="143.6953"/><line style="stroke:#181818;stroke-width:1;" x1="61.1377" x2="71.1377" y1="147.6953" y2="151.6953"/><line style="stroke:#181818;stroke-width:1;stroke-dasharray:2,2;" x1="60.1377" x2="280.1328" y1="147.6953" y2="147.6953"/><text fill="#000000" font-family="sans-serif" font-size="13" font-weight="700" lengthAdjust="spacing" textLength="9.0454" x="77.1377" y="142.6294">2</text><text fill="#000000" font-family="sans-serif" font-size="13" lengthAdjust="spacing" textLength="85.5791" x="90.1831" y="142.6294">acknowledge</text></g><?plantuml-src ZPF1QkCm48RlUWgjzrpOjXIsFHJYE8Q5PGcaj9TU9jBO4R4bev7I-krNaLBNSP9I7umry-cVcLyoRPLUWeMM_pCESn3RsXglvTmqnlANZNAuQiqM6Hs1fT4k8NaJzeoouUsKK1rezosrcN36Ve-iyOBc2MIiH9k0rRRF6v-GBYAq0MdUbAvv1GsDCxbvNuAK-zJrByP-IAoKnl58ioHQ_QvkgkeSa2T0tgCS0S_pFqGUBQLiSLVUBMw7R04Eg0E1C-ysnYhN9woSbxVpSi1UmEhGsi5sJo56D6J_8XmiUKAnqU6hxXa3xupsxHejOslpphDHgno5ePuSjXd_UJ8Zu-7fHlI8s3UyR21K1UBPViNZCkWCVNsn_GaRRD7PFXvMr1X2hpe6fqeor5W37Ldz3Bv9k-DNTX4iyjHddZ7KaWSV3cOKgqKeTC7-amaAmiLkVxjik9SsIiOrJu7it8PXhXNQdH8u7VOG7eyxjFXvTloQCNRM_wl7nyca3z42BemcttPE6SrjE6Wh6GYdTk0crfmFVnHWn-9Nqtf38myy_9ZQl3KeQsGIlrQzaC__0m00?></g></svg>