<svg xmlns="http://www.w3.org/2000/svg" xmlns:xlink="http://www.w3.org/1999/xlink" contentStyleType="text/css" data-diagram-type="SEQUENCE" height="526px" preserveAspectRatio="none" style="width:865px;height:526px;background:#FFFFFF;" version="1.1" viewBox="0 0 865 526" width="865px" zoomAndPan="magnify"><?plantuml 1.2026.3beta6?><defs/><g><rect fill="#F8F2FF" height="513.3203" style="stroke:#181818;stroke-width:0.5;" width="392.8706" x="11" y="6"/><text fill="#000000" font-family="sans-serif" font-size="13" font-weight="700" lengthAdjust="spacing" textLength="163.5981" x="125.6362" y="18.0669">Participant ecosystem</text><rect fill="#FCF3CF" height="513.3203" style="stroke:#181818;stroke-width:0.5;" width="423.0259" x="425.8706" y="6"/><text fill="#000000" font-family="sans-serif" font-size="13" font-weight="700" lengthAdjust="spacing" textLength="29.0342" x="622.8665" y="18.0669">DSE</text><g><title>Telemetry</title><rect fill="#FFFFFF" height="347.5938" style="stroke:#181818;stroke-width:1;" width="10" x="153" y="97.4297"/></g><g><title>Vault</title><rect fill="#FFFFFF" height="38.1328" style="stroke:#181818;stroke-width:1;" width="10" x="373.6665" y="406.8906"/></g><g><title>Telemetry</title><rect fill="#FFFFFF" height="186.7969" style="stroke:#181818;stroke-width:1;" width="10" x="582.5542" y="190.9609"/></g><g><title>Participant Registry</title><rect fill="#FFFFFF" height="29.1328" style="stroke:#181818;stroke-width:1;" width="10" x="767.915" y="220.0938"/></g><g class="participant-lifeline" data-entity-uid="part1" data-qualified-name="DataPlane" data-source-line="20" id="part1-lifeline"><g><title>Data Plane</title><rect fill="#000000" fill-opacity="0.00000" height="366.5938" width="8" x="56.1377" y="87.4297"/><line style="stroke:#181818;stroke-width:0.5;stroke-dasharray:5,5;" x1="60" x2="60" y1="87.4297" y2="454.0234"/></g></g><g class="participant-lifeline" data-entity-uid="part2" data-qualified-name="TelemetryAgent" data-source-line="21" id="part2-lifeline"><g><title>Telemetry</title><rect fill="#000000" fill-opacity="0.00000" height="366.5938" width="8" x="154" y="87.4297"/><line style="stroke:#181818;stroke-width:0.5;stroke-dasharray:5,5;" x1="157.2754" x2="157.2754" y1="87.4297" y2="454.0234"/></g></g><g class="participant-lifeline" data-entity-uid="part3" data-qualified-name="Vault" data-source-line="22" id="part3-lifeline"><g><title>Vault</title><rect fill="#000000" fill-opacity="0.00000" height="366.5938" width="8" x="374.6665" y="87.4297"/><line style="stroke:#181818;stroke-width:0.5;stroke-dasharray:5,5;" x1="378.4624" x2="378.4624" y1="87.4297" y2="454.0234"/></g></g><g class="participant-lifeline" data-entity-uid="part4" data-qualified-name="EventBroker" data-source-line="26" id="part4-lifeline"><g><title>Event Broker</title><rect fill="#000000" fill-opacity="0.00000" height="366.5938" width="8" x="478.3501" y="87.4297"/><line style="stroke:#181818;stroke-width:0.5;stroke-dasharray:5,5;" x1="481.8706" x2="481.8706" y1="87.4297" y2="454.0234"/></g></g><g class="participant-lifeline" data-entity-uid="part5" data-qualified-name="TelemetryService" data-source-line="27" id="part5-lifeline"><g><title>Telemetry</title><rect fill="#000000" fill-opacity="0.00000" height="366.5938" width="8" x="583.5542" y="87.4297"/><line style="stroke:#181818;stroke-width:0.5;stroke-dasharray:5,5;" x1="586.8296" x2="586.8296" y1="87.4297" y2="454.0234"/></g></g><g class="participant-lifeline" data-entity-uid="part6" data-qualified-name="ParticipantRegistry" data-source-line="28" id="part6-lifeline"><g><title>Participant Registry</title><rect fill="#000000" fill-opacity="0.00000" height="366.5938" width="8" x="768.915" y="87.4297"/><line style="stroke:#181818;stroke-width:0.5;stroke-dasharray:5,5;" x1="771.9336" x2="771.9336" y1="87.4297" y2="454.0234"/></g></g><g class="participant participant-head" data-entity-uid="part1" data-qualified-name="DataPlane" data-source-line="20" id="part1-head"><rect fill="#FFFFCC" height="30.2969" rx="2.5" ry="2.5" style="stroke:#181818;stroke-width:0.5;" width="90.2754" x="15" y="56.1328"/><text fill="#000000" font-family="sans-serif" font-size="14" lengthAdjust="spacing" textLength="76.2754" x="22" y="76.1279">Data Plane</text></g><g class="participant participant-tail" data-entity-uid="part1" data-qualified-name="DataPlane" data-source-line="20" id="part1-tail"><rect fill="#FFFFCC" height="30.2969" rx="2.5" ry="2.5" style="stroke:#181818;stroke-width:0.5;" width="90.2754" x="15" y="453.0234"/><text fill="#000000" font-family="sans-serif" font-size="14" lengthAdjust="spacing" textLength="76.2754" x="22" y="473.0186">Data Plane</text></g><g class="participant participant-head" data-entity-uid="part2" data-qualified-name="TelemetryAgent" data-source-line="21" id="part2-head"><rect fill="#FFFFCC" height="46.5938" rx="2.5" ry="2.5" style="stroke:#181818;stroke-width:0.5;" width="85.4492" x="115.2754" y="39.8359"/><text fill="#000000" font-family="sans-serif" font-size="14" lengthAdjust="spacing" textLength="71.4492" x="122.2754" y="59.8311">Telemetry</text><text fill="#000000" font-family="sans-serif" font-size="14" lengthAdjust="spacing" textLength="41.4395" x="137.2803" y="76.1279">Agent</text></g><g class="participant participant-tail" data-entity-uid="part2" data-qualified-name="TelemetryAgent" data-source-line="21" id="part2-tail"><rect fill="#FFFFCC" height="46.5938" rx="2.5" ry="2.5" style="stroke:#181818;stroke-width:0.5;" width="85.4492" x="115.2754" y="453.0234"/><text fill="#000000" font-family="sans-serif" font-size="14" lengthAdjust="spacing" textLength="71.4492" x="122.2754" y="473.0186">Telemetry</text><text fill="#000000" font-family="sans-serif" font-size="14" lengthAdjust="spacing" textLength="41.4395" x="137.2803" y="489.3154">Agent</text></g><g class="participant participant-head" data-entity-uid="part3" data-qualified-name="Vault" data-source-line="22" id="part3-head"><text fill="#000000" font-family="sans-serif" font-size="14" lengthAdjust="spacing" textLength="36.4082" x="357.4624" y="84.1279">Vault</text><path d="M360.6665,35.1328 C360.6665,25.1328 378.6665,25.1328 378.6665,25.1328 C378.6665,25.1328 396.6665,25.1328 396.6665,35.1328 L396.6665,61.1328 C396.6665,71.1328 378.6665,71.1328 378.6665,71.1328 C378.6665,71.1328 360.6665,71.1328 360.6665,61.1328 L360.6665,35.1328" fill="#E2E2F0" style="stroke:#181818;stroke-width:0.5;"/><path d="M360.6665,35.1328 C360.6665,45.1328 378.6665,45.1328 378.6665,45.1328 C378.6665,45.1328 396.6665,45.1328 396.6665,35.1328" fill="none" style="stroke:#181818;stroke-width:0.5;"/></g><g class="participant participant-tail" data-entity-uid="part3" data-qualified-name="Vault" data-source-line="22" id="part3-tail"><text fill="#000000" font-family="sans-serif" font-size="14" lengthAdjust="spacing" textLength="36.4082" x="357.4624" y="466.0186">Vault</text><path d="M360.6665,479.3203 C360.6665,469.3203 378.6665,469.3203 378.6665,469.3203 C378.6665,469.3203 396.6665,469.3203 396.6665,479.3203 L396.6665,505.3203 C396.6665,515.3203 378.6665,515.3203 378.6665,515.3203 C378.6665,515.3203 360.6665,515.3203 360.6665,505.3203 L360.6665,479.3203" fill="#E2E2F0" style="stroke:#181818;stroke-width:0.5;"/><path d="M360.6665,479.3203 C360.6665,489.3203 378.6665,489.3203 378.6665,489.3203 C378.6665,489.3203 396.6665,489.3203 396.6665,479.3203" fill="none" style="stroke:#181818;stroke-width:0.5;"/></g><g class="participant participant-head" data-entity-uid="part4" data-qualified-name="EventBroker" data-source-line="26" id="part4-head"><rect fill="#F5F5F5" height="30.2969" rx="2.5" ry="2.5" style="stroke:#181818;stroke-width:0.5;" width="104.959" x="429.8706" y="56.1328"/><text fill="#000000" font-family="sans-serif" font-size="14" lengthAdjust="spacing" textLength="90.959" x="436.8706" y="76.1279">Event Broker</text></g><g class="participant participant-tail" data-entity-uid="part4" data-qualified-name="EventBroker" data-source-line="26" id="part4-tail"><rect fill="#F5F5F5" height="30.2969" rx="2.5" ry="2.5" style="stroke:#181818;stroke-width:0.5;" width="104.959" x="429.8706" y="453.0234"/><text fill="#000000" font-family="sans-serif" font-size="14" lengthAdjust="spacing" textLength="90.959" x="436.8706" y="473.0186">Event Broker</text></g><g class="participant participant-head" data-entity-uid="part5" data-qualified-name="TelemetryService" data-source-line="27" id="part5-head"><rect fill="#FFFFCC" height="46.5938" rx="2.5" ry="2.5" style="stroke:#181818;stroke-width:0.5;" width="85.4492" x="544.8296" y="39.8359"/><text fill="#000000" font-family="sans-serif" font-size="14" lengthAdjust="spacing" textLength="71.4492" x="551.8296" y="59.8311">Telemetry</text><text fill="#000000" font-family="sans-serif" font-size="14" lengthAdjust="spacing" textLength="51.7412" x="561.6836" y="76.1279">Service</text></g><g class="participant participant-tail" data-entity-uid="part5" data-qualified-name="TelemetryService" data-source-line="27" id="part5-tail"><rect fill="#FFFFCC" height="46.5938" rx="2.5" ry="2.5" style="stroke:#181818;stroke-width:0.5;" width="85.4492" x="544.8296" y="453.0234"/><text fill="#000000" font-family="sans-serif" font-size="14" lengthAdjust="spacing" textLength="71.4492" x="551.8296" y="473.0186">Telemetry</text><text fill="#000000" font-family="sans-serif" font-size="14" lengthAdjust="spacing" textLength="51.7412" x="561.6836" y="489.3154">Service</text></g><g class="participant participant-head" data-entity-uid="part6" data-qualified-name="ParticipantRegistry" data-source-line="28" id="part6-head"><text fill="#000000" font-family="sans-serif" font-size="14" lengthAdjust="spacing" textLength="137.9629" x="700.9336" y="84.1279">Participant Registry</text><path d="M754.915,35.1328 C754.915,25.1328 772.915,25.1328 772.915,25.1328 C772.915,25.1328 790.915,25.1328 790.915,35.1328 L790.915,61.1328 C790.915,71.1328 772.915,71.1328 772.915,71.1328 C772.915,71.1328 754.915,71.1328 754.915,61.1328 L754.915,35.1328" fill="#E2E2F0" style="stroke:#181818;stroke-width:0.5;"/><path d="M754.915,35.1328 C754.915,45.1328 772.915,45.1328 772.915,45.1328 C772.915,45.1328 790.915,45.1328 790.915,35.1328" fill="none" style="stroke:#181818;stroke-width:0.5;"/></g><g class="participant participant-tail" data-entity-uid="part6" data-qualified-name="ParticipantRegistry" data-source-line="28" id="part6-tail"><text fill="#000000" font-family="sans-serif" font-size="14" lengthAdjust="spacing" textLength="137.9629" x="700.9336" y="466.0186">Participant Registry</text><path d="M754.915,479.3203 C754.915,469.3203 772.915,469.3203 772.915,469.3203 C772.915,469.3203 790.915,469.3203 790.915,479.3203 L790.915,505.3203 C790.915,515.3203 772.915,515.3203 772.915,515.3203 C772.915,515.3203 754.915,515.3203 754.915,505.3203 L754.915,479.3203" fill="#E2E2F0" style="stroke:#181818;stroke-width:0.5;"/><path d="M754.915,479.3203 C754.915,489.3203 772.915,489.3203 772.915,489.3203 C772.915,489.3203 790.915,489.3203 790.915,479.3203" fill="none" style="stroke:#181818;stroke-width:0.5;"/></g><g><title>Telemetry</title><rect fill="#FFFFFF" height="347.5938" style="stroke:#181818;stroke-width:1;" width="10" x="153" y="97.4297"/></g><g><title>Vault</title><rect fill="#FFFFFF" height="38.1328" style="stroke:#181818;stroke-width:1;" width="10" x="373.6665" y="406.8906"/></g><g><title>Telemetry</title><rect fill="#FFFFFF" height="186.7969" style="stroke:#181818;stroke-width:1;" width="10" x="582.5542" y="190.9609"/></g><g><title>Participant Registry</title><rect fill="#FFFFFF" height="29.1328" style="stroke:#181818;stroke-width:1;" width="10" x="767.915" y="220.0938"/></g><g class="message" data-entity-1="part2" data-entity-2="part2" data-source-line="34" id="msg1"><line style="stroke:#181818;stroke-width:1;" x1="163" x2="205" y1="148.8281" y2="148.8281"/><line style="stroke:#181818;stroke-width:1;" x1="205" x2="205" y1="148.8281" y2="161.8281"/><line style="stroke:#181818;stroke-width:1;" x1="163" x2="205" y1="161.8281" y2="161.8281"/><line style="stroke:#181818;stroke-width:1;" x1="164" x2="174" y1="161.8281" y2="157.8281"/><line style="stroke:#181818;stroke-width:1;" x1="164" x2="174" y1="161.8281" y2="165.8281"/><text fill="#000000" font-family="sans-serif" font-size="13" font-weight="700" lengthAdjust="spacing" textLength="9.0454" x="170" y="128.6294">1</text><text fill="#000000" font-family="sans-serif" font-size="13" lengthAdjust="spacing" textLength="133.8022" x="183.0454" y="113.4966">generate self-signed</text><text fill="#000000" font-family="sans-serif" font-size="13" lengthAdjust="spacing" textLength="173.6211" x="183.0454" y="128.6294">token to read membership</text><text fill="#000000" font-family="sans-serif" font-size="13" lengthAdjust="spacing" textLength="65.2666" x="183.0454" y="143.7622">credential</text></g><g class="message" data-entity-1="part2" data-entity-2="part5" data-source-line="35" id="msg2"><line style="stroke:#181818;stroke-width:1;" x1="580.5542" x2="570.5542" y1="190.9609" y2="186.9609"/><line style="stroke:#181818;stroke-width:1;" x1="580.5542" x2="570.5542" y1="190.9609" y2="194.9609"/><line style="stroke:#181818;stroke-width:1;" x1="163" x2="581.5542" y1="190.9609" y2="190.9609"/><text fill="#000000" font-family="sans-serif" font-size="13" font-weight="700" lengthAdjust="spacing" textLength="9.0454" x="170" y="185.895">2</text><text fill="#000000" font-family="sans-serif" font-size="13" lengthAdjust="spacing" textLength="346.3916" x="183.0454" y="185.895">request event-hub token (contains self-signed token)</text></g><g class="message" data-entity-1="part5" data-entity-2="part6" data-source-line="38" id="msg3"><line style="stroke:#181818;stroke-width:1;" x1="765.915" x2="755.915" y1="220.0938" y2="216.0938"/><line style="stroke:#181818;stroke-width:1;" x1="765.915" x2="755.915" y1="220.0938" y2="224.0938"/><line style="stroke:#181818;stroke-width:1;" x1="592.5542" x2="766.915" y1="220.0938" y2="220.0938"/><text fill="#000000" font-family="sans-serif" font-size="13" font-weight="700" lengthAdjust="spacing" textLength="9.0454" x="599.5542" y="215.0278">3</text><text fill="#000000" font-family="sans-serif" font-size="13" lengthAdjust="spacing" textLength="107.7769" x="612.5996" y="215.0278">fetch participant</text></g><g class="message" data-entity-1="part6" data-entity-2="part5" data-source-line="40" id="msg4"><line style="stroke:#181818;stroke-width:1;" x1="593.5542" x2="603.5542" y1="249.2266" y2="245.2266"/><line style="stroke:#181818;stroke-width:1;" x1="593.5542" x2="603.5542" y1="249.2266" y2="253.2266"/><line style="stroke:#181818;stroke-width:1;stroke-dasharray:2,2;" x1="592.5542" x2="771.915" y1="249.2266" y2="249.2266"/><text fill="#000000" font-family="sans-serif" font-size="13" font-weight="700" lengthAdjust="spacing" textLength="9.0454" x="609.5542" y="244.1606">4</text><text fill="#000000" font-family="sans-serif" font-size="13" lengthAdjust="spacing" textLength="70.5859" x="622.5996" y="244.1606">participant</text></g><g class="message" data-entity-1="part5" data-entity-2="part5" data-source-line="43" id="msg5"><line style="stroke:#181818;stroke-width:1;" x1="592.5542" x2="634.5542" y1="293.4922" y2="293.4922"/><line style="stroke:#181818;stroke-width:1;" x1="634.5542" x2="634.5542" y1="293.4922" y2="306.4922"/><line style="stroke:#181818;stroke-width:1;" x1="592.5542" x2="634.5542" y1="306.4922" y2="306.4922"/><line style="stroke:#181818;stroke-width:1;" x1="593.5542" x2="603.5542" y1="306.4922" y2="302.4922"/><line style="stroke:#181818;stroke-width:1;" x1="593.5542" x2="603.5542" y1="306.4922" y2="310.4922"/><text fill="#000000" font-family="sans-serif" font-size="13" font-weight="700" lengthAdjust="spacing" textLength="9.0454" x="599.5542" y="280.8599">5</text><text fill="#000000" font-family="sans-serif" font-size="13" lengthAdjust="spacing" textLength="109.3257" x="612.5996" y="273.2935">asset participant</text><text fill="#000000" font-family="sans-serif" font-size="13" lengthAdjust="spacing" textLength="138.3154" x="612.5996" y="288.4263">in state ONBOARDED</text></g><g class="message" data-entity-1="part5" data-entity-2="part5" data-source-line="44" id="msg6"><line style="stroke:#181818;stroke-width:1;" x1="592.5542" x2="634.5542" y1="335.625" y2="335.625"/><line style="stroke:#181818;stroke-width:1;" x1="634.5542" x2="634.5542" y1="335.625" y2="348.625"/><line style="stroke:#181818;stroke-width:1;" x1="592.5542" x2="634.5542" y1="348.625" y2="348.625"/><line style="stroke:#181818;stroke-width:1;" x1="593.5542" x2="603.5542" y1="348.625" y2="344.625"/><line style="stroke:#181818;stroke-width:1;" x1="593.5542" x2="603.5542" y1="348.625" y2="352.625"/><text fill="#000000" font-family="sans-serif" font-size="13" font-weight="700" lengthAdjust="spacing" textLength="9.0454" x="599.5542" y="330.5591">6</text><text fill="#000000" font-family="sans-serif" font-size="13" lengthAdjust="spacing" textLength="129.3716" x="612.5996" y="330.5591">generate SAS token</text></g><g class="message" data-entity-1="part5" data-entity-2="part2" data-source-line="46" id="msg7"><line style="stroke:#181818;stroke-width:1;" x1="164" x2="174" y1="377.7578" y2="373.7578"/><line style="stroke:#181818;stroke-width:1;" x1="164" x2="174" y1="377.7578" y2="381.7578"/><line style="stroke:#181818;stroke-width:1;stroke-dasharray:2,2;" x1="163" x2="586.5542" y1="377.7578" y2="377.7578"/><text fill="#000000" font-family="sans-serif" font-size="13" font-weight="700" lengthAdjust="spacing" textLength="9.0454" x="180" y="372.6919">7</text><text fill="#000000" font-family="sans-serif" font-size="13" lengthAdjust="spacing" textLength="62.4609" x="193.0454" y="372.6919">sas token</text></g><g class="message" data-entity-1="part2" data-entity-2="part3" data-source-line="49" id="msg8"><line style="stroke:#181818;stroke-width:1;" x1="371.6665" x2="361.6665" y1="406.8906" y2="402.8906"/><line style="stroke:#181818;stroke-width:1;" x1="371.6665" x2="361.6665" y1="406.8906" y2="410.8906"/><line style="stroke:#181818;stroke-width:1;" x1="163" x2="372.6665" y1="406.8906" y2="406.8906"/><text fill="#000000" font-family="sans-serif" font-size="13" font-weight="700" lengthAdjust="spacing" textLength="9.0454" x="170" y="401.8247">8</text><text fill="#000000" font-family="sans-serif" font-size="13" lengthAdjust="spacing" textLength="74.1152" x="183.0454" y="401.8247">store token</text></g><g class="message" data-entity-1="part3" data-entity-2="part2" data-source-line="51" id="msg9"><line style="stroke:#181818;stroke-width:1;" x1="164" x2="174" y1="436.0234" y2="432.0234"/><line style="stroke:#181818;stroke-width:1;" x1="164" x2="174" y1="436.0234" y2="440.0234"/><line style="stroke:#181818;stroke-width:1;stroke-dasharray:2,2;" x1="163" x2="372.6665" y1="436.0234" y2="436.0234"/><text fill="#000000" font-family="sans-serif" font-size="13" font-weight="700" lengthAdjust="spacing" textLength="9.0454" x="180" y="430.9575">9</text><text fill="#000000" font-family="sans-serif" font-size="13" lengthAdjust="spacing" textLength="85.5791" x="193.0454" y="430.9575">acknowledge</text></g><?plantuml-src ZLJBRjim4BppArZtqXuCv840hGy1B3-00aLYH45pyOKMLn9XYNIvb1F_VLUY8hEoRDW7MUJEpEuELyIjqYjXHScVZ8D89DlCcahBcIcCvM-vSX2NPWiC_mCkZNOU4XN42QBqT2fHEw7TLMhJn1bx7JA3Cved86CbM0-8juUeg3narq0m5zAyAvtnL1GOHYBpiH9Irg7R6yQ-I4YLXh2bgHTDVwHtQJe4Y3n0_WGP0FxCVY5MOD57vm_BXyLz5vqB9t0d4fXMBZTMkOE7BMVB-zcoWxq9gwcqrlOAQG-nY_u6qLho2ackwIqxC2OgPtHLRi0ojZ4VV1IKoY4nU407vOX_FUcHSVhj0dHTvQeGb4eW7zKhtYo9t1NJvxn20IKuUsYEfI5sMslTRFRfaeGt0iapKHMUqhoD66Z9gOUsaNcy8EePwquAMUphiR0qKBQHRDRSRupEbns3tQi4-eMtssTB3ynyWKmXaHg9qFpFGD3NyR3uBQqIf_R2GSz4rlDq_FZOjtd2wGzipKKeqZ6gJ8DSQqVTQkuCjpGhl8Gw4-PgjzQ91KbC9OgByfzsJ4ZXRmL88rJxECwh3VVYtnAw68JI66RsiUy37RM2Z9sagFCEsJZXARWa3u_hg3j0O4CYupDTXQ8IBieELpoWAH31XSfh-eWvkbhu-IbwdhxC5_EhrRg3ZQUnjtMeai6PG9f0pmXQkt0In_FtNo8fq4qDhKQdq0IPXmmdfXjRc_S2P0R_0000?></g></svg>