<svg xmlns="http://www.w3.org/2000/svg" xmlns:xlink="http://www.w3.org/1999/xlink" contentStyleType="text/css" data-diagram-type="SEQUENCE" height="650px" preserveAspectRatio="none" style="width:1121px;height:650px;background:#FFFFFF;" version="1.1" viewBox="0 0 1121 650" width="1121px" zoomAndPan="magnify"><?plantuml 1.2026.3beta6?><defs/><g><rect fill="#F8F2FF" height="637.3125" style="stroke:#181818;stroke-width:0.5;" width="322.9668" x="11" y="6"/><text fill="#000000" font-family="sans-serif" font-size="13" font-weight="700" lengthAdjust="spacing" textLength="163.5981" x="90.6843" y="18.0669">Participant ecosystem</text><rect fill="#FCF3CF" height="637.3125" style="stroke:#181818;stroke-width:0.5;" width="666.3853" x="355.9668" y="6"/><text fill="#000000" font-family="sans-serif" font-size="13" font-weight="700" lengthAdjust="spacing" textLength="150.687" x="613.8159" y="18.0669">Dataspace Authority</text><g><title>Participant Agent</title><rect fill="#FFFFFF" height="350.5938" style="stroke:#181818;stroke-width:1;" width="10" x="73.7305" y="179.125"/></g><g><title>Dataspace Authority Portal</title><rect fill="#FFFFFF" height="87.3984" style="stroke:#181818;stroke-width:1;" width="10" x="456.4258" y="179.125"/></g><g><title>Dataspace Authority Portal</title><rect fill="#FFFFFF" height="132.5313" style="stroke:#181818;stroke-width:1;" width="10" x="456.4258" y="368.0547"/></g><g><title>Registration Service</title><rect fill="#FFFFFF" height="74.2656" style="stroke:#181818;stroke-width:1;" width="10" x="679.2378" y="397.1875"/></g><g><title>Membership</title><rect fill="#FFFFFF" height="321.4609" style="stroke:#181818;stroke-width:1;" width="10" x="967.0874" y="208.2578"/></g><g class="participant-lifeline" data-entity-uid="part1" data-qualified-name="ParticipantAgent" data-source-line="20" id="part1-lifeline"><g><title>Participant Agent</title><rect fill="#000000" fill-opacity="0.00000" height="429.9922" width="8" x="74.7305" y="117.7266"/><line style="stroke:#181818;stroke-width:0.5;stroke-dasharray:5,5;" x1="78" x2="78" y1="117.7266" y2="547.7188"/></g></g><g class="participant-lifeline" data-entity-uid="part2" data-qualified-name="ParticipantIdentityHub" data-source-line="21" id="part2-lifeline"><g><title>Identity Hub</title><rect fill="#000000" fill-opacity="0.00000" height="429.9922" width="8" x="198.6572" y="117.7266"/><line style="stroke:#181818;stroke-width:0.5;stroke-dasharray:5,5;" x1="202.4609" x2="202.4609" y1="117.7266" y2="547.7188"/></g></g><g class="participant-lifeline" data-entity-uid="part3" data-qualified-name="ParticipantVcStore" data-source-line="22" id="part3-lifeline"><g><title>VC Store</title><rect fill="#000000" fill-opacity="0.00000" height="429.9922" width="8" x="292.4102" y="117.7266"/><line style="stroke:#181818;stroke-width:0.5;stroke-dasharray:5,5;" x1="295.8535" x2="295.8535" y1="117.7266" y2="547.7188"/></g></g><g class="participant-lifeline" data-entity-uid="part4" data-qualified-name="DataspacePortal" data-source-line="26" id="part4-lifeline"><g><title>Dataspace Authority Portal</title><rect fill="#000000" fill-opacity="0.00000" height="429.9922" width="8" x="457.4258" y="117.7266"/><line style="stroke:#181818;stroke-width:0.5;stroke-dasharray:5,5;" x1="460.9668" x2="460.9668" y1="117.7266" y2="547.7188"/></g></g><g class="participant-lifeline" data-entity-uid="part5" data-qualified-name="RegistrationService" data-source-line="27" id="part5-lifeline"><g><title>Registration Service</title><rect fill="#000000" fill-opacity="0.00000" height="429.9922" width="8" x="680.2378" y="117.7266"/><line style="stroke:#181818;stroke-width:0.5;stroke-dasharray:5,5;" x1="683.6157" x2="683.6157" y1="117.7266" y2="547.7188"/></g></g><g class="participant-lifeline" data-entity-uid="part6" data-qualified-name="ParticipantRegistry" data-source-line="29" id="part6-lifeline"><g><title>Participant Registry</title><rect fill="#000000" fill-opacity="0.00000" height="429.9922" width="8" x="839.8413" y="117.7266"/><line style="stroke:#181818;stroke-width:0.5;stroke-dasharray:5,5;" x1="842.8599" x2="842.8599" y1="117.7266" y2="547.7188"/></g></g><g class="participant-lifeline" data-entity-uid="part7" data-qualified-name="MembershipTeam" data-source-line="30" id="part7-lifeline"><g><title>Membership</title><rect fill="#000000" fill-opacity="0.00000" height="429.9922" width="8" x="968.0874" y="117.7266"/><line style="stroke:#181818;stroke-width:0.5;stroke-dasharray:5,5;" x1="971.8228" x2="971.8228" y1="117.7266" y2="547.7188"/></g></g><g class="participant participant-head" data-entity-uid="part1" data-qualified-name="ParticipantAgent" data-source-line="20" id="part1-head"><text fill="#000000" font-family="sans-serif" font-size="14" lengthAdjust="spacing" textLength="121.4609" x="15" y="114.4248">Participant Agent</text><ellipse cx="78.7305" cy="49.9297" fill="#F5F5F5" rx="8" ry="8" style="stroke:#181818;stroke-width:0.5;"/><path d="M78.7305,57.9297 L78.7305,84.9297 M65.7305,65.9297 L91.7305,65.9297 M78.7305,84.9297 L65.7305,99.9297 M78.7305,84.9297 L91.7305,99.9297" fill="none" style="stroke:#181818;stroke-width:0.5;"/></g><g class="participant participant-tail" data-entity-uid="part1" data-qualified-name="ParticipantAgent" data-source-line="20" id="part1-tail"><text fill="#000000" font-family="sans-serif" font-size="14" lengthAdjust="spacing" textLength="121.4609" x="15" y="559.7139">Participant Agent</text><ellipse cx="78.7305" cy="571.5156" fill="#F5F5F5" rx="8" ry="8" style="stroke:#181818;stroke-width:0.5;"/><path d="M78.7305,579.5156 L78.7305,606.5156 M65.7305,587.5156 L91.7305,587.5156 M78.7305,606.5156 L65.7305,621.5156 M78.7305,606.5156 L91.7305,621.5156" fill="none" style="stroke:#181818;stroke-width:0.5;"/></g><g class="participant participant-head" data-entity-uid="part2" data-qualified-name="ParticipantIdentityHub" data-source-line="21" id="part2-head"><rect fill="#FFFFCC" height="30.2969" rx="2.5" ry="2.5" style="stroke:#181818;stroke-width:0.5;" width="100.3926" x="152.4609" y="86.4297"/><text fill="#000000" font-family="sans-serif" font-size="14" lengthAdjust="spacing" textLength="86.3926" x="159.4609" y="106.4248">Identity Hub</text></g><g class="participant participant-tail" data-entity-uid="part2" data-qualified-name="ParticipantIdentityHub" data-source-line="21" id="part2-tail"><rect fill="#FFFFCC" height="30.2969" rx="2.5" ry="2.5" style="stroke:#181818;stroke-width:0.5;" width="100.3926" x="152.4609" y="546.7188"/><text fill="#000000" font-family="sans-serif" font-size="14" lengthAdjust="spacing" textLength="86.3926" x="159.4609" y="566.7139">Identity Hub</text></g><g class="participant participant-head" data-entity-uid="part3" data-qualified-name="ParticipantVcStore" data-source-line="22" id="part3-head"><text fill="#000000" font-family="sans-serif" font-size="14" lengthAdjust="spacing" textLength="61.1133" x="262.8535" y="114.4248">VC Store</text><path d="M278.4102,65.4297 C278.4102,55.4297 296.4102,55.4297 296.4102,55.4297 C296.4102,55.4297 314.4102,55.4297 314.4102,65.4297 L314.4102,91.4297 C314.4102,101.4297 296.4102,101.4297 296.4102,101.4297 C296.4102,101.4297 278.4102,101.4297 278.4102,91.4297 L278.4102,65.4297" fill="#E2E2F0" style="stroke:#181818;stroke-width:0.5;"/><path d="M278.4102,65.4297 C278.4102,75.4297 296.4102,75.4297 296.4102,75.4297 C296.4102,75.4297 314.4102,75.4297 314.4102,65.4297" fill="none" style="stroke:#181818;stroke-width:0.5;"/></g><g class="participant participant-tail" data-entity-uid="part3" data-qualified-name="ParticipantVcStore" data-source-line="22" id="part3-tail"><text fill="#000000" font-family="sans-serif" font-size="14" lengthAdjust="spacing" textLength="61.1133" x="262.8535" y="559.7139">VC Store</text><path d="M278.4102,573.0156 C278.4102,563.0156 296.4102,563.0156 296.4102,563.0156 C296.4102,563.0156 314.4102,563.0156 314.4102,573.0156 L314.4102,599.0156 C314.4102,609.0156 296.4102,609.0156 296.4102,609.0156 C296.4102,609.0156 278.4102,609.0156 278.4102,599.0156 L278.4102,573.0156" fill="#E2E2F0" style="stroke:#181818;stroke-width:0.5;"/><path d="M278.4102,573.0156 C278.4102,583.0156 296.4102,583.0156 296.4102,583.0156 C296.4102,583.0156 314.4102,583.0156 314.4102,573.0156" fill="none" style="stroke:#181818;stroke-width:0.5;"/></g><g class="participant participant-head" data-entity-uid="part4" data-qualified-name="DataspacePortal" data-source-line="26" id="part4-head"><rect fill="#FFFFCC" height="30.2969" rx="2.5" ry="2.5" style="stroke:#181818;stroke-width:0.5;" width="202.918" x="359.9668" y="86.4297"/><text fill="#000000" font-family="sans-serif" font-size="14" lengthAdjust="spacing" textLength="188.918" x="366.9668" y="106.4248">Dataspace Authority Portal</text></g><g class="participant participant-tail" data-entity-uid="part4" data-qualified-name="DataspacePortal" data-source-line="26" id="part4-tail"><rect fill="#FFFFCC" height="30.2969" rx="2.5" ry="2.5" style="stroke:#181818;stroke-width:0.5;" width="202.918" x="359.9668" y="546.7188"/><text fill="#000000" font-family="sans-serif" font-size="14" lengthAdjust="spacing" textLength="188.918" x="366.9668" y="566.7139">Dataspace Authority Portal</text></g><g class="participant participant-head" data-entity-uid="part5" data-qualified-name="RegistrationService" data-source-line="27" id="part5-head"><rect fill="#FFFFCC" height="30.2969" rx="2.5" ry="2.5" style="stroke:#181818;stroke-width:0.5;" width="155.2441" x="606.6157" y="86.4297"/><text fill="#000000" font-family="sans-serif" font-size="14" lengthAdjust="spacing" textLength="141.2441" x="613.6157" y="106.4248">Registration Service</text></g><g class="participant participant-tail" data-entity-uid="part5" data-qualified-name="RegistrationService" data-source-line="27" id="part5-tail"><rect fill="#FFFFCC" height="30.2969" rx="2.5" ry="2.5" style="stroke:#181818;stroke-width:0.5;" width="155.2441" x="606.6157" y="546.7188"/><text fill="#000000" font-family="sans-serif" font-size="14" lengthAdjust="spacing" textLength="141.2441" x="613.6157" y="566.7139">Registration Service</text></g><g class="participant participant-head" data-entity-uid="part6" data-qualified-name="ParticipantRegistry" data-source-line="29" id="part6-head"><text fill="#000000" font-family="sans-serif" font-size="14" lengthAdjust="spacing" textLength="137.9629" x="771.8599" y="114.4248">Participant Registry</text><path d="M825.8413,65.4297 C825.8413,55.4297 843.8413,55.4297 843.8413,55.4297 C843.8413,55.4297 861.8413,55.4297 861.8413,65.4297 L861.8413,91.4297 C861.8413,101.4297 843.8413,101.4297 843.8413,101.4297 C843.8413,101.4297 825.8413,101.4297 825.8413,91.4297 L825.8413,65.4297" fill="#E2E2F0" style="stroke:#181818;stroke-width:0.5;"/><path d="M825.8413,65.4297 C825.8413,75.4297 843.8413,75.4297 843.8413,75.4297 C843.8413,75.4297 861.8413,75.4297 861.8413,65.4297" fill="none" style="stroke:#181818;stroke-width:0.5;"/></g><g class="participant participant-tail" data-entity-uid="part6" data-qualified-name="ParticipantRegistry" data-source-line="29" id="part6-tail"><text fill="#000000" font-family="sans-serif" font-size="14" lengthAdjust="spacing" textLength="137.9629" x="771.8599" y="559.7139">Participant Registry</text><path d="M825.8413,573.0156 C825.8413,563.0156 843.8413,563.0156 843.8413,563.0156 C843.8413,563.0156 861.8413,563.0156 861.8413,573.0156 L861.8413,599.0156 C861.8413,609.0156 843.8413,609.0156 843.8413,609.0156 C843.8413,609.0156 825.8413,609.0156 825.8413,599.0156 L825.8413,573.0156" fill="#E2E2F0" style="stroke:#181818;stroke-width:0.5;"/><path d="M825.8413,573.0156 C825.8413,583.0156 843.8413,583.0156 843.8413,583.0156 C843.8413,583.0156 861.8413,583.0156 861.8413,573.0156" fill="none" style="stroke:#181818;stroke-width:0.5;"/></g><g class="participant participant-head" data-entity-uid="part7" data-qualified-name="MembershipTeam" data-source-line="30" id="part7-head"><text fill="#000000" font-family="sans-serif" font-size="14" lengthAdjust="spacing" textLength="86.5293" x="925.8228" y="98.1279">Membership</text><text fill="#000000" font-family="sans-serif" font-size="14" lengthAdjust="spacing" textLength="39.3818" x="949.3965" y="114.4248">Team</text><ellipse cx="972.0874" cy="33.6328" fill="#F5F5F5" rx="8" ry="8" style="stroke:#181818;stroke-width:0.5;"/><path d="M972.0874,41.6328 L972.0874,68.6328 M959.0874,49.6328 L985.0874,49.6328 M972.0874,68.6328 L959.0874,83.6328 M972.0874,68.6328 L985.0874,83.6328" fill="none" style="stroke:#181818;stroke-width:0.5;"/></g><g class="participant participant-tail" data-entity-uid="part7" data-qualified-name="MembershipTeam" data-source-line="30" id="part7-tail"><text fill="#000000" font-family="sans-serif" font-size="14" lengthAdjust="spacing" textLength="86.5293" x="925.8228" y="559.7139">Membership</text><text fill="#000000" font-family="sans-serif" font-size="14" lengthAdjust="spacing" textLength="39.3818" x="949.3965" y="576.0107">Team</text><ellipse cx="972.0874" cy="587.8125" fill="#F5F5F5" rx="8" ry="8" style="stroke:#181818;stroke-width:0.5;"/><path d="M972.0874,595.8125 L972.0874,622.8125 M959.0874,603.8125 L985.0874,603.8125 M972.0874,622.8125 L959.0874,637.8125 M972.0874,622.8125 L985.0874,637.8125" fill="none" style="stroke:#181818;stroke-width:0.5;"/></g><g><title>Participant Agent</title><rect fill="#FFFFFF" height="350.5938" style="stroke:#181818;stroke-width:1;" width="10" x="73.7305" y="179.125"/></g><g><title>Dataspace Authority Portal</title><rect fill="#FFFFFF" height="87.3984" style="stroke:#181818;stroke-width:1;" width="10" x="456.4258" y="179.125"/></g><g><title>Dataspace Authority Portal</title><rect fill="#FFFFFF" height="132.5313" style="stroke:#181818;stroke-width:1;" width="10" x="456.4258" y="368.0547"/></g><g><title>Registration Service</title><rect fill="#FFFFFF" height="74.2656" style="stroke:#181818;stroke-width:1;" width="10" x="679.2378" y="397.1875"/></g><g><title>Membership</title><rect fill="#FFFFFF" height="321.4609" style="stroke:#181818;stroke-width:1;" width="10" x="967.0874" y="208.2578"/></g><g class="message" data-entity-1="part1" data-entity-2="part4" data-source-line="43" id="msg1"><line style="stroke:#181818;stroke-width:1;" x1="454.4258" x2="444.4258" y1="179.125" y2="175.125"/><line style="stroke:#181818;stroke-width:1;" x1="454.4258" x2="444.4258" y1="179.125" y2="183.125"/><line style="stroke:#181818;stroke-width:1;" x1="83.7305" x2="455.4258" y1="179.125" y2="179.125"/><text fill="#000000" font-family="sans-serif" font-size="13" font-weight="700" lengthAdjust="spacing" textLength="9.0454" x="90.7305" y="158.9263">1</text><text fill="#000000" font-family="sans-serif" font-size="13" lengthAdjust="spacing" textLength="244.8862" x="103.7759" y="143.7935">provides participant info (legal name,</text><text fill="#000000" font-family="sans-serif" font-size="13" lengthAdjust="spacing" textLength="244.2388" x="103.7759" y="158.9263">vatID, headquarter address...) similar</text><text fill="#000000" font-family="sans-serif" font-size="13" lengthAdjust="spacing" textLength="268.4233" x="103.7759" y="174.0591">to the ones in LegalParticipant Gaia-X VC</text></g><g class="message" data-entity-1="part4" data-entity-2="part7" data-source-line="46" id="msg2"><line style="stroke:#181818;stroke-width:1;" x1="965.0874" x2="955.0874" y1="208.2578" y2="204.2578"/><line style="stroke:#181818;stroke-width:1;" x1="965.0874" x2="955.0874" y1="208.2578" y2="212.2578"/><line style="stroke:#181818;stroke-width:1;" x1="466.4258" x2="966.0874" y1="208.2578" y2="208.2578"/><text fill="#000000" font-family="sans-serif" font-size="13" font-weight="700" lengthAdjust="spacing" textLength="9.0454" x="473.4258" y="203.1919">2</text><text fill="#000000" font-family="sans-serif" font-size="13" lengthAdjust="spacing" textLength="244.1309" x="486.4712" y="203.1919">notify membership team (e.g. mail...)</text></g><g class="message" data-entity-1="part7" data-entity-2="part4" data-source-line="48" id="msg3"><line style="stroke:#181818;stroke-width:1;" x1="467.4258" x2="477.4258" y1="237.3906" y2="233.3906"/><line style="stroke:#181818;stroke-width:1;" x1="467.4258" x2="477.4258" y1="237.3906" y2="241.3906"/><line style="stroke:#181818;stroke-width:1;stroke-dasharray:2,2;" x1="466.4258" x2="966.0874" y1="237.3906" y2="237.3906"/><text fill="#000000" font-family="sans-serif" font-size="13" font-weight="700" lengthAdjust="spacing" textLength="9.0454" x="483.4258" y="232.3247">3</text><text fill="#000000" font-family="sans-serif" font-size="13" lengthAdjust="spacing" textLength="85.5791" x="496.4712" y="232.3247">acknowledge</text></g><g class="message" data-entity-1="part4" data-entity-2="part1" data-source-line="49" id="msg4"><line style="stroke:#181818;stroke-width:1;" x1="84.7305" x2="94.7305" y1="266.5234" y2="262.5234"/><line style="stroke:#181818;stroke-width:1;" x1="84.7305" x2="94.7305" y1="266.5234" y2="270.5234"/><line style="stroke:#181818;stroke-width:1;stroke-dasharray:2,2;" x1="83.7305" x2="460.4258" y1="266.5234" y2="266.5234"/><text fill="#000000" font-family="sans-serif" font-size="13" font-weight="700" lengthAdjust="spacing" textLength="9.0454" x="100.7305" y="261.4575">4</text><text fill="#000000" font-family="sans-serif" font-size="13" lengthAdjust="spacing" textLength="85.5791" x="113.7759" y="261.4575">acknowledge</text></g><g class="message" data-entity-1="part7" data-entity-2="part7" data-source-line="52" id="msg5"><line style="stroke:#181818;stroke-width:1;" x1="977.0874" x2="1019.0874" y1="325.9219" y2="325.9219"/><line style="stroke:#181818;stroke-width:1;" x1="1019.0874" x2="1019.0874" y1="325.9219" y2="338.9219"/><line style="stroke:#181818;stroke-width:1;" x1="977.0874" x2="1019.0874" y1="338.9219" y2="338.9219"/><line style="stroke:#181818;stroke-width:1;" x1="978.0874" x2="988.0874" y1="338.9219" y2="334.9219"/><line style="stroke:#181818;stroke-width:1;" x1="978.0874" x2="988.0874" y1="338.9219" y2="342.9219"/><text fill="#000000" font-family="sans-serif" font-size="13" font-weight="700" lengthAdjust="spacing" textLength="9.0454" x="984.0874" y="305.7231">5</text><text fill="#000000" font-family="sans-serif" font-size="13" lengthAdjust="spacing" textLength="65.4316" x="997.1328" y="290.5903">verify info</text><text fill="#000000" font-family="sans-serif" font-size="13" lengthAdjust="spacing" textLength="77.4351" x="997.1328" y="305.7231">provided by</text><text fill="#000000" font-family="sans-serif" font-size="13" lengthAdjust="spacing" textLength="96.0527" x="997.1328" y="320.856">the participant</text></g><g class="message" data-entity-1="part7" data-entity-2="part4" data-source-line="54" id="msg6"><line style="stroke:#181818;stroke-width:1;" x1="467.4258" x2="477.4258" y1="368.0547" y2="364.0547"/><line style="stroke:#181818;stroke-width:1;" x1="467.4258" x2="477.4258" y1="368.0547" y2="372.0547"/><line style="stroke:#181818;stroke-width:1;" x1="466.4258" x2="966.0874" y1="368.0547" y2="368.0547"/><text fill="#000000" font-family="sans-serif" font-size="13" font-weight="700" lengthAdjust="spacing" textLength="9.0454" x="483.4258" y="362.9888">6</text><text fill="#000000" font-family="sans-serif" font-size="13" lengthAdjust="spacing" textLength="148.1416" x="496.4712" y="362.9888">request token creation</text></g><g class="message" data-entity-1="part4" data-entity-2="part5" data-source-line="56" id="msg7"><line style="stroke:#181818;stroke-width:1;" x1="677.2378" x2="667.2378" y1="397.1875" y2="393.1875"/><line style="stroke:#181818;stroke-width:1;" x1="677.2378" x2="667.2378" y1="397.1875" y2="401.1875"/><line style="stroke:#181818;stroke-width:1;" x1="466.4258" x2="678.2378" y1="397.1875" y2="397.1875"/><text fill="#000000" font-family="sans-serif" font-size="13" font-weight="700" lengthAdjust="spacing" textLength="9.0454" x="473.4258" y="392.1216">7</text><text fill="#000000" font-family="sans-serif" font-size="13" lengthAdjust="spacing" textLength="90.6509" x="486.4712" y="392.1216">request token</text></g><g class="message" data-entity-1="part5" data-entity-2="part4" data-source-line="59" id="msg8"><line style="stroke:#181818;stroke-width:1;" x1="467.4258" x2="477.4258" y1="471.4531" y2="467.4531"/><line style="stroke:#181818;stroke-width:1;" x1="467.4258" x2="477.4258" y1="471.4531" y2="475.4531"/><line style="stroke:#181818;stroke-width:1;stroke-dasharray:2,2;" x1="466.4258" x2="683.2378" y1="471.4531" y2="471.4531"/><text fill="#000000" font-family="sans-serif" font-size="13" font-weight="700" lengthAdjust="spacing" textLength="9.0454" x="483.4258" y="458.8208">8</text><text fill="#000000" font-family="sans-serif" font-size="13" lengthAdjust="spacing" textLength="175.7666" x="496.4712" y="451.2544">token (contains participant</text><text fill="#000000" font-family="sans-serif" font-size="13" lengthAdjust="spacing" textLength="98.1157" x="496.4712" y="466.3872">infos in claims)</text></g><g class="message" data-entity-1="part4" data-entity-2="part7" data-source-line="61" id="msg9"><line style="stroke:#181818;stroke-width:1;" x1="965.0874" x2="955.0874" y1="500.5859" y2="496.5859"/><line style="stroke:#181818;stroke-width:1;" x1="965.0874" x2="955.0874" y1="500.5859" y2="504.5859"/><line style="stroke:#181818;stroke-width:1;stroke-dasharray:2,2;" x1="461.4258" x2="966.0874" y1="500.5859" y2="500.5859"/><text fill="#000000" font-family="sans-serif" font-size="13" font-weight="700" lengthAdjust="spacing" textLength="9.0454" x="468.4258" y="495.52">9</text><text fill="#000000" font-family="sans-serif" font-size="13" lengthAdjust="spacing" textLength="36.8164" x="481.4712" y="495.52">token</text></g><g class="message" data-entity-1="part7" data-entity-2="part1" data-source-line="64" id="msg10"><line style="stroke:#181818;stroke-width:1;" x1="79.7305" x2="89.7305" y1="529.7188" y2="525.7188"/><line style="stroke:#181818;stroke-width:1;" x1="79.7305" x2="89.7305" y1="529.7188" y2="533.7188"/><line style="stroke:#181818;stroke-width:1;stroke-dasharray:2,2;" x1="78.7305" x2="971.0874" y1="529.7188" y2="529.7188"/><text fill="#000000" font-family="sans-serif" font-size="13" font-weight="700" lengthAdjust="spacing" textLength="18.0908" x="95.7305" y="524.6528">10</text><text fill="#000000" font-family="sans-serif" font-size="13" lengthAdjust="spacing" textLength="119.9897" x="117.8213" y="524.6528">token (e.g. mail...)</text></g><?plantuml-src bLLDRzim3BthLsZP8ItG1kk60biF1HfdQGjiGx4KQG-vA1Pj2x4bLvBJ-j-Fjbn7_WZGvH0avDCZtoDbcvsG3qopZFvH5kOitCLQ5P87AbMQFYN2mYfJEo2c0rmgQHradk8PBulVLeGYPz9-YEqcj4f_31d34Su1I6aEsW5MktAU5WwIrn2JCAvUXOnfn5BZP-RgxO5nNgKklX3oYKCa9FYI76VqFVeQHMt-zes7YSlm7y2zpACkZBsHOQAQRXQNoykVtzhyWbbcSXR2JM4H8spfOCjW-IrOjh0dfYKsrHXU68mPqsP_0MlCU8GmaVWhBWbXXLMooBQW2TcgDphnL508bIcDXMn2F_VL4OeVLat55rxxIfdfyjJHINqYzy8Uv9uZ0dNT5TlwzFj_YW4itegfA3YwiMMcO_WwN64dK9zT1xJ-Co4WEKLHZRBMHThQYDH7l1qqs-8UbBOihIkDC5ANxlViC_s5M1YhcHLAha3lHUZwzkEqIVWyquxuOTzhLgJE-_hNvAXPJQ5oCAVtnCGRxc-ebiCa8dy4tFtgo26qaLNGCtfQErtlCtKBZGhww-sK-9PuY9M8goNsZMb2hITa-bvlsXIyVLu4TrZfSCM6DGALvQbWCWIV-n0TeVTk1xqWPB3dvzVNWxsuehbMUy71TAeB6IbwaaAC4CaoEDl8FRFtYpEQuBryAH2AHV2fed7Kizdib1gHYPJfZRIAsWIemYL06hp7oE5FxPO9TlvCrm71YGbaXNvJXqHV0kctNqdgZVoAIcL5LDAiZLDR9KvW5izenaHQDNmeqZrFUdJduwxX0rkgrnHu3CEcgYC3zxjdE1nLF-XWJECUTAMncjD6DYF4BIZHVpJV6-KetL2FXfS2y1POV3j96cgex_Nn4OqDOkn9qMC-48w0VLD6xZyPupyo7YVZ9CGNEXEoiziRMPbMxsQOCf6PKx_kM5kZynrCnEdxdxaUMPEcz-wsZblZBeMNwvRu1m00?></g></svg>