<svg xmlns="http://www.w3.org/2000/svg" xmlns:xlink="http://www.w3.org/1999/xlink" contentStyleType="text/css" data-diagram-type="SEQUENCE" height="776px" preserveAspectRatio="none" style="width:1560px;height:776px;background:#FFFFFF;" version="1.1" viewBox="0 0 1560 776" width="1560px" zoomAndPan="magnify"><?plantuml 1.2026.3beta6?><defs/><g><rect fill="#F8F2FF" height="763.25" style="stroke:#181818;stroke-width:0.5;" width="483.9229" x="11" y="6"/><text fill="#000000" font-family="sans-serif" font-size="13" font-weight="700" lengthAdjust="spacing" textLength="163.5981" x="171.1624" y="18.0669">Participant ecosystem</text><rect fill="#FCF3CF" height="763.25" style="stroke:#181818;stroke-width:0.5;" width="691.8813" x="516.9229" y="6"/><text fill="#000000" font-family="sans-serif" font-size="13" font-weight="700" lengthAdjust="spacing" textLength="150.687" x="787.52" y="18.0669">Dataspace Authority</text><rect fill="#D5F5E3" height="763.25" style="stroke:#181818;stroke-width:0.5;" width="130.377" x="1230.8042" y="6"/><text fill="#000000" font-family="sans-serif" font-size="13" font-weight="700" lengthAdjust="spacing" textLength="94.6309" x="1248.6772" y="18.0669">Trust Anchor</text><rect fill="#D9EDFF" height="763.25" style="stroke:#181818;stroke-width:0.5;" width="160.5986" x="1383.1812" y="6"/><text fill="#000000" font-family="sans-serif" font-size="13" font-weight="700" lengthAdjust="spacing" textLength="51.9048" x="1437.5281" y="18.0669">GXDCH</text><g><title>Agent</title><rect fill="#FFFFFF" height="539.3906" style="stroke:#181818;stroke-width:1;" width="10" x="33.7197" y="132.5625"/></g><g><title>Identity Hub</title><rect fill="#FFFFFF" height="87.3984" style="stroke:#181818;stroke-width:1;" width="10" x="243.043" y="584.5547"/></g><g><title>VC Store</title><rect fill="#FFFFFF" height="29.1328" style="stroke:#181818;stroke-width:1;" width="10" x="452.3662" y="613.6875"/></g><g><title>Dataspace Authority Portal</title><rect fill="#FFFFFF" height="422.8594" style="stroke:#181818;stroke-width:1;" width="10" x="617.3818" y="132.5625"/></g><g><title>Registration Service</title><rect fill="#FFFFFF" height="364.5938" style="stroke:#181818;stroke-width:1;" width="10" x="822.5684" y="161.6953"/></g><g><title>Signing Service</title><rect fill="#FFFFFF" height="29.1328" style="stroke:#181818;stroke-width:1;" width="10" x="1290.9927" y="402.7578"/></g><g><title>Compliance Service</title><rect fill="#FFFFFF" height="29.1328" style="stroke:#181818;stroke-width:1;" width="10" x="1458.4805" y="468.0234"/></g><rect fill="none" height="59.2656" style="stroke:#000000;stroke-width:1.5;" width="477.7686" x="739.9463" y="291.2266"/><rect fill="none" height="75.3984" style="stroke:#000000;stroke-width:1.5;" width="627.2349" x="739.9463" y="364.4922"/><g class="participant-lifeline" data-entity-uid="part1" data-qualified-name="ParticipantAgent" data-source-line="20" id="part1-lifeline"><g><title>Agent</title><rect fill="#000000" fill-opacity="0.00000" height="588.5234" width="8" x="34.7197" y="101.4297"/><line style="stroke:#181818;stroke-width:0.5;stroke-dasharray:5,5;" x1="38" x2="38" y1="101.4297" y2="689.9531"/></g></g><g class="participant-lifeline" data-entity-uid="part2" data-qualified-name="ParticipantIdentityHub" data-source-line="21" id="part2-lifeline"><g><title>Identity Hub</title><rect fill="#000000" fill-opacity="0.00000" height="588.5234" width="8" x="244.043" y="101.4297"/><line style="stroke:#181818;stroke-width:0.5;stroke-dasharray:5,5;" x1="247.8467" x2="247.8467" y1="101.4297" y2="689.9531"/></g></g><g class="participant-lifeline" data-entity-uid="part3" data-qualified-name="ParticipantVcStore" data-source-line="22" id="part3-lifeline"><g><title>VC Store</title><rect fill="#000000" fill-opacity="0.00000" height="588.5234" width="8" x="453.3662" y="101.4297"/><line style="stroke:#181818;stroke-width:0.5;stroke-dasharray:5,5;" x1="456.8096" x2="456.8096" y1="101.4297" y2="689.9531"/></g></g><g class="participant-lifeline" data-entity-uid="part4" data-qualified-name="DataspaceAuthorityPortal" data-source-line="26" id="part4-lifeline"><g><title>Dataspace Authority Portal</title><rect fill="#000000" fill-opacity="0.00000" height="588.5234" width="8" x="618.3818" y="101.4297"/><line style="stroke:#181818;stroke-width:0.5;stroke-dasharray:5,5;" x1="621.9229" x2="621.9229" y1="101.4297" y2="689.9531"/></g></g><g class="participant-lifeline" data-entity-uid="part5" data-qualified-name="RegistrationService" data-source-line="27" id="part5-lifeline"><g><title>Registration Service</title><rect fill="#000000" fill-opacity="0.00000" height="588.5234" width="8" x="823.5684" y="101.4297"/><line style="stroke:#181818;stroke-width:0.5;stroke-dasharray:5,5;" x1="826.9463" x2="826.9463" y1="101.4297" y2="689.9531"/></g></g><g class="participant-lifeline" data-entity-uid="part6" data-qualified-name="DataspaceAuthorityParticipantStore" data-source-line="28" id="part6-lifeline"><g><title>Participant Store</title><rect fill="#000000" fill-opacity="0.00000" height="588.5234" width="8" x="1081.6987" y="101.4297"/><line style="stroke:#181818;stroke-width:0.5;stroke-dasharray:5,5;" x1="1085.0327" x2="1085.0327" y1="101.4297" y2="689.9531"/></g></g><g class="participant-lifeline" data-entity-uid="part7" data-qualified-name="DataspaceAuthorityAgent" data-source-line="29" id="part7-lifeline"><g><title>Agent</title><rect fill="#000000" fill-opacity="0.00000" height="588.5234" width="8" x="1177.0845" y="101.4297"/><line style="stroke:#181818;stroke-width:0.5;stroke-dasharray:5,5;" x1="1180.3647" x2="1180.3647" y1="101.4297" y2="689.9531"/></g></g><g class="participant-lifeline" data-entity-uid="part8" data-qualified-name="TrustAnchorSigningService" data-source-line="33" id="part8-lifeline"><g><title>Signing Service</title><rect fill="#000000" fill-opacity="0.00000" height="588.5234" width="8" x="1291.9927" y="101.4297"/><line style="stroke:#181818;stroke-width:0.5;stroke-dasharray:5,5;" x1="1295.8042" x2="1295.8042" y1="101.4297" y2="689.9531"/></g></g><g class="participant-lifeline" data-entity-uid="part9" data-qualified-name="ComplianceService" data-source-line="37" id="part9-lifeline"><g><title>Compliance Service</title><rect fill="#000000" fill-opacity="0.00000" height="588.5234" width="8" x="1459.4805" y="101.4297"/><line style="stroke:#181818;stroke-width:0.5;stroke-dasharray:5,5;" x1="1463.1812" x2="1463.1812" y1="101.4297" y2="689.9531"/></g></g><g class="participant participant-head" data-entity-uid="part1" data-qualified-name="ParticipantAgent" data-source-line="20" id="part1-head"><text fill="#000000" font-family="sans-serif" font-size="14" lengthAdjust="spacing" textLength="41.4395" x="15" y="98.1279">Agent</text><ellipse cx="38.7197" cy="33.6328" fill="#F5F5F5" rx="8" ry="8" style="stroke:#181818;stroke-width:0.5;"/><path d="M38.7197,41.6328 L38.7197,68.6328 M25.7197,49.6328 L51.7197,49.6328 M38.7197,68.6328 L25.7197,83.6328 M38.7197,68.6328 L51.7197,83.6328" fill="none" style="stroke:#181818;stroke-width:0.5;"/></g><g class="participant participant-tail" data-entity-uid="part1" data-qualified-name="ParticipantAgent" data-source-line="20" id="part1-tail"><text fill="#000000" font-family="sans-serif" font-size="14" lengthAdjust="spacing" textLength="41.4395" x="15" y="701.9482">Agent</text><ellipse cx="38.7197" cy="713.75" fill="#F5F5F5" rx="8" ry="8" style="stroke:#181818;stroke-width:0.5;"/><path d="M38.7197,721.75 L38.7197,748.75 M25.7197,729.75 L51.7197,729.75 M38.7197,748.75 L25.7197,763.75 M38.7197,748.75 L51.7197,763.75" fill="none" style="stroke:#181818;stroke-width:0.5;"/></g><g class="participant participant-head" data-entity-uid="part2" data-qualified-name="ParticipantIdentityHub" data-source-line="21" id="part2-head"><rect fill="#FFFFCC" height="30.2969" rx="2.5" ry="2.5" style="stroke:#181818;stroke-width:0.5;" width="100.3926" x="197.8467" y="70.1328"/><text fill="#000000" font-family="sans-serif" font-size="14" lengthAdjust="spacing" textLength="86.3926" x="204.8467" y="90.1279">Identity Hub</text></g><g class="participant participant-tail" data-entity-uid="part2" data-qualified-name="ParticipantIdentityHub" data-source-line="21" id="part2-tail"><rect fill="#FFFFCC" height="30.2969" rx="2.5" ry="2.5" style="stroke:#181818;stroke-width:0.5;" width="100.3926" x="197.8467" y="688.9531"/><text fill="#000000" font-family="sans-serif" font-size="14" lengthAdjust="spacing" textLength="86.3926" x="204.8467" y="708.9482">Identity Hub</text></g><g class="participant participant-head" data-entity-uid="part3" data-qualified-name="ParticipantVcStore" data-source-line="22" id="part3-head"><text fill="#000000" font-family="sans-serif" font-size="14" lengthAdjust="spacing" textLength="61.1133" x="423.8096" y="98.1279">VC Store</text><path d="M439.3662,49.1328 C439.3662,39.1328 457.3662,39.1328 457.3662,39.1328 C457.3662,39.1328 475.3662,39.1328 475.3662,49.1328 L475.3662,75.1328 C475.3662,85.1328 457.3662,85.1328 457.3662,85.1328 C457.3662,85.1328 439.3662,85.1328 439.3662,75.1328 L439.3662,49.1328" fill="#E2E2F0" style="stroke:#181818;stroke-width:0.5;"/><path d="M439.3662,49.1328 C439.3662,59.1328 457.3662,59.1328 457.3662,59.1328 C457.3662,59.1328 475.3662,59.1328 475.3662,49.1328" fill="none" style="stroke:#181818;stroke-width:0.5;"/></g><g class="participant participant-tail" data-entity-uid="part3" data-qualified-name="ParticipantVcStore" data-source-line="22" id="part3-tail"><text fill="#000000" font-family="sans-serif" font-size="14" lengthAdjust="spacing" textLength="61.1133" x="423.8096" y="701.9482">VC Store</text><path d="M439.3662,715.25 C439.3662,705.25 457.3662,705.25 457.3662,705.25 C457.3662,705.25 475.3662,705.25 475.3662,715.25 L475.3662,741.25 C475.3662,751.25 457.3662,751.25 457.3662,751.25 C457.3662,751.25 439.3662,751.25 439.3662,741.25 L439.3662,715.25" fill="#E2E2F0" style="stroke:#181818;stroke-width:0.5;"/><path d="M439.3662,715.25 C439.3662,725.25 457.3662,725.25 457.3662,725.25 C457.3662,725.25 475.3662,725.25 475.3662,715.25" fill="none" style="stroke:#181818;stroke-width:0.5;"/></g><g class="participant participant-head" data-entity-uid="part4" data-qualified-name="DataspaceAuthorityPortal" data-source-line="26" id="part4-head"><rect fill="#FFFFCC" height="30.2969" rx="2.5" ry="2.5" style="stroke:#181818;stroke-width:0.5;" width="202.918" x="520.9229" y="70.1328"/><text fill="#000000" font-family="sans-serif" font-size="14" lengthAdjust="spacing" textLength="188.918" x="527.9229" y="90.1279">Dataspace Authority Portal</text></g><g class="participant participant-tail" data-entity-uid="part4" data-qualified-name="DataspaceAuthorityPortal" data-source-line="26" id="part4-tail"><rect fill="#FFFFCC" height="30.2969" rx="2.5" ry="2.5" style="stroke:#181818;stroke-width:0.5;" width="202.918" x="520.9229" y="688.9531"/><text fill="#000000" font-family="sans-serif" font-size="14" lengthAdjust="spacing" textLength="188.918" x="527.9229" y="708.9482">Dataspace Authority Portal</text></g><g class="participant participant-head" data-entity-uid="part5" data-qualified-name="RegistrationService" data-source-line="27" id="part5-head"><rect fill="#FFFFCC" height="30.2969" rx="2.5" ry="2.5" style="stroke:#181818;stroke-width:0.5;" width="155.2441" x="749.9463" y="70.1328"/><text fill="#000000" font-family="sans-serif" font-size="14" lengthAdjust="spacing" textLength="141.2441" x="756.9463" y="90.1279">Registration Service</text></g><g class="participant participant-tail" data-entity-uid="part5" data-qualified-name="RegistrationService" data-source-line="27" id="part5-tail"><rect fill="#FFFFCC" height="30.2969" rx="2.5" ry="2.5" style="stroke:#181818;stroke-width:0.5;" width="155.2441" x="749.9463" y="688.9531"/><text fill="#000000" font-family="sans-serif" font-size="14" lengthAdjust="spacing" textLength="141.2441" x="756.9463" y="708.9482">Registration Service</text></g><g class="participant participant-head" data-entity-uid="part6" data-qualified-name="DataspaceAuthorityParticipantStore" data-source-line="28" id="part6-head"><text fill="#000000" font-family="sans-serif" font-size="14" lengthAdjust="spacing" textLength="117.332" x="1024.0327" y="98.1279">Participant Store</text><path d="M1067.6987,49.1328 C1067.6987,39.1328 1085.6987,39.1328 1085.6987,39.1328 C1085.6987,39.1328 1103.6987,39.1328 1103.6987,49.1328 L1103.6987,75.1328 C1103.6987,85.1328 1085.6987,85.1328 1085.6987,85.1328 C1085.6987,85.1328 1067.6987,85.1328 1067.6987,75.1328 L1067.6987,49.1328" fill="#E2E2F0" style="stroke:#181818;stroke-width:0.5;"/><path d="M1067.6987,49.1328 C1067.6987,59.1328 1085.6987,59.1328 1085.6987,59.1328 C1085.6987,59.1328 1103.6987,59.1328 1103.6987,49.1328" fill="none" style="stroke:#181818;stroke-width:0.5;"/></g><g class="participant participant-tail" data-entity-uid="part6" data-qualified-name="DataspaceAuthorityParticipantStore" data-source-line="28" id="part6-tail"><text fill="#000000" font-family="sans-serif" font-size="14" lengthAdjust="spacing" textLength="117.332" x="1024.0327" y="701.9482">Participant Store</text><path d="M1067.6987,715.25 C1067.6987,705.25 1085.6987,705.25 1085.6987,705.25 C1085.6987,705.25 1103.6987,705.25 1103.6987,715.25 L1103.6987,741.25 C1103.6987,751.25 1085.6987,751.25 1085.6987,751.25 C1085.6987,751.25 1067.6987,751.25 1067.6987,741.25 L1067.6987,715.25" fill="#E2E2F0" style="stroke:#181818;stroke-width:0.5;"/><path d="M1067.6987,715.25 C1067.6987,725.25 1085.6987,725.25 1085.6987,725.25 C1085.6987,725.25 1103.6987,725.25 1103.6987,715.25" fill="none" style="stroke:#181818;stroke-width:0.5;"/></g><g class="participant participant-head" data-entity-uid="part7" data-qualified-name="DataspaceAuthorityAgent" data-source-line="29" id="part7-head"><text fill="#000000" font-family="sans-serif" font-size="14" lengthAdjust="spacing" textLength="41.4395" x="1157.3647" y="98.1279">Agent</text><ellipse cx="1181.0845" cy="33.6328" fill="#F5F5F5" rx="8" ry="8" style="stroke:#181818;stroke-width:0.5;"/><path d="M1181.0845,41.6328 L1181.0845,68.6328 M1168.0845,49.6328 L1194.0845,49.6328 M1181.0845,68.6328 L1168.0845,83.6328 M1181.0845,68.6328 L1194.0845,83.6328" fill="none" style="stroke:#181818;stroke-width:0.5;"/></g><g class="participant participant-tail" data-entity-uid="part7" data-qualified-name="DataspaceAuthorityAgent" data-source-line="29" id="part7-tail"><text fill="#000000" font-family="sans-serif" font-size="14" lengthAdjust="spacing" textLength="41.4395" x="1157.3647" y="701.9482">Agent</text><ellipse cx="1181.0845" cy="713.75" fill="#F5F5F5" rx="8" ry="8" style="stroke:#181818;stroke-width:0.5;"/><path d="M1181.0845,721.75 L1181.0845,748.75 M1168.0845,729.75 L1194.0845,729.75 M1181.0845,748.75 L1168.0845,763.75 M1181.0845,748.75 L1194.0845,763.75" fill="none" style="stroke:#181818;stroke-width:0.5;"/></g><g class="participant participant-head" data-entity-uid="part8" data-qualified-name="TrustAnchorSigningService" data-source-line="33" id="part8-head"><rect fill="#F5F5F5" height="30.2969" rx="2.5" ry="2.5" style="stroke:#181818;stroke-width:0.5;" width="122.377" x="1234.8042" y="70.1328"/><text fill="#000000" font-family="sans-serif" font-size="14" lengthAdjust="spacing" textLength="108.377" x="1241.8042" y="90.1279">Signing Service</text></g><g class="participant participant-tail" data-entity-uid="part8" data-qualified-name="TrustAnchorSigningService" data-source-line="33" id="part8-tail"><rect fill="#F5F5F5" height="30.2969" rx="2.5" ry="2.5" style="stroke:#181818;stroke-width:0.5;" width="122.377" x="1234.8042" y="688.9531"/><text fill="#000000" font-family="sans-serif" font-size="14" lengthAdjust="spacing" textLength="108.377" x="1241.8042" y="708.9482">Signing Service</text></g><g class="participant participant-head" data-entity-uid="part9" data-qualified-name="ComplianceService" data-source-line="37" id="part9-head"><rect fill="#F5F5F5" height="30.2969" rx="2.5" ry="2.5" style="stroke:#181818;stroke-width:0.5;" width="152.5986" x="1387.1812" y="70.1328"/><text fill="#000000" font-family="sans-serif" font-size="14" lengthAdjust="spacing" textLength="138.5986" x="1394.1812" y="90.1279">Compliance Service</text></g><g class="participant participant-tail" data-entity-uid="part9" data-qualified-name="ComplianceService" data-source-line="37" id="part9-tail"><rect fill="#F5F5F5" height="30.2969" rx="2.5" ry="2.5" style="stroke:#181818;stroke-width:0.5;" width="152.5986" x="1387.1812" y="688.9531"/><text fill="#000000" font-family="sans-serif" font-size="14" lengthAdjust="spacing" textLength="138.5986" x="1394.1812" y="708.9482">Compliance Service</text></g><g><title>Agent</title><rect fill="#FFFFFF" height="539.3906" style="stroke:#181818;stroke-width:1;" width="10" x="33.7197" y="132.5625"/></g><g><title>Identity Hub</title><rect fill="#FFFFFF" height="87.3984" style="stroke:#181818;stroke-width:1;" width="10" x="243.043" y="584.5547"/></g><g><title>VC Store</title><rect fill="#FFFFFF" height="29.1328" style="stroke:#181818;stroke-width:1;" width="10" x="452.3662" y="613.6875"/></g><g><title>Dataspace Authority Portal</title><rect fill="#FFFFFF" height="422.8594" style="stroke:#181818;stroke-width:1;" width="10" x="617.3818" y="132.5625"/></g><g><title>Registration Service</title><rect fill="#FFFFFF" height="364.5938" style="stroke:#181818;stroke-width:1;" width="10" x="822.5684" y="161.6953"/></g><g><title>Signing Service</title><rect fill="#FFFFFF" height="29.1328" style="stroke:#181818;stroke-width:1;" width="10" x="1290.9927" y="402.7578"/></g><g><title>Compliance Service</title><rect fill="#FFFFFF" height="29.1328" style="stroke:#181818;stroke-width:1;" width="10" x="1458.4805" y="468.0234"/></g><g class="message" data-entity-1="part1" data-entity-2="part4" data-source-line="42" id="msg1"><line style="stroke:#181818;stroke-width:1;" x1="615.3818" x2="605.3818" y1="132.5625" y2="128.5625"/><line style="stroke:#181818;stroke-width:1;" x1="615.3818" x2="605.3818" y1="132.5625" y2="136.5625"/><line style="stroke:#181818;stroke-width:1;" x1="43.7197" x2="616.3818" y1="132.5625" y2="132.5625"/><text fill="#000000" font-family="sans-serif" font-size="13" font-weight="700" lengthAdjust="spacing" textLength="9.0454" x="50.7197" y="127.4966">1</text><text fill="#000000" font-family="sans-serif" font-size="13" lengthAdjust="spacing" textLength="185.2437" x="63.7651" y="127.4966">VC request containing token</text></g><g class="message" data-entity-1="part4" data-entity-2="part5" data-source-line="45" id="msg2"><line style="stroke:#181818;stroke-width:1;" x1="820.5684" x2="810.5684" y1="161.6953" y2="157.6953"/><line style="stroke:#181818;stroke-width:1;" x1="820.5684" x2="810.5684" y1="161.6953" y2="165.6953"/><line style="stroke:#181818;stroke-width:1;" x1="627.3818" x2="821.5684" y1="161.6953" y2="161.6953"/><text fill="#000000" font-family="sans-serif" font-size="13" font-weight="700" lengthAdjust="spacing" textLength="9.0454" x="634.3818" y="156.6294">2</text><text fill="#000000" font-family="sans-serif" font-size="13" lengthAdjust="spacing" textLength="163.1411" x="647.4272" y="156.6294">request containing token</text></g><g class="message" data-entity-1="part5" data-entity-2="part5" data-source-line="47" id="msg3"><line style="stroke:#181818;stroke-width:1;" x1="832.5684" x2="874.5684" y1="190.8281" y2="190.8281"/><line style="stroke:#181818;stroke-width:1;" x1="874.5684" x2="874.5684" y1="190.8281" y2="203.8281"/><line style="stroke:#181818;stroke-width:1;" x1="832.5684" x2="874.5684" y1="203.8281" y2="203.8281"/><line style="stroke:#181818;stroke-width:1;" x1="833.5684" x2="843.5684" y1="203.8281" y2="199.8281"/><line style="stroke:#181818;stroke-width:1;" x1="833.5684" x2="843.5684" y1="203.8281" y2="207.8281"/><text fill="#000000" font-family="sans-serif" font-size="13" font-weight="700" lengthAdjust="spacing" textLength="9.0454" x="839.5684" y="185.7622">3</text><text fill="#000000" font-family="sans-serif" font-size="13" lengthAdjust="spacing" textLength="77.8667" x="852.6138" y="185.7622">verify token</text></g><g class="message" data-entity-1="part5" data-entity-2="part5" data-source-line="49" id="msg4"><line style="stroke:#181818;stroke-width:1;" x1="832.5684" x2="874.5684" y1="263.2266" y2="263.2266"/><line style="stroke:#181818;stroke-width:1;" x1="874.5684" x2="874.5684" y1="263.2266" y2="276.2266"/><line style="stroke:#181818;stroke-width:1;" x1="832.5684" x2="874.5684" y1="276.2266" y2="276.2266"/><line style="stroke:#181818;stroke-width:1;" x1="833.5684" x2="843.5684" y1="276.2266" y2="272.2266"/><line style="stroke:#181818;stroke-width:1;" x1="833.5684" x2="843.5684" y1="276.2266" y2="280.2266"/><text fill="#000000" font-family="sans-serif" font-size="13" font-weight="700" lengthAdjust="spacing" textLength="9.0454" x="839.5684" y="243.0278">4</text><text fill="#000000" font-family="sans-serif" font-size="13" lengthAdjust="spacing" textLength="155.0605" x="852.6138" y="227.895">create LegalParticipant,</text><text fill="#000000" font-family="sans-serif" font-size="13" lengthAdjust="spacing" textLength="159.7896" x="852.6138" y="243.0278">RegistrationNumber and</text><text fill="#000000" font-family="sans-serif" font-size="13" lengthAdjust="spacing" textLength="211.085" x="852.6138" y="258.1606">TermsAndConditions credentials</text></g><path d="M739.9463,291.2266 L1212.7148,291.2266 L1212.7148,298.3594 L1202.7148,308.3594 L739.9463,308.3594 L739.9463,291.2266" fill="#EEEEEE" style="stroke:#000000;stroke-width:1.5;"/><rect fill="none" height="59.2656" style="stroke:#000000;stroke-width:1.5;" width="477.7686" x="739.9463" y="291.2266"/><text fill="#000000" font-family="sans-serif" font-size="13" font-weight="700" lengthAdjust="spacing" textLength="427.7686" x="754.9463" y="304.2935">scenario B1: Dataspace Authority is a Gaia-X Trust Anchor</text><g class="message" data-entity-1="part5" data-entity-2="part5" data-source-line="52" id="msg5"><line style="stroke:#181818;stroke-width:1;" x1="832.5684" x2="874.5684" y1="329.4922" y2="329.4922"/><line style="stroke:#181818;stroke-width:1;" x1="874.5684" x2="874.5684" y1="329.4922" y2="342.4922"/><line style="stroke:#181818;stroke-width:1;" x1="832.5684" x2="874.5684" y1="342.4922" y2="342.4922"/><line style="stroke:#181818;stroke-width:1;" x1="833.5684" x2="843.5684" y1="342.4922" y2="338.4922"/><line style="stroke:#181818;stroke-width:1;" x1="833.5684" x2="843.5684" y1="342.4922" y2="346.4922"/><text fill="#000000" font-family="sans-serif" font-size="13" font-weight="700" lengthAdjust="spacing" textLength="9.0454" x="839.5684" y="324.4263">5</text><text fill="#000000" font-family="sans-serif" font-size="13" lengthAdjust="spacing" textLength="103.0479" x="852.6138" y="324.4263">sign credentials</text></g><path d="M739.9463,364.4922 L1189.0254,364.4922 L1189.0254,371.625 L1179.0254,381.625 L739.9463,381.625 L739.9463,364.4922" fill="#EEEEEE" style="stroke:#000000;stroke-width:1.5;"/><rect fill="none" height="75.3984" style="stroke:#000000;stroke-width:1.5;" width="627.2349" x="739.9463" y="364.4922"/><text fill="#000000" font-family="sans-serif" font-size="13" font-weight="700" lengthAdjust="spacing" textLength="404.0791" x="754.9463" y="377.5591">scenario B2: Dataspace Authority is not a Trust Anchor</text><g class="message" data-entity-1="part5" data-entity-2="part8" data-source-line="56" id="msg6"><line style="stroke:#181818;stroke-width:1;" x1="1288.9927" x2="1278.9927" y1="402.7578" y2="398.7578"/><line style="stroke:#181818;stroke-width:1;" x1="1288.9927" x2="1278.9927" y1="402.7578" y2="406.7578"/><line style="stroke:#181818;stroke-width:1;" x1="832.5684" x2="1289.9927" y1="402.7578" y2="402.7578"/><text fill="#000000" font-family="sans-serif" font-size="13" font-weight="700" lengthAdjust="spacing" textLength="9.0454" x="839.5684" y="397.6919">6</text><text fill="#000000" font-family="sans-serif" font-size="13" lengthAdjust="spacing" textLength="72.0396" x="852.6138" y="397.6919">credentials</text></g><g class="message" data-entity-1="part8" data-entity-2="part5" data-source-line="58" id="msg7"><line style="stroke:#181818;stroke-width:1;" x1="833.5684" x2="843.5684" y1="431.8906" y2="427.8906"/><line style="stroke:#181818;stroke-width:1;" x1="833.5684" x2="843.5684" y1="431.8906" y2="435.8906"/><line style="stroke:#181818;stroke-width:1;stroke-dasharray:2,2;" x1="832.5684" x2="1294.9927" y1="431.8906" y2="431.8906"/><text fill="#000000" font-family="sans-serif" font-size="13" font-weight="700" lengthAdjust="spacing" textLength="9.0454" x="849.5684" y="426.8247">7</text><text fill="#000000" font-family="sans-serif" font-size="13" lengthAdjust="spacing" textLength="24.7432" x="862.6138" y="426.8247">VCs</text></g><g class="message" data-entity-1="part5" data-entity-2="part9" data-source-line="62" id="msg8"><line style="stroke:#181818;stroke-width:1;" x1="1456.4805" x2="1446.4805" y1="468.0234" y2="464.0234"/><line style="stroke:#181818;stroke-width:1;" x1="1456.4805" x2="1446.4805" y1="468.0234" y2="472.0234"/><line style="stroke:#181818;stroke-width:1;" x1="832.5684" x2="1457.4805" y1="468.0234" y2="468.0234"/><text fill="#000000" font-family="sans-serif" font-size="13" font-weight="700" lengthAdjust="spacing" textLength="9.0454" x="839.5684" y="462.9575">8</text><text fill="#000000" font-family="sans-serif" font-size="13" lengthAdjust="spacing" textLength="292.0493" x="852.6138" y="462.9575">request containing the 3 VCs packed as a VP</text></g><g class="message" data-entity-1="part9" data-entity-2="part5" data-source-line="64" id="msg9"><line style="stroke:#181818;stroke-width:1;" x1="833.5684" x2="843.5684" y1="497.1563" y2="493.1563"/><line style="stroke:#181818;stroke-width:1;" x1="833.5684" x2="843.5684" y1="497.1563" y2="501.1563"/><line style="stroke:#181818;stroke-width:1;stroke-dasharray:2,2;" x1="832.5684" x2="1462.4805" y1="497.1563" y2="497.1563"/><text fill="#000000" font-family="sans-serif" font-size="13" font-weight="700" lengthAdjust="spacing" textLength="9.0454" x="849.5684" y="492.0903">9</text><text fill="#000000" font-family="sans-serif" font-size="13" lengthAdjust="spacing" textLength="96.6938" x="862.6138" y="492.0903">compliance VC</text></g><g class="message" data-entity-1="part5" data-entity-2="part4" data-source-line="66" id="msg10"><line style="stroke:#181818;stroke-width:1;" x1="628.3818" x2="638.3818" y1="526.2891" y2="522.2891"/><line style="stroke:#181818;stroke-width:1;" x1="628.3818" x2="638.3818" y1="526.2891" y2="530.2891"/><line style="stroke:#181818;stroke-width:1;stroke-dasharray:2,2;" x1="627.3818" x2="826.5684" y1="526.2891" y2="526.2891"/><text fill="#000000" font-family="sans-serif" font-size="13" font-weight="700" lengthAdjust="spacing" textLength="18.0908" x="644.3818" y="521.2231">10</text><text fill="#000000" font-family="sans-serif" font-size="13" lengthAdjust="spacing" textLength="96.6938" x="666.4727" y="521.2231">compliance VC</text></g><g class="message" data-entity-1="part4" data-entity-2="part1" data-source-line="69" id="msg11"><line style="stroke:#181818;stroke-width:1;" x1="44.7197" x2="54.7197" y1="555.4219" y2="551.4219"/><line style="stroke:#181818;stroke-width:1;" x1="44.7197" x2="54.7197" y1="555.4219" y2="559.4219"/><line style="stroke:#181818;stroke-width:1;stroke-dasharray:2,2;" x1="43.7197" x2="621.3818" y1="555.4219" y2="555.4219"/><text fill="#000000" font-family="sans-serif" font-size="13" font-weight="700" lengthAdjust="spacing" textLength="18.0908" x="60.7197" y="550.356">11</text><text fill="#000000" font-family="sans-serif" font-size="13" lengthAdjust="spacing" textLength="96.6938" x="82.8105" y="550.356">compliance VC</text></g><g class="message" data-entity-1="part1" data-entity-2="part2" data-source-line="72" id="msg12"><line style="stroke:#181818;stroke-width:1;" x1="241.043" x2="231.043" y1="584.5547" y2="580.5547"/><line style="stroke:#181818;stroke-width:1;" x1="241.043" x2="231.043" y1="584.5547" y2="588.5547"/><line style="stroke:#181818;stroke-width:1;" x1="43.7197" x2="242.043" y1="584.5547" y2="584.5547"/><text fill="#000000" font-family="sans-serif" font-size="13" font-weight="700" lengthAdjust="spacing" textLength="18.0908" x="50.7197" y="579.4888">12</text><text fill="#000000" font-family="sans-serif" font-size="13" lengthAdjust="spacing" textLength="133.9927" x="72.8105" y="579.4888">store compliance VC</text></g><g class="message" data-entity-1="part2" data-entity-2="part3" data-source-line="74" id="msg13"><line style="stroke:#181818;stroke-width:1;" x1="450.3662" x2="440.3662" y1="613.6875" y2="609.6875"/><line style="stroke:#181818;stroke-width:1;" x1="450.3662" x2="440.3662" y1="613.6875" y2="617.6875"/><line style="stroke:#181818;stroke-width:1;" x1="253.043" x2="451.3662" y1="613.6875" y2="613.6875"/><text fill="#000000" font-family="sans-serif" font-size="13" font-weight="700" lengthAdjust="spacing" textLength="18.0908" x="260.043" y="608.6216">13</text><text fill="#000000" font-family="sans-serif" font-size="13" lengthAdjust="spacing" textLength="133.9927" x="282.1338" y="608.6216">store compliance VC</text></g><g class="message" data-entity-1="part3" data-entity-2="part2" data-source-line="76" id="msg14"><line style="stroke:#181818;stroke-width:1;" x1="254.043" x2="264.043" y1="642.8203" y2="638.8203"/><line style="stroke:#181818;stroke-width:1;" x1="254.043" x2="264.043" y1="642.8203" y2="646.8203"/><line style="stroke:#181818;stroke-width:1;stroke-dasharray:2,2;" x1="253.043" x2="456.3662" y1="642.8203" y2="642.8203"/><text fill="#000000" font-family="sans-serif" font-size="13" font-weight="700" lengthAdjust="spacing" textLength="18.0908" x="270.043" y="637.7544">14</text><text fill="#000000" font-family="sans-serif" font-size="13" lengthAdjust="spacing" textLength="153.2324" x="292.1338" y="637.7544">acknowledge VC stored</text></g><g class="message" data-entity-1="part2" data-entity-2="part1" data-source-line="78" id="msg15"><line style="stroke:#181818;stroke-width:1;" x1="39.7197" x2="49.7197" y1="671.9531" y2="667.9531"/><line style="stroke:#181818;stroke-width:1;" x1="39.7197" x2="49.7197" y1="671.9531" y2="675.9531"/><line style="stroke:#181818;stroke-width:1;stroke-dasharray:2,2;" x1="38.7197" x2="247.043" y1="671.9531" y2="671.9531"/><text fill="#000000" font-family="sans-serif" font-size="13" font-weight="700" lengthAdjust="spacing" textLength="18.0908" x="55.7197" y="666.8872">15</text><text fill="#000000" font-family="sans-serif" font-size="13" lengthAdjust="spacing" textLength="153.2324" x="77.8105" y="666.8872">acknowledge VC stored</text></g><?plantuml-src bLLHRzem47xth_3Owv3MLfKs7Yf1Ejf9LOL6HVlG5sCVmIBOp7RQykzd9sdYO9i13oZntNtVVUUxYzvmCIEARF6ZD30XT9ChMGgMoK8g_Bpc1kPRkG6aUuvJAKpjCYbiZ6Ur_uPJlYF2d8GsfaQgqpnpI606Jb8nKBN3VBEV56NjigjSz9em-Sv5ZbUaqBvb8ZzcX35dklYEq1S6Aox0brHZhdwiBbUhrdxtmUYwjh2Vm3pBaogr6GkwbaqsjzVJwrzNhVsM6A9tXCAuDDQ7cttjDiscLzcqTNicIjYaceANsfvftLeVW3J5U0Aw5lOftoD4IYD5kLs2GcWfF_30Ku61IhtN1hO3_FLG7SBsHzoj-CAhkcAYyQ1w6bHUEm_Iy_tDh8VLSbykguZFTsmFB64hm44mMu4bqRqYB-ZSiaCLkyXmzJ9081YsGXerRULmMpeBdQXda6peDvFAaAAYZ43ZsdoOl0_v1tAkZIA6Ip47zSPfBS0_nuqXMOH8NXr5LnJ_AflgT9SMOWHtrozbrQIuxbARsM7F1aezXpdFNMFwUfkZLke1sTtBRNPlMRgP2V0pkTqLd0WAFcvt6e7kcXrV81IqxV3c9dtb8snxJC7V4cmLgDrhX5S2ZDq-0jcQyZTY81dVUHpIeYIbooVMBwCJyeZ4eHXMckCD55_j6zmpOwa2byG3vAJmz7vx5Rx_OtqLHB1NyGHggyTkNGl6dL4xa6eZsEsBa5lcEwmf2AAun9EB4OuD8DUOu3l2oV05-mrxPlxQTcUFtxLGbKAOoMKo4o7jE9sMHdfOHhqysljD1g0qr30jU95fnE04TAyGAItXOCORTWtuoX7RgQORO6vy2LxCEeq140gXZsYYtIfOPBww43SgvJ_h80aV6xqZG-veWbLq13wvOU8BBV71jJrUVIVwDB4bvKMX1DW1p-U7-NIE9W95G8P7HTZE4VAz09Oxx9gF-TKwJj8JaRY8SoZyMiKzAjH_?></g></svg>