<svg xmlns="http://www.w3.org/2000/svg" xmlns:xlink="http://www.w3.org/1999/xlink" contentStyleType="text/css" data-diagram-type="SEQUENCE" height="324px" preserveAspectRatio="none" style="width:493px;height:324px;background:#FFFFFF;" version="1.1" viewBox="0 0 493 324" width="493px" zoomAndPan="magnify"><?plantuml 1.2026.3beta6?><defs/><g><rect fill="#F8F2FF" height="311.2578" style="stroke:#181818;stroke-width:0.5;" width="465.832" x="11" y="6"/><text fill="#000000" font-family="sans-serif" font-size="13" font-weight="700" lengthAdjust="spacing" textLength="163.5981" x="162.1169" y="18.0669">Participant ecosystem</text><g><title>Agent</title><rect fill="#FFFFFF" height="87.3984" style="stroke:#181818;stroke-width:1;" width="10" x="33.7197" y="132.5625"/></g><g><title>Identity Hub</title><rect fill="#FFFFFF" height="87.3984" style="stroke:#181818;stroke-width:1;" width="10" x="233.9976" y="132.5625"/></g><g><title>VC Store</title><rect fill="#FFFFFF" height="29.1328" style="stroke:#181818;stroke-width:1;" width="10" x="434.2754" y="161.6953"/></g><g class="participant-lifeline" data-entity-uid="part1" data-qualified-name="ParticipantAgent" data-source-line="20" id="part1-lifeline"><g><title>Agent</title><rect fill="#000000" fill-opacity="0.00000" height="136.5313" width="8" x="34.7197" y="101.4297"/><line style="stroke:#181818;stroke-width:0.5;stroke-dasharray:5,5;" x1="38" x2="38" y1="101.4297" y2="237.9609"/></g></g><g class="participant-lifeline" data-entity-uid="part2" data-qualified-name="ParticipantIdentityHub" data-source-line="21" id="part2-lifeline"><g><title>Identity Hub</title><rect fill="#000000" fill-opacity="0.00000" height="136.5313" width="8" x="234.9976" y="101.4297"/><line style="stroke:#181818;stroke-width:0.5;stroke-dasharray:5,5;" x1="238.8013" x2="238.8013" y1="101.4297" y2="237.9609"/></g></g><g class="participant-lifeline" data-entity-uid="part3" data-qualified-name="ParticipantVcStore" data-source-line="22" id="part3-lifeline"><g><title>VC Store</title><rect fill="#000000" fill-opacity="0.00000" height="136.5313" width="8" x="435.2754" y="101.4297"/><line style="stroke:#181818;stroke-width:0.5;stroke-dasharray:5,5;" x1="438.7188" x2="438.7188" y1="101.4297" y2="237.9609"/></g></g><g class="participant participant-head" data-entity-uid="part1" data-qualified-name="ParticipantAgent" data-source-line="20" id="part1-head"><text fill="#000000" font-family="sans-serif" font-size="14" lengthAdjust="spacing" textLength="41.4395" x="15" y="98.1279">Agent</text><ellipse cx="38.7197" cy="33.6328" fill="#F5F5F5" rx="8" ry="8" style="stroke:#181818;stroke-width:0.5;"/><path d="M38.7197,41.6328 L38.7197,68.6328 M25.7197,49.6328 L51.7197,49.6328 M38.7197,68.6328 L25.7197,83.6328 M38.7197,68.6328 L51.7197,83.6328" fill="none" style="stroke:#181818;stroke-width:0.5;"/></g><g class="participant participant-tail" data-entity-uid="part1" data-qualified-name="ParticipantAgent" data-source-line="20" id="part1-tail"><text fill="#000000" font-family="sans-serif" font-size="14" lengthAdjust="spacing" textLength="41.4395" x="15" y="249.9561">Agent</text><ellipse cx="38.7197" cy="261.7578" fill="#F5F5F5" rx="8" ry="8" style="stroke:#181818;stroke-width:0.5;"/><path d="M38.7197,269.7578 L38.7197,296.7578 M25.7197,277.7578 L51.7197,277.7578 M38.7197,296.7578 L25.7197,311.7578 M38.7197,296.7578 L51.7197,311.7578" fill="none" style="stroke:#181818;stroke-width:0.5;"/></g><g class="participant participant-head" data-entity-uid="part2" data-qualified-name="ParticipantIdentityHub" data-source-line="21" id="part2-head"><rect fill="#FFFFCC" height="30.2969" rx="2.5" ry="2.5" style="stroke:#181818;stroke-width:0.5;" width="100.3926" x="188.8013" y="70.1328"/><text fill="#000000" font-family="sans-serif" font-size="14" lengthAdjust="spacing" textLength="86.3926" x="195.8013" y="90.1279">Identity Hub</text></g><g class="participant participant-tail" data-entity-uid="part2" data-qualified-name="ParticipantIdentityHub" data-source-line="21" id="part2-tail"><rect fill="#FFFFCC" height="30.2969" rx="2.5" ry="2.5" style="stroke:#181818;stroke-width:0.5;" width="100.3926" x="188.8013" y="236.9609"/><text fill="#000000" font-family="sans-serif" font-size="14" lengthAdjust="spacing" textLength="86.3926" x="195.8013" y="256.9561">Identity Hub</text></g><g class="participant participant-head" data-entity-uid="part3" data-qualified-name="ParticipantVcStore" data-source-line="22" id="part3-head"><text fill="#000000" font-family="sans-serif" font-size="14" lengthAdjust="spacing" textLength="61.1133" x="405.7188" y="98.1279">VC Store</text><path d="M421.2754,49.1328 C421.2754,39.1328 439.2754,39.1328 439.2754,39.1328 C439.2754,39.1328 457.2754,39.1328 457.2754,49.1328 L457.2754,75.1328 C457.2754,85.1328 439.2754,85.1328 439.2754,85.1328 C439.2754,85.1328 421.2754,85.1328 421.2754,75.1328 L421.2754,49.1328" fill="#E2E2F0" style="stroke:#181818;stroke-width:0.5;"/><path d="M421.2754,49.1328 C421.2754,59.1328 439.2754,59.1328 439.2754,59.1328 C439.2754,59.1328 457.2754,59.1328 457.2754,49.1328" fill="none" style="stroke:#181818;stroke-width:0.5;"/></g><g class="participant participant-tail" data-entity-uid="part3" data-qualified-name="ParticipantVcStore" data-source-line="22" id="part3-tail"><text fill="#000000" font-family="sans-serif" font-size="14" lengthAdjust="spacing" textLength="61.1133" x="405.7188" y="249.9561">VC Store</text><path d="M421.2754,263.2578 C421.2754,253.2578 439.2754,253.2578 439.2754,253.2578 C439.2754,253.2578 457.2754,253.2578 457.2754,263.2578 L457.2754,289.2578 C457.2754,299.2578 439.2754,299.2578 439.2754,299.2578 C439.2754,299.2578 421.2754,299.2578 421.2754,289.2578 L421.2754,263.2578" fill="#E2E2F0" style="stroke:#181818;stroke-width:0.5;"/><path d="M421.2754,263.2578 C421.2754,273.2578 439.2754,273.2578 439.2754,273.2578 C439.2754,273.2578 457.2754,273.2578 457.2754,263.2578" fill="none" style="stroke:#181818;stroke-width:0.5;"/></g><g><title>Agent</title><rect fill="#FFFFFF" height="87.3984" style="stroke:#181818;stroke-width:1;" width="10" x="33.7197" y="132.5625"/></g><g><title>Identity Hub</title><rect fill="#FFFFFF" height="87.3984" style="stroke:#181818;stroke-width:1;" width="10" x="233.9976" y="132.5625"/></g><g><title>VC Store</title><rect fill="#FFFFFF" height="29.1328" style="stroke:#181818;stroke-width:1;" width="10" x="434.2754" y="161.6953"/></g><g class="message" data-entity-1="part1" data-entity-2="part2" data-source-line="42" id="msg1"><line style="stroke:#181818;stroke-width:1;" x1="231.9976" x2="221.9976" y1="132.5625" y2="128.5625"/><line style="stroke:#181818;stroke-width:1;" x1="231.9976" x2="221.9976" y1="132.5625" y2="136.5625"/><line style="stroke:#181818;stroke-width:1;" x1="43.7197" x2="232.9976" y1="132.5625" y2="132.5625"/><text fill="#000000" font-family="sans-serif" font-size="13" font-weight="700" lengthAdjust="spacing" textLength="9.0454" x="50.7197" y="127.4966">1</text><text fill="#000000" font-family="sans-serif" font-size="13" lengthAdjust="spacing" textLength="133.9927" x="63.7651" y="127.4966">store compliance VC</text></g><g class="message" data-entity-1="part2" data-entity-2="part3" data-source-line="45" id="msg2"><line style="stroke:#181818;stroke-width:1;" x1="432.2754" x2="422.2754" y1="161.6953" y2="157.6953"/><line style="stroke:#181818;stroke-width:1;" x1="432.2754" x2="422.2754" y1="161.6953" y2="165.6953"/><line style="stroke:#181818;stroke-width:1;" x1="243.9976" x2="433.2754" y1="161.6953" y2="161.6953"/><text fill="#000000" font-family="sans-serif" font-size="13" font-weight="700" lengthAdjust="spacing" textLength="9.0454" x="250.9976" y="156.6294">2</text><text fill="#000000" font-family="sans-serif" font-size="13" lengthAdjust="spacing" textLength="55.269" x="264.043" y="156.6294">store VC</text></g><g class="message" data-entity-1="part3" data-entity-2="part2" data-source-line="47" id="msg3"><line style="stroke:#181818;stroke-width:1;" x1="244.9976" x2="254.9976" y1="190.8281" y2="186.8281"/><line style="stroke:#181818;stroke-width:1;" x1="244.9976" x2="254.9976" y1="190.8281" y2="194.8281"/><line style="stroke:#181818;stroke-width:1;stroke-dasharray:2,2;" x1="243.9976" x2="438.2754" y1="190.8281" y2="190.8281"/><text fill="#000000" font-family="sans-serif" font-size="13" font-weight="700" lengthAdjust="spacing" textLength="9.0454" x="260.9976" y="185.7622">3</text><text fill="#000000" font-family="sans-serif" font-size="13" lengthAdjust="spacing" textLength="153.2324" x="274.043" y="185.7622">acknowledge VC stored</text></g><g class="message" data-entity-1="part2" data-entity-2="part1" data-source-line="49" id="msg4"><line style="stroke:#181818;stroke-width:1;" x1="39.7197" x2="49.7197" y1="219.9609" y2="215.9609"/><line style="stroke:#181818;stroke-width:1;" x1="39.7197" x2="49.7197" y1="219.9609" y2="223.9609"/><line style="stroke:#181818;stroke-width:1;stroke-dasharray:2,2;" x1="38.7197" x2="237.9976" y1="219.9609" y2="219.9609"/><text fill="#000000" font-family="sans-serif" font-size="13" font-weight="700" lengthAdjust="spacing" textLength="9.0454" x="55.7197" y="214.895">4</text><text fill="#000000" font-family="sans-serif" font-size="13" lengthAdjust="spacing" textLength="153.2324" x="68.7651" y="214.895">acknowledge VC stored</text></g><?plantuml-src bLHTRvim57tth_3O0q-LrbMLjZrKQiXe9qrJDAfqhuvz0IjW8zkqoR-ViVbm89ao7X3SUtpEFOShz9wB3L6anh-aWHMX-qB9Lh14LbBXrv8Ro6gv1wHFWAaKnaDMbJqJTEtTSCeR8inLR8_KI7KTie0Bd0kGL0oK1sJxuwfgFQHn45qI9j-vA71EAXrsLlAm8OnrhTjF27rWa7C1eINFcN_9F-Vvs7ywC5hw3liABEYyg5QRHq5BsK-pla_llz-D_RK6Nq-Jz2v9n_ehKS9EqIVSQblJUkp-1DAxVm5Q2ljK714YhP6YhNUW4Dh90uw2iJ5GgO_QG1tXZtCx2DkBT9yXTEg2n4JZo3r53jK4b07s1xC8RexFxSwT6DwnBLZ1qK17mOWXEw9FKjtIpAg3ExjDi7k940Y6hH64OcV7PcMvXiHGF9_dDnHS6qKCbo83zSQf9mphk6-4Gos8rdP2tH0A6waCgHp9MCE-k20ORTa10sUJh_1hz0RZANXxQX5uF0GGzmcuRS9-dUm0y-LQEWaG6I-wZGg3wKjZ9al1fp_hvDagJGk-r4XatLIS20eXzrGzGn-iAhv5QB5qDmyFbxRh6zOkKJhnRnDaC-HlnC1YVyzs0ZvqGMOsmR2VW_e5oHw6pfoy-QSd-qyJyhq2LdJSNeGX1bUAd4m-4_A9_fz46D1vX6Fz2m00?></g></svg>